<?xml version="1.0" encoding="utf-8" standalone="no"?>
<!DOCTYPE svg PUBLIC "-//W3C//DTD SVG 1.1//EN"
  "http://www.w3.org/Graphics/SVG/1.1/DTD/svg11.dtd">
<svg xmlns:xlink="http://www.w3.org/1999/xlink" width="720pt" height="576pt" viewBox="0 0 720 576" xmlns="http://www.w3.org/2000/svg" version="1.1">
 <metadata>
  <rdf:RDF xmlns:dc="http://purl.org/dc/elements/1.1/" xmlns:cc="http://creativecommons.org/ns#" xmlns:rdf="http://www.w3.org/1999/02/22-rdf-syntax-ns#">
   <cc:Work>
    <dc:type rdf:resource="http://purl.org/dc/dcmitype/StillImage"/>
    <dc:date>2026-06-22T10:35:00.637347</dc:date>
    <dc:format>image/svg+xml</dc:format>
    <dc:creator>
     <cc:Agent>
      <dc:title>Matplotlib v3.8.2, https://matplotlib.org/</dc:title>
     </cc:Agent>
    </dc:creator>
   </cc:Work>
  </rdf:RDF>
 </metadata>
 <defs>
  <style type="text/css">*{stroke-linejoin: round; stroke-linecap: butt}</style>
 </defs>
 <g id="figure_1">
  <g id="patch_1">
   <path d="M 0 576 
L 720 576 
L 720 0 
L 0 0 
z
" style="fill: #ffffff"/>
  </g>
  <g id="axes_1">
   <g id="patch_2">
    <path d="M 68.6 190.091578 
L 709.2 190.091578 
L 709.2 34.56 
L 68.6 34.56 
z
" style="fill: #ffffff"/>
   </g>
   <g id="matplotlib.axis_1">
    <g id="xtick_1">
     <g id="line2d_1">
      <path d="M 97.718182 190.091578 
L 97.718182 34.56 
" clip-path="url(#p5df8ea9d5d)" style="fill: none; stroke: #b0b0b0; stroke-width: 0.8; stroke-linecap: square"/>
     </g>
     <g id="line2d_2">
      <defs>
       <path id="m38579f756b" d="M 0 0 
L 0 3.5 
" style="stroke: #000000; stroke-width: 0.8"/>
      </defs>
      <g>
       <use xlink:href="#m38579f756b" x="97.718182" y="190.091578" style="stroke: #000000; stroke-width: 0.8"/>
      </g>
     </g>
    </g>
    <g id="xtick_2">
     <g id="line2d_3">
      <path d="M 192.096096 190.091578 
L 192.096096 34.56 
" clip-path="url(#p5df8ea9d5d)" style="fill: none; stroke: #b0b0b0; stroke-width: 0.8; stroke-linecap: square"/>
     </g>
     <g id="line2d_4">
      <g>
       <use xlink:href="#m38579f756b" x="192.096096" y="190.091578" style="stroke: #000000; stroke-width: 0.8"/>
      </g>
     </g>
    </g>
    <g id="xtick_3">
     <g id="line2d_5">
      <path d="M 286.47401 190.091578 
L 286.47401 34.56 
" clip-path="url(#p5df8ea9d5d)" style="fill: none; stroke: #b0b0b0; stroke-width: 0.8; stroke-linecap: square"/>
     </g>
     <g id="line2d_6">
      <g>
       <use xlink:href="#m38579f756b" x="286.47401" y="190.091578" style="stroke: #000000; stroke-width: 0.8"/>
      </g>
     </g>
    </g>
    <g id="xtick_4">
     <g id="line2d_7">
      <path d="M 380.851923 190.091578 
L 380.851923 34.56 
" clip-path="url(#p5df8ea9d5d)" style="fill: none; stroke: #b0b0b0; stroke-width: 0.8; stroke-linecap: square"/>
     </g>
     <g id="line2d_8">
      <g>
       <use xlink:href="#m38579f756b" x="380.851923" y="190.091578" style="stroke: #000000; stroke-width: 0.8"/>
      </g>
     </g>
    </g>
    <g id="xtick_5">
     <g id="line2d_9">
      <path d="M 475.229837 190.091578 
L 475.229837 34.56 
" clip-path="url(#p5df8ea9d5d)" style="fill: none; stroke: #b0b0b0; stroke-width: 0.8; stroke-linecap: square"/>
     </g>
     <g id="line2d_10">
      <g>
       <use xlink:href="#m38579f756b" x="475.229837" y="190.091578" style="stroke: #000000; stroke-width: 0.8"/>
      </g>
     </g>
    </g>
    <g id="xtick_6">
     <g id="line2d_11">
      <path d="M 569.607751 190.091578 
L 569.607751 34.56 
" clip-path="url(#p5df8ea9d5d)" style="fill: none; stroke: #b0b0b0; stroke-width: 0.8; stroke-linecap: square"/>
     </g>
     <g id="line2d_12">
      <g>
       <use xlink:href="#m38579f756b" x="569.607751" y="190.091578" style="stroke: #000000; stroke-width: 0.8"/>
      </g>
     </g>
    </g>
    <g id="xtick_7">
     <g id="line2d_13">
      <path d="M 663.985665 190.091578 
L 663.985665 34.56 
" clip-path="url(#p5df8ea9d5d)" style="fill: none; stroke: #b0b0b0; stroke-width: 0.8; stroke-linecap: square"/>
     </g>
     <g id="line2d_14">
      <g>
       <use xlink:href="#m38579f756b" x="663.985665" y="190.091578" style="stroke: #000000; stroke-width: 0.8"/>
      </g>
     </g>
    </g>
   </g>
   <g id="matplotlib.axis_2">
    <g id="ytick_1">
     <g id="line2d_15">
      <path d="M 68.6 178.005116 
L 709.2 178.005116 
" clip-path="url(#p5df8ea9d5d)" style="fill: none; stroke: #b0b0b0; stroke-width: 0.8; stroke-linecap: square"/>
     </g>
     <g id="line2d_16">
      <defs>
       <path id="m660ca692eb" d="M 0 0 
L -3.5 0 
" style="stroke: #000000; stroke-width: 0.8"/>
      </defs>
      <g>
       <use xlink:href="#m660ca692eb" x="68.6" y="178.005116" style="stroke: #000000; stroke-width: 0.8"/>
      </g>
     </g>
     <g id="text_1">
      <!-- −0.004 -->
      <g transform="translate(24.592188 181.804335) scale(0.1 -0.1)">
       <defs>
        <path id="DejaVuSans-2212" d="M 678 2272 
L 4684 2272 
L 4684 1741 
L 678 1741 
L 678 2272 
z
" transform="scale(0.015625)"/>
        <path id="DejaVuSans-30" d="M 2034 4250 
Q 1547 4250 1301 3770 
Q 1056 3291 1056 2328 
Q 1056 1369 1301 889 
Q 1547 409 2034 409 
Q 2525 409 2770 889 
Q 3016 1369 3016 2328 
Q 3016 3291 2770 3770 
Q 2525 4250 2034 4250 
z
M 2034 4750 
Q 2819 4750 3233 4129 
Q 3647 3509 3647 2328 
Q 3647 1150 3233 529 
Q 2819 -91 2034 -91 
Q 1250 -91 836 529 
Q 422 1150 422 2328 
Q 422 3509 836 4129 
Q 1250 4750 2034 4750 
z
" transform="scale(0.015625)"/>
        <path id="DejaVuSans-2e" d="M 684 794 
L 1344 794 
L 1344 0 
L 684 0 
L 684 794 
z
" transform="scale(0.015625)"/>
        <path id="DejaVuSans-34" d="M 2419 4116 
L 825 1625 
L 2419 1625 
L 2419 4116 
z
M 2253 4666 
L 3047 4666 
L 3047 1625 
L 3713 1625 
L 3713 1100 
L 3047 1100 
L 3047 0 
L 2419 0 
L 2419 1100 
L 313 1100 
L 313 1709 
L 2253 4666 
z
" transform="scale(0.015625)"/>
       </defs>
       <use xlink:href="#DejaVuSans-2212"/>
       <use xlink:href="#DejaVuSans-30" x="83.789062"/>
       <use xlink:href="#DejaVuSans-2e" x="147.412109"/>
       <use xlink:href="#DejaVuSans-30" x="179.199219"/>
       <use xlink:href="#DejaVuSans-30" x="242.822266"/>
       <use xlink:href="#DejaVuSans-34" x="306.445312"/>
      </g>
     </g>
    </g>
    <g id="ytick_2">
     <g id="line2d_17">
      <path d="M 68.6 140.425756 
L 709.2 140.425756 
" clip-path="url(#p5df8ea9d5d)" style="fill: none; stroke: #b0b0b0; stroke-width: 0.8; stroke-linecap: square"/>
     </g>
     <g id="line2d_18">
      <g>
       <use xlink:href="#m660ca692eb" x="68.6" y="140.425756" style="stroke: #000000; stroke-width: 0.8"/>
      </g>
     </g>
     <g id="text_2">
      <!-- −0.002 -->
      <g transform="translate(24.592188 144.224974) scale(0.1 -0.1)">
       <defs>
        <path id="DejaVuSans-32" d="M 1228 531 
L 3431 531 
L 3431 0 
L 469 0 
L 469 531 
Q 828 903 1448 1529 
Q 2069 2156 2228 2338 
Q 2531 2678 2651 2914 
Q 2772 3150 2772 3378 
Q 2772 3750 2511 3984 
Q 2250 4219 1831 4219 
Q 1534 4219 1204 4116 
Q 875 4013 500 3803 
L 500 4441 
Q 881 4594 1212 4672 
Q 1544 4750 1819 4750 
Q 2544 4750 2975 4387 
Q 3406 4025 3406 3419 
Q 3406 3131 3298 2873 
Q 3191 2616 2906 2266 
Q 2828 2175 2409 1742 
Q 1991 1309 1228 531 
z
" transform="scale(0.015625)"/>
       </defs>
       <use xlink:href="#DejaVuSans-2212"/>
       <use xlink:href="#DejaVuSans-30" x="83.789062"/>
       <use xlink:href="#DejaVuSans-2e" x="147.412109"/>
       <use xlink:href="#DejaVuSans-30" x="179.199219"/>
       <use xlink:href="#DejaVuSans-30" x="242.822266"/>
       <use xlink:href="#DejaVuSans-32" x="306.445312"/>
      </g>
     </g>
    </g>
    <g id="ytick_3">
     <g id="line2d_19">
      <path d="M 68.6 102.846395 
L 709.2 102.846395 
" clip-path="url(#p5df8ea9d5d)" style="fill: none; stroke: #b0b0b0; stroke-width: 0.8; stroke-linecap: square"/>
     </g>
     <g id="line2d_20">
      <g>
       <use xlink:href="#m660ca692eb" x="68.6" y="102.846395" style="stroke: #000000; stroke-width: 0.8"/>
      </g>
     </g>
     <g id="text_3">
      <!-- 0.000 -->
      <g transform="translate(32.971875 106.645614) scale(0.1 -0.1)">
       <use xlink:href="#DejaVuSans-30"/>
       <use xlink:href="#DejaVuSans-2e" x="63.623047"/>
       <use xlink:href="#DejaVuSans-30" x="95.410156"/>
       <use xlink:href="#DejaVuSans-30" x="159.033203"/>
       <use xlink:href="#DejaVuSans-30" x="222.65625"/>
      </g>
     </g>
    </g>
    <g id="ytick_4">
     <g id="line2d_21">
      <path d="M 68.6 65.267035 
L 709.2 65.267035 
" clip-path="url(#p5df8ea9d5d)" style="fill: none; stroke: #b0b0b0; stroke-width: 0.8; stroke-linecap: square"/>
     </g>
     <g id="line2d_22">
      <g>
       <use xlink:href="#m660ca692eb" x="68.6" y="65.267035" style="stroke: #000000; stroke-width: 0.8"/>
      </g>
     </g>
     <g id="text_4">
      <!-- 0.002 -->
      <g transform="translate(32.971875 69.066254) scale(0.1 -0.1)">
       <use xlink:href="#DejaVuSans-30"/>
       <use xlink:href="#DejaVuSans-2e" x="63.623047"/>
       <use xlink:href="#DejaVuSans-30" x="95.410156"/>
       <use xlink:href="#DejaVuSans-30" x="159.033203"/>
       <use xlink:href="#DejaVuSans-32" x="222.65625"/>
      </g>
     </g>
    </g>
    <g id="text_5">
     <!-- Error X (m) -->
     <g transform="translate(18.5125 139.885945) rotate(-90) scale(0.1 -0.1)">
      <defs>
       <path id="DejaVuSans-45" d="M 628 4666 
L 3578 4666 
L 3578 4134 
L 1259 4134 
L 1259 2753 
L 3481 2753 
L 3481 2222 
L 1259 2222 
L 1259 531 
L 3634 531 
L 3634 0 
L 628 0 
L 628 4666 
z
" transform="scale(0.015625)"/>
       <path id="DejaVuSans-72" d="M 2631 2963 
Q 2534 3019 2420 3045 
Q 2306 3072 2169 3072 
Q 1681 3072 1420 2755 
Q 1159 2438 1159 1844 
L 1159 0 
L 581 0 
L 581 3500 
L 1159 3500 
L 1159 2956 
Q 1341 3275 1631 3429 
Q 1922 3584 2338 3584 
Q 2397 3584 2469 3576 
Q 2541 3569 2628 3553 
L 2631 2963 
z
" transform="scale(0.015625)"/>
       <path id="DejaVuSans-6f" d="M 1959 3097 
Q 1497 3097 1228 2736 
Q 959 2375 959 1747 
Q 959 1119 1226 758 
Q 1494 397 1959 397 
Q 2419 397 2687 759 
Q 2956 1122 2956 1747 
Q 2956 2369 2687 2733 
Q 2419 3097 1959 3097 
z
M 1959 3584 
Q 2709 3584 3137 3096 
Q 3566 2609 3566 1747 
Q 3566 888 3137 398 
Q 2709 -91 1959 -91 
Q 1206 -91 779 398 
Q 353 888 353 1747 
Q 353 2609 779 3096 
Q 1206 3584 1959 3584 
z
" transform="scale(0.015625)"/>
       <path id="DejaVuSans-20" transform="scale(0.015625)"/>
       <path id="DejaVuSans-58" d="M 403 4666 
L 1081 4666 
L 2241 2931 
L 3406 4666 
L 4084 4666 
L 2584 2425 
L 4184 0 
L 3506 0 
L 2194 1984 
L 872 0 
L 191 0 
L 1856 2491 
L 403 4666 
z
" transform="scale(0.015625)"/>
       <path id="DejaVuSans-28" d="M 1984 4856 
Q 1566 4138 1362 3434 
Q 1159 2731 1159 2009 
Q 1159 1288 1364 580 
Q 1569 -128 1984 -844 
L 1484 -844 
Q 1016 -109 783 600 
Q 550 1309 550 2009 
Q 550 2706 781 3412 
Q 1013 4119 1484 4856 
L 1984 4856 
z
" transform="scale(0.015625)"/>
       <path id="DejaVuSans-6d" d="M 3328 2828 
Q 3544 3216 3844 3400 
Q 4144 3584 4550 3584 
Q 5097 3584 5394 3201 
Q 5691 2819 5691 2113 
L 5691 0 
L 5113 0 
L 5113 2094 
Q 5113 2597 4934 2840 
Q 4756 3084 4391 3084 
Q 3944 3084 3684 2787 
Q 3425 2491 3425 1978 
L 3425 0 
L 2847 0 
L 2847 2094 
Q 2847 2600 2669 2842 
Q 2491 3084 2119 3084 
Q 1678 3084 1418 2786 
Q 1159 2488 1159 1978 
L 1159 0 
L 581 0 
L 581 3500 
L 1159 3500 
L 1159 2956 
Q 1356 3278 1631 3431 
Q 1906 3584 2284 3584 
Q 2666 3584 2933 3390 
Q 3200 3197 3328 2828 
z
" transform="scale(0.015625)"/>
       <path id="DejaVuSans-29" d="M 513 4856 
L 1013 4856 
Q 1481 4119 1714 3412 
Q 1947 2706 1947 2009 
Q 1947 1309 1714 600 
Q 1481 -109 1013 -844 
L 513 -844 
Q 928 -128 1133 580 
Q 1338 1288 1338 2009 
Q 1338 2731 1133 3434 
Q 928 4138 513 4856 
z
" transform="scale(0.015625)"/>
      </defs>
      <use xlink:href="#DejaVuSans-45"/>
      <use xlink:href="#DejaVuSans-72" x="63.183594"/>
      <use xlink:href="#DejaVuSans-72" x="102.546875"/>
      <use xlink:href="#DejaVuSans-6f" x="141.410156"/>
      <use xlink:href="#DejaVuSans-72" x="202.591797"/>
      <use xlink:href="#DejaVuSans-20" x="243.705078"/>
      <use xlink:href="#DejaVuSans-58" x="275.492188"/>
      <use xlink:href="#DejaVuSans-20" x="343.998047"/>
      <use xlink:href="#DejaVuSans-28" x="375.785156"/>
      <use xlink:href="#DejaVuSans-6d" x="414.798828"/>
      <use xlink:href="#DejaVuSans-29" x="512.210938"/>
     </g>
    </g>
   </g>
   <g id="line2d_23">
    <path d="M 97.718182 119.0431 
L 99.60574 120.922068 
L 100.549519 120.226849 
L 101.493298 120.302008 
L 102.437078 119.982584 
L 103.380857 119.869845 
L 104.324636 119.588 
L 105.268415 120.414746 
L 106.212194 120.18927 
L 107.155973 120.20806 
L 108.099752 120.471115 
L 109.043531 120.132901 
L 109.987311 118.798834 
L 110.93109 118.817623 
L 111.874869 119.193417 
L 112.818648 118.460619 
L 113.762427 118.42304 
L 114.706206 118.573358 
L 115.649985 118.42304 
L 116.593765 119.268576 
L 117.537544 119.381314 
L 118.481323 119.813476 
L 119.425102 119.512842 
L 120.368881 119.963794 
L 121.31266 118.911572 
L 122.256439 120.734171 
L 123.200219 120.715381 
L 126.031556 119.418893 
L 126.975335 119.926215 
L 127.919114 119.249786 
L 128.862893 119.832266 
L 129.806673 119.550421 
L 130.750452 119.757107 
L 131.694231 120.151691 
L 132.63801 119.456472 
L 133.581789 120.17048 
L 134.525568 120.696591 
L 135.469347 122.087028 
L 136.413127 121.147544 
L 137.356906 121.37302 
L 138.300685 119.531631 
L 139.244464 119.832266 
L 140.188243 120.358377 
L 141.132022 119.0431 
L 142.075801 118.40425 
L 143.01958 118.855203 
L 143.96336 118.554568 
L 145.850918 116.205858 
L 146.794697 115.942802 
L 149.626034 112.992823 
L 150.569814 112.673398 
L 151.513593 112.034549 
L 152.457372 115.454271 
L 153.401151 115.022108 
L 154.34493 114.834211 
L 155.288709 115.924013 
L 156.232488 116.243437 
L 157.176268 115.191215 
L 158.120047 116.017961 
L 159.063826 116.544072 
L 160.007605 116.468913 
L 160.951384 116.919866 
L 161.895163 116.205858 
L 162.838942 115.980382 
L 163.782722 115.604588 
L 164.726501 115.49185 
L 166.614059 115.942802 
L 167.557838 115.642167 
L 169.445396 113.368616 
L 170.389175 112.804926 
L 171.332955 112.898874 
L 173.220513 116.525282 
L 174.164292 116.619231 
L 175.108071 116.506493 
L 176.05185 113.951096 
L 176.995629 113.237088 
L 177.939409 116.581651 
L 178.883188 117.427187 
L 179.826967 118.949151 
L 181.714525 117.915719 
L 182.658304 117.032604 
L 183.602083 115.416691 
L 184.545863 114.853001 
L 185.489642 114.646314 
L 186.433421 115.191215 
L 187.3772 113.14314 
L 188.320979 113.16193 
L 189.264758 111.921811 
L 190.208537 111.132644 
L 191.152317 114.120203 
L 192.096096 113.951096 
L 193.039875 116.600441 
L 193.983654 116.281017 
L 194.927433 109.967684 
L 195.871212 114.420838 
L 196.814991 114.646314 
L 197.758771 114.195362 
L 198.70255 119.851056 
L 199.646329 117.558715 
L 200.590108 119.324945 
L 201.533887 121.448179 
L 202.477666 117.23929 
L 203.421445 117.727822 
L 204.365224 118.817623 
L 205.309004 118.761254 
L 206.252783 125.037008 
L 207.196562 121.241492 
L 208.140341 121.93671 
L 209.08412 122.162186 
L 210.027899 120.283218 
L 210.971678 119.851056 
L 211.915458 122.143397 
L 212.859237 122.444032 
L 213.803016 128.907682 
L 214.746795 124.755162 
L 215.690574 124.510896 
L 216.634353 125.581908 
L 217.578132 120.828119 
L 218.521912 122.011869 
L 219.465691 118.291512 
L 220.40947 111.97818 
L 221.353249 114.383259 
L 222.297028 112.372763 
L 223.240807 118.798834 
L 224.184586 128.964051 
L 225.128366 125.018218 
L 226.072145 127.047503 
L 227.015924 120.395957 
L 227.959703 100.065523 
L 228.903482 114.477207 
L 229.847261 114.796632 
L 230.79104 124.736373 
L 231.734819 141.196132 
L 232.678599 136.423554 
L 233.622378 130.711491 
L 234.566157 123.70294 
L 235.509936 104.969629 
L 236.453715 111.733914 
L 237.397494 115.736116 
L 238.341273 129.903535 
L 239.285053 141.647085 
L 240.228832 134.826431 
L 241.172611 133.473574 
L 242.11639 124.680004 
L 243.060169 108.051137 
L 244.003948 115.717326 
L 244.947727 117.896929 
L 245.891507 132.440142 
L 246.835286 149.106588 
L 247.779065 139.542641 
L 248.722844 132.346193 
L 249.666623 126.108019 
L 250.610402 98.036237 
L 251.554181 105.589689 
L 253.44174 131.218812 
L 254.385519 147.22762 
L 255.329298 135.108276 
L 256.273077 132.496511 
L 257.216856 122.650718 
L 258.160635 88.321972 
L 259.104415 108.671196 
L 260.048194 122.068238 
L 260.991973 129.715638 
L 261.935752 148.918691 
L 262.879531 145.104386 
L 263.82331 135.709546 
L 264.767089 123.496254 
L 265.710868 95.086257 
L 266.654648 100.23463 
L 267.598427 107.694133 
L 268.542206 126.126809 
L 269.485985 163.762538 
L 270.429764 144.127323 
L 271.373543 140.406966 
L 272.317322 125.638277 
L 273.261102 82.628699 
L 275.14866 110.17437 
L 276.092439 123.928416 
L 277.036218 166.092459 
L 277.979997 150.609762 
L 278.923776 140.275438 
L 279.867556 125.112166 
L 280.811335 89.900306 
L 281.755114 88.829294 
L 283.642672 128.062146 
L 284.586451 177.929957 
L 285.53023 157.881368 
L 286.47401 146.476033 
L 287.417789 125.600698 
L 288.361568 81.200684 
L 289.305347 96.363956 
L 290.249126 108.859093 
L 291.192905 125.224904 
L 292.136684 169.249125 
L 293.080464 164.589284 
L 294.024243 143.507263 
L 294.968022 126.746868 
L 295.911801 105.946692 
L 296.85558 104.537466 
L 297.799359 107.299549 
L 299.686917 130.392066 
L 300.630697 134.732482 
L 301.574476 126.521392 
L 302.518255 133.342046 
L 303.462034 129.490162 
L 304.405813 123.890837 
L 305.349592 122.951353 
L 306.293371 120.489905 
L 307.237151 118.629727 
L 308.18093 124.586055 
L 309.124709 121.109964 
L 310.068488 133.962106 
L 311.012267 150.778869 
L 311.956046 132.740776 
L 312.899825 128.794944 
L 313.843605 121.429389 
L 314.787384 109.535521 
L 315.731163 113.537723 
L 316.674942 123.402305 
L 317.618721 135.540439 
L 318.5625 152.939683 
L 319.506279 130.824229 
L 320.450059 137.607304 
L 321.393838 128.607047 
L 322.337617 110.77564 
L 325.168954 136.498712 
L 326.112733 151.680774 
L 327.056512 136.04776 
L 328.000292 132.252245 
L 328.944071 127.122662 
L 329.88785 96.739749 
L 330.831629 94.015246 
L 332.719187 132.252245 
L 333.662966 139.692958 
L 334.606746 131.613396 
L 335.550525 131.181233 
L 336.494304 122.143397 
L 337.438083 105.946692 
L 338.381862 105.721216 
L 341.2132 139.354744 
L 342.156979 133.398415 
L 343.100758 128.926471 
L 344.044537 113.612882 
L 344.988316 80.524255 
L 345.932095 74.492768 
L 346.875874 76.559633 
L 347.819654 86.311477 
L 348.763433 111.752704 
L 349.707212 113.086771 
L 350.650991 110.81322 
L 351.59477 91.628956 
L 352.538549 83.117231 
L 353.482328 96.420325 
L 354.426108 101.643856 
L 355.369887 109.723418 
L 356.313666 122.312504 
L 357.257445 118.084826 
L 358.201224 114.815421 
L 359.145003 101.41838 
L 360.088782 99.670939 
L 361.032561 106.69828 
L 361.976341 115.078477 
L 362.92012 126.822027 
L 363.863899 127.81788 
L 364.807678 128.475519 
L 365.751457 123.890837 
L 366.695236 106.454014 
L 367.639015 116.07433 
L 368.582795 108.44572 
L 369.526574 112.842505 
L 370.470353 121.993079 
L 371.414132 123.872047 
L 372.357911 121.823972 
L 373.30169 116.07433 
L 374.245469 107.919609 
L 375.189249 111.752704 
L 376.133028 110.268319 
L 377.076807 111.97818 
L 378.020586 111.95939 
L 378.964365 111.151434 
L 379.908144 99.558201 
L 380.851923 84.733144 
L 381.795703 78.739236 
L 382.739482 81.200684 
L 383.683261 104.969629 
L 384.62704 113.387406 
L 385.570819 111.658755 
L 386.514598 106.886176 
L 387.458377 97.002805 
L 388.402157 78.758025 
L 389.345936 52.339735 
L 390.289715 62.01642 
L 391.233494 70.208721 
L 392.177273 98.130185 
L 393.121052 109.854946 
L 394.064831 110.268319 
L 395.95239 95.311733 
L 396.896169 93.075762 
L 397.839948 106.998915 
L 398.783727 106.266117 
L 399.727506 133.492364 
L 400.671285 155.795714 
L 402.558844 116.844707 
L 403.502623 114.89058 
L 404.446402 115.191215 
L 405.390181 122.669508 
L 406.33396 121.35423 
L 407.277739 121.128754 
L 408.221518 126.502603 
L 409.165298 115.266374 
L 410.109077 112.241235 
L 411.052856 117.896929 
L 411.996635 120.452326 
L 412.940414 116.393755 
L 413.884193 116.976235 
L 414.827972 113.894727 
L 415.771752 112.466711 
L 416.715531 110.136791 
L 417.65931 112.429132 
L 418.603089 114.28931 
L 419.546868 126.878396 
L 420.490647 124.473317 
L 421.434426 121.692444 
L 422.378205 114.477207 
L 423.321985 111.639966 
L 424.265764 123.439885 
L 425.209543 121.823972 
L 426.153322 129.415003 
L 427.097101 128.757364 
L 428.04088 115.623378 
L 428.984659 105.740006 
L 429.928439 98.355662 
L 430.872218 100.272209 
L 431.815997 126.032861 
L 433.703555 138.340101 
L 434.647334 125.243694 
L 435.591113 115.379112 
L 436.534893 108.520879 
L 437.478672 108.295402 
L 438.422451 110.362267 
L 439.36623 121.993079 
L 440.310009 126.615341 
L 441.253788 133.248098 
L 442.197567 119.832266 
L 443.141347 109.554311 
L 444.085126 109.854946 
L 445.028905 105.871534 
L 445.972684 110.982327 
L 446.916463 118.780044 
L 447.860242 122.55677 
L 448.804021 133.548733 
L 449.747801 125.375222 
L 450.69158 114.683894 
L 451.635359 106.266117 
L 452.579138 105.401792 
L 453.522917 110.81322 
L 454.466696 115.210005 
L 455.410475 118.817623 
L 456.354254 129.189527 
L 457.298034 124.379369 
L 458.241813 112.391553 
L 459.185592 102.658498 
L 460.129371 107.393498 
L 461.07315 113.518934 
L 462.016929 118.686096 
L 462.960708 121.147544 
L 463.904488 120.809329 
L 464.848267 120.903278 
L 466.735825 103.240978 
L 467.679604 102.451812 
L 468.623383 109.347625 
L 469.567162 120.79054 
L 470.510942 124.849111 
L 471.454721 118.592147 
L 472.3985 122.049448 
L 473.342279 118.855203 
L 474.286058 115.172425 
L 475.229837 120.020163 
L 476.173616 123.796889 
L 477.117396 122.876194 
L 478.061175 126.014071 
L 479.004954 115.867644 
L 479.948733 124.398158 
L 480.892512 161.90236 
L 481.836291 164.739602 
L 482.78007 169.211546 
L 483.72385 154.555595 
L 484.667629 123.815678 
L 485.611408 116.731969 
L 486.555187 108.596037 
L 487.498966 121.9555 
L 488.442745 171.616625 
L 489.386524 182.608588 
L 490.330303 183.021961 
L 491.274083 163.480693 
L 492.217862 108.765144 
L 493.161641 115.848854 
L 494.10542 108.370561 
L 495.049199 122.124607 
L 495.992978 146.551191 
L 496.936757 148.768374 
L 497.880537 143.338156 
L 498.824316 124.097524 
L 499.768095 55.252135 
L 500.711874 47.285311 
L 501.655653 42.606681 
L 502.599432 63.312908 
L 503.543211 116.581651 
L 504.486991 129.828376 
L 505.43077 129.640479 
L 506.374549 114.552366 
L 507.318328 86.649691 
L 508.262107 78.870763 
L 509.205886 86.668481 
L 510.149665 104.856891 
L 511.093445 137.099982 
L 512.037224 129.734428 
L 512.981003 128.381571 
L 513.924782 114.082624 
L 514.868561 93.677031 
L 515.81234 93.7334 
L 516.756119 102.56455 
L 517.699898 120.527484 
L 518.643678 134.225161 
L 519.587457 131.293971 
L 520.531236 127.780301 
L 521.475015 110.963537 
L 522.418794 96.758539 
L 523.362573 97.660443 
L 524.306352 103.12824 
L 526.193911 139.091688 
L 527.13769 129.978693 
L 528.081469 125.50675 
L 529.025248 112.372763 
L 529.969027 89.05477 
L 531.856586 101.737804 
L 532.800365 116.412544 
L 533.744144 137.043613 
L 534.687923 134.507006 
L 536.575481 116.393755 
L 537.51926 96.814908 
L 538.46304 98.938142 
L 539.406819 102.263915 
L 540.350598 114.871791 
L 541.294377 141.271291 
L 542.238156 141.459188 
L 543.181935 131.068495 
L 544.125714 126.483813 
L 546.013273 115.548219 
L 546.957052 116.938655 
L 547.900831 119.118258 
L 548.84461 125.826174 
L 549.788389 127.141452 
L 551.675947 121.542127 
L 552.619727 120.17048 
L 553.563506 116.017961 
L 554.507285 120.508695 
L 555.451064 121.410599 
L 556.394843 119.62558 
L 557.338622 122.688297 
L 558.282401 120.452326 
L 559.226181 120.358377 
L 560.16996 120.527484 
L 561.113739 116.224648 
L 562.057518 117.652663 
L 563.001297 119.926215 
L 563.945076 118.103616 
L 564.888855 124.360579 
L 565.832635 119.888635 
L 566.776414 119.155838 
L 567.720193 118.855203 
L 568.663972 111.508438 
L 569.607751 110.080422 
L 570.55153 110.587743 
L 571.495309 109.084569 
L 572.439089 117.126552 
L 573.382868 123.383516 
L 574.326647 123.759309 
L 575.270426 131.256392 
L 576.214205 124.435738 
L 577.157984 131.33155 
L 578.101763 127.968198 
L 579.045542 112.053339 
L 579.989322 112.617029 
L 580.933101 116.957445 
L 581.87688 122.143397 
L 582.820659 130.711491 
L 583.764438 121.335441 
L 584.708217 119.663159 
L 585.651996 108.370561 
L 586.595776 104.838101 
L 587.539555 115.003318 
L 588.483334 110.81322 
L 589.427113 123.176829 
L 590.370892 125.055797 
L 591.314671 117.633874 
L 592.25845 111.809073 
L 593.20223 94.503777 
L 594.146009 95.631158 
L 595.089788 106.6607 
L 596.033567 102.357864 
L 596.977346 118.028457 
L 597.921125 131.237602 
L 598.864904 113.838358 
L 599.808684 114.740263 
L 601.696242 57.262631 
L 602.640021 50.87414 
L 603.5838 41.629617 
L 604.527579 61.884892 
L 605.471358 112.241235 
L 606.415138 123.214409 
L 607.358917 121.748813 
L 608.302696 80.580624 
L 609.246475 70.997887 
L 610.190254 80.430307 
L 611.134033 77.423958 
L 612.077812 107.374708 
L 613.021591 112.598239 
L 613.965371 131.181233 
L 614.90915 123.289567 
L 615.852929 75.244355 
L 616.796708 68.292173 
L 617.740487 88.603818 
L 618.684266 85.5411 
L 619.628045 115.773695 
L 620.571825 119.926215 
L 621.515604 135.596808 
L 622.459383 142.605358 
L 623.403162 84.150663 
L 624.346941 76.916637 
L 625.29072 83.887608 
L 626.234499 84.000346 
L 627.178279 119.287365 
L 628.122058 132.101927 
L 629.065837 132.458931 
L 630.009616 141.214922 
L 630.953395 101.3808 
L 631.897174 103.334927 
L 632.840953 85.108937 
L 633.784733 88.998401 
L 634.728512 132.120717 
L 635.672291 145.423811 
L 636.61607 153.183948 
L 637.559849 149.031429 
L 638.503628 114.946949 
L 639.447407 108.558458 
L 640.391187 103.954986 
L 641.334966 100.554054 
L 642.278745 125.356432 
L 643.222524 146.569981 
L 644.166303 149.181747 
L 645.110082 142.905993 
L 646.053861 120.565064 
L 646.99764 109.873736 
L 647.94142 108.239033 
L 648.885199 109.930105 
L 646.388903 129.941114 
L 647.332682 141.684664 
L 648.276461 144.202481 
L 649.22024 136.930875 
L 650.164019 122.312504 
L 651.107799 112.880084 
L 652.051578 109.535521 
L 652.995357 112.992823 
L 653.939136 126.164388 
L 654.882915 131.632185 
L 655.826694 130.467225 
L 656.770473 128.41915 
L 657.714253 121.297861 
L 658.658032 112.955243 
L 659.601811 116.431334 
L 660.54559 116.600441 
L 661.489369 120.903278 
L 662.433148 124.247841 
L 663.376927 123.082881 
L 664.320707 122.481611 
L 665.264486 122.218555 
L 666.208265 118.648516 
L 667.152044 120.001373 
L 669.039602 119.644369 
L 669.983381 120.489905 
L 670.927161 120.978437 
L 671.87094 121.636075 
L 672.814719 121.35423 
L 673.758498 121.260282 
L 674.702277 120.433536 
L 675.646056 120.414746 
L 676.589835 119.775897 
L 677.533615 119.531631 
L 678.477394 120.959647 
L 676.908361 121.429389 
L 674.419143 121.35423 
L 675.362922 121.410599 
L 676.306702 120.452326 
L 677.250481 119.963794 
L 678.19426 120.17048 
L 679.138039 119.061889 
L 680.081818 121.241492 
L 680.081818 121.241492 
" clip-path="url(#p5df8ea9d5d)" style="fill: none; stroke: #1f77b4; stroke-width: 1.5; stroke-linecap: square"/>
   </g>
   <g id="patch_3">
    <path d="M 68.6 190.091578 
L 68.6 34.56 
" style="fill: none; stroke: #000000; stroke-width: 0.8; stroke-linejoin: miter; stroke-linecap: square"/>
   </g>
   <g id="patch_4">
    <path d="M 709.2 190.091578 
L 709.2 34.56 
" style="fill: none; stroke: #000000; stroke-width: 0.8; stroke-linejoin: miter; stroke-linecap: square"/>
   </g>
   <g id="patch_5">
    <path d="M 68.6 190.091578 
L 709.2 190.091578 
" style="fill: none; stroke: #000000; stroke-width: 0.8; stroke-linejoin: miter; stroke-linecap: square"/>
   </g>
   <g id="patch_6">
    <path d="M 68.6 34.56 
L 709.2 34.56 
" style="fill: none; stroke: #000000; stroke-width: 0.8; stroke-linejoin: miter; stroke-linecap: square"/>
   </g>
  </g>
  <g id="axes_2">
   <g id="patch_7">
    <path d="M 68.6 362.065789 
L 709.2 362.065789 
L 709.2 206.534211 
L 68.6 206.534211 
z
" style="fill: #ffffff"/>
   </g>
   <g id="matplotlib.axis_3">
    <g id="xtick_8">
     <g id="line2d_24">
      <path d="M 97.718182 362.065789 
L 97.718182 206.534211 
" clip-path="url(#p6a142e464d)" style="fill: none; stroke: #b0b0b0; stroke-width: 0.8; stroke-linecap: square"/>
     </g>
     <g id="line2d_25">
      <g>
       <use xlink:href="#m38579f756b" x="97.718182" y="362.065789" style="stroke: #000000; stroke-width: 0.8"/>
      </g>
     </g>
    </g>
    <g id="xtick_9">
     <g id="line2d_26">
      <path d="M 192.096096 362.065789 
L 192.096096 206.534211 
" clip-path="url(#p6a142e464d)" style="fill: none; stroke: #b0b0b0; stroke-width: 0.8; stroke-linecap: square"/>
     </g>
     <g id="line2d_27">
      <g>
       <use xlink:href="#m38579f756b" x="192.096096" y="362.065789" style="stroke: #000000; stroke-width: 0.8"/>
      </g>
     </g>
    </g>
    <g id="xtick_10">
     <g id="line2d_28">
      <path d="M 286.47401 362.065789 
L 286.47401 206.534211 
" clip-path="url(#p6a142e464d)" style="fill: none; stroke: #b0b0b0; stroke-width: 0.8; stroke-linecap: square"/>
     </g>
     <g id="line2d_29">
      <g>
       <use xlink:href="#m38579f756b" x="286.47401" y="362.065789" style="stroke: #000000; stroke-width: 0.8"/>
      </g>
     </g>
    </g>
    <g id="xtick_11">
     <g id="line2d_30">
      <path d="M 380.851923 362.065789 
L 380.851923 206.534211 
" clip-path="url(#p6a142e464d)" style="fill: none; stroke: #b0b0b0; stroke-width: 0.8; stroke-linecap: square"/>
     </g>
     <g id="line2d_31">
      <g>
       <use xlink:href="#m38579f756b" x="380.851923" y="362.065789" style="stroke: #000000; stroke-width: 0.8"/>
      </g>
     </g>
    </g>
    <g id="xtick_12">
     <g id="line2d_32">
      <path d="M 475.229837 362.065789 
L 475.229837 206.534211 
" clip-path="url(#p6a142e464d)" style="fill: none; stroke: #b0b0b0; stroke-width: 0.8; stroke-linecap: square"/>
     </g>
     <g id="line2d_33">
      <g>
       <use xlink:href="#m38579f756b" x="475.229837" y="362.065789" style="stroke: #000000; stroke-width: 0.8"/>
      </g>
     </g>
    </g>
    <g id="xtick_13">
     <g id="line2d_34">
      <path d="M 569.607751 362.065789 
L 569.607751 206.534211 
" clip-path="url(#p6a142e464d)" style="fill: none; stroke: #b0b0b0; stroke-width: 0.8; stroke-linecap: square"/>
     </g>
     <g id="line2d_35">
      <g>
       <use xlink:href="#m38579f756b" x="569.607751" y="362.065789" style="stroke: #000000; stroke-width: 0.8"/>
      </g>
     </g>
    </g>
    <g id="xtick_14">
     <g id="line2d_36">
      <path d="M 663.985665 362.065789 
L 663.985665 206.534211 
" clip-path="url(#p6a142e464d)" style="fill: none; stroke: #b0b0b0; stroke-width: 0.8; stroke-linecap: square"/>
     </g>
     <g id="line2d_37">
      <g>
       <use xlink:href="#m38579f756b" x="663.985665" y="362.065789" style="stroke: #000000; stroke-width: 0.8"/>
      </g>
     </g>
    </g>
   </g>
   <g id="matplotlib.axis_4">
    <g id="ytick_5">
     <g id="line2d_38">
      <path d="M 68.6 343.749061 
L 709.2 343.749061 
" clip-path="url(#p6a142e464d)" style="fill: none; stroke: #b0b0b0; stroke-width: 0.8; stroke-linecap: square"/>
     </g>
     <g id="line2d_39">
      <g>
       <use xlink:href="#m660ca692eb" x="68.6" y="343.749061" style="stroke: #000000; stroke-width: 0.8"/>
      </g>
     </g>
     <g id="text_6">
      <!-- −0.4 -->
      <g transform="translate(37.317188 347.54828) scale(0.1 -0.1)">
       <use xlink:href="#DejaVuSans-2212"/>
       <use xlink:href="#DejaVuSans-30" x="83.789062"/>
       <use xlink:href="#DejaVuSans-2e" x="147.412109"/>
       <use xlink:href="#DejaVuSans-34" x="179.199219"/>
      </g>
     </g>
    </g>
    <g id="ytick_6">
     <g id="line2d_40">
      <path d="M 68.6 310.40354 
L 709.2 310.40354 
" clip-path="url(#p6a142e464d)" style="fill: none; stroke: #b0b0b0; stroke-width: 0.8; stroke-linecap: square"/>
     </g>
     <g id="line2d_41">
      <g>
       <use xlink:href="#m660ca692eb" x="68.6" y="310.40354" style="stroke: #000000; stroke-width: 0.8"/>
      </g>
     </g>
     <g id="text_7">
      <!-- −0.3 -->
      <g transform="translate(37.317188 314.202759) scale(0.1 -0.1)">
       <defs>
        <path id="DejaVuSans-33" d="M 2597 2516 
Q 3050 2419 3304 2112 
Q 3559 1806 3559 1356 
Q 3559 666 3084 287 
Q 2609 -91 1734 -91 
Q 1441 -91 1130 -33 
Q 819 25 488 141 
L 488 750 
Q 750 597 1062 519 
Q 1375 441 1716 441 
Q 2309 441 2620 675 
Q 2931 909 2931 1356 
Q 2931 1769 2642 2001 
Q 2353 2234 1838 2234 
L 1294 2234 
L 1294 2753 
L 1863 2753 
Q 2328 2753 2575 2939 
Q 2822 3125 2822 3475 
Q 2822 3834 2567 4026 
Q 2313 4219 1838 4219 
Q 1578 4219 1281 4162 
Q 984 4106 628 3988 
L 628 4550 
Q 988 4650 1302 4700 
Q 1616 4750 1894 4750 
Q 2613 4750 3031 4423 
Q 3450 4097 3450 3541 
Q 3450 3153 3228 2886 
Q 3006 2619 2597 2516 
z
" transform="scale(0.015625)"/>
       </defs>
       <use xlink:href="#DejaVuSans-2212"/>
       <use xlink:href="#DejaVuSans-30" x="83.789062"/>
       <use xlink:href="#DejaVuSans-2e" x="147.412109"/>
       <use xlink:href="#DejaVuSans-33" x="179.199219"/>
      </g>
     </g>
    </g>
    <g id="ytick_7">
     <g id="line2d_42">
      <path d="M 68.6 277.05802 
L 709.2 277.05802 
" clip-path="url(#p6a142e464d)" style="fill: none; stroke: #b0b0b0; stroke-width: 0.8; stroke-linecap: square"/>
     </g>
     <g id="line2d_43">
      <g>
       <use xlink:href="#m660ca692eb" x="68.6" y="277.05802" style="stroke: #000000; stroke-width: 0.8"/>
      </g>
     </g>
     <g id="text_8">
      <!-- −0.2 -->
      <g transform="translate(37.317188 280.857239) scale(0.1 -0.1)">
       <use xlink:href="#DejaVuSans-2212"/>
       <use xlink:href="#DejaVuSans-30" x="83.789062"/>
       <use xlink:href="#DejaVuSans-2e" x="147.412109"/>
       <use xlink:href="#DejaVuSans-32" x="179.199219"/>
      </g>
     </g>
    </g>
    <g id="ytick_8">
     <g id="line2d_44">
      <path d="M 68.6 243.712499 
L 709.2 243.712499 
" clip-path="url(#p6a142e464d)" style="fill: none; stroke: #b0b0b0; stroke-width: 0.8; stroke-linecap: square"/>
     </g>
     <g id="line2d_45">
      <g>
       <use xlink:href="#m660ca692eb" x="68.6" y="243.712499" style="stroke: #000000; stroke-width: 0.8"/>
      </g>
     </g>
     <g id="text_9">
      <!-- −0.1 -->
      <g transform="translate(37.317188 247.511718) scale(0.1 -0.1)">
       <defs>
        <path id="DejaVuSans-31" d="M 794 531 
L 1825 531 
L 1825 4091 
L 703 3866 
L 703 4441 
L 1819 4666 
L 2450 4666 
L 2450 531 
L 3481 531 
L 3481 0 
L 794 0 
L 794 531 
z
" transform="scale(0.015625)"/>
       </defs>
       <use xlink:href="#DejaVuSans-2212"/>
       <use xlink:href="#DejaVuSans-30" x="83.789062"/>
       <use xlink:href="#DejaVuSans-2e" x="147.412109"/>
       <use xlink:href="#DejaVuSans-31" x="179.199219"/>
      </g>
     </g>
    </g>
    <g id="ytick_9">
     <g id="line2d_46">
      <path d="M 68.6 210.366979 
L 709.2 210.366979 
" clip-path="url(#p6a142e464d)" style="fill: none; stroke: #b0b0b0; stroke-width: 0.8; stroke-linecap: square"/>
     </g>
     <g id="line2d_47">
      <g>
       <use xlink:href="#m660ca692eb" x="68.6" y="210.366979" style="stroke: #000000; stroke-width: 0.8"/>
      </g>
     </g>
     <g id="text_10">
      <!-- 0.0 -->
      <g transform="translate(45.696875 214.166197) scale(0.1 -0.1)">
       <use xlink:href="#DejaVuSans-30"/>
       <use xlink:href="#DejaVuSans-2e" x="63.623047"/>
       <use xlink:href="#DejaVuSans-30" x="95.410156"/>
      </g>
     </g>
    </g>
    <g id="text_11">
     <!-- Error Y (m) -->
     <g transform="translate(31.2375 311.489062) rotate(-90) scale(0.1 -0.1)">
      <defs>
       <path id="DejaVuSans-59" d="M -13 4666 
L 666 4666 
L 1959 2747 
L 3244 4666 
L 3922 4666 
L 2272 2222 
L 2272 0 
L 1638 0 
L 1638 2222 
L -13 4666 
z
" transform="scale(0.015625)"/>
      </defs>
      <use xlink:href="#DejaVuSans-45"/>
      <use xlink:href="#DejaVuSans-72" x="63.183594"/>
      <use xlink:href="#DejaVuSans-72" x="102.546875"/>
      <use xlink:href="#DejaVuSans-6f" x="141.410156"/>
      <use xlink:href="#DejaVuSans-72" x="202.591797"/>
      <use xlink:href="#DejaVuSans-20" x="243.705078"/>
      <use xlink:href="#DejaVuSans-59" x="275.492188"/>
      <use xlink:href="#DejaVuSans-20" x="336.576172"/>
      <use xlink:href="#DejaVuSans-28" x="368.363281"/>
      <use xlink:href="#DejaVuSans-6d" x="407.376953"/>
      <use xlink:href="#DejaVuSans-29" x="504.789062"/>
     </g>
    </g>
   </g>
   <g id="line2d_48">
    <path d="M 97.718182 213.678522 
L 100.549519 213.603828 
L 103.380857 213.857254 
L 109.987311 214.039988 
L 118.481323 214.719236 
L 119.425102 214.530834 
L 126.975335 214.009977 
L 128.862893 214.141692 
L 129.806673 214.290079 
L 132.63801 214.42146 
L 133.581789 214.690225 
L 135.469347 215.848315 
L 136.413127 216.270136 
L 137.356906 216.185772 
L 139.244464 216.629601 
L 140.188243 216.272137 
L 141.132022 216.122415 
L 142.075801 216.541569 
L 143.96336 217.840377 
L 144.907139 218.027112 
L 146.794697 219.627697 
L 148.682255 220.338957 
L 149.626034 221.063555 
L 150.569814 222.053583 
L 151.513593 222.796855 
L 152.457372 221.396676 
L 153.401151 220.898161 
L 154.34493 220.199239 
L 155.288709 219.798426 
L 157.176268 219.363934 
L 158.120047 219.530661 
L 159.063826 219.132182 
L 160.007605 218.324887 
L 160.951384 218.473275 
L 161.895163 219.028144 
L 162.838942 219.357931 
L 163.782722 219.529661 
L 164.726501 220.089866 
L 165.67028 220.835805 
L 166.614059 221.208608 
L 167.557838 221.313646 
L 168.501617 222.113939 
L 169.445396 223.075623 
L 170.389175 223.688514 
L 171.332955 222.644799 
L 172.276734 221.025541 
L 173.220513 220.773782 
L 174.164292 219.685051 
L 175.108071 219.358598 
L 176.05185 219.397613 
L 176.995629 219.551335 
L 177.939409 219.09917 
L 178.883188 218.845411 
L 179.826967 218.232853 
L 181.714525 217.42956 
L 182.658304 217.4489 
L 183.602083 217.997434 
L 184.545863 218.839408 
L 186.433421 219.343259 
L 189.264758 221.136581 
L 190.208537 221.266295 
L 191.152317 220.054186 
L 192.096096 219.864116 
L 193.039875 218.838742 
L 193.983654 218.626998 
L 194.927433 219.307913 
L 195.871212 219.503651 
L 196.814991 220.034178 
L 197.758771 220.208242 
L 198.70255 218.946448 
L 199.646329 218.731369 
L 200.590108 217.618629 
L 201.533887 217.106775 
L 202.477666 217.400216 
L 203.421445 217.154459 
L 204.365224 217.138787 
L 206.252783 216.565577 
L 207.196562 216.772987 
L 208.140341 216.45487 
L 209.08412 215.911338 
L 210.027899 216.14509 
L 210.971678 216.157428 
L 211.915458 216.308483 
L 212.859237 215.832309 
L 214.746795 216.289477 
L 215.690574 216.208447 
L 216.634353 215.664248 
L 218.521912 215.729272 
L 219.465691 215.508191 
L 220.40947 214.863956 
L 222.297028 215.255432 
L 223.240807 215.188741 
L 224.184586 214.775256 
L 225.128366 214.864622 
L 226.072145 215.149393 
L 227.959703 214.314755 
L 228.903482 214.464476 
L 229.847261 214.942317 
L 230.79104 214.955656 
L 231.734819 214.557844 
L 234.566157 214.882962 
L 235.509936 214.55751 
L 237.397494 215.044355 
L 238.341273 215.156729 
L 239.285053 214.753915 
L 240.228832 215.078701 
L 242.11639 215.229422 
L 243.060169 214.716568 
L 244.003948 214.960991 
L 244.947727 215.324124 
L 246.835286 214.746913 
L 247.779065 214.919643 
L 248.722844 215.26777 
L 249.666623 215.158063 
L 250.610402 214.761251 
L 251.554181 215.044355 
L 253.44174 214.975663 
L 254.385519 214.547507 
L 255.329298 214.879628 
L 256.273077 215.335795 
L 258.160635 214.651878 
L 259.104415 214.633538 
L 260.048194 214.948653 
L 261.935752 214.419126 
L 263.82331 214.88563 
L 264.767089 214.917642 
L 265.710868 214.617199 
L 267.598427 214.772589 
L 269.485985 214.495821 
L 270.429764 214.58552 
L 271.373543 214.882296 
L 272.317322 214.669218 
L 274.204881 214.55651 
L 275.14866 214.797264 
L 276.092439 214.540504 
L 277.036218 214.459808 
L 277.979997 214.52183 
L 278.923776 214.971662 
L 279.867556 214.878294 
L 280.811335 214.473813 
L 281.755114 214.697895 
L 285.53023 214.5295 
L 286.47401 214.947653 
L 287.417789 214.651878 
L 288.361568 214.476481 
L 289.305347 214.437466 
L 290.249126 214.670218 
L 292.136684 214.18204 
L 294.024243 214.649544 
L 294.968022 214.524832 
L 295.911801 214.026983 
L 296.85558 214.194044 
L 297.799359 214.644209 
L 298.743138 214.379112 
L 299.686917 214.233058 
L 300.630697 214.302417 
L 301.574476 214.724238 
L 303.462034 214.1637 
L 304.405813 214.18204 
L 305.349592 214.68489 
L 307.237151 214.279075 
L 308.18093 214.640541 
L 310.068488 214.557844 
L 311.012267 214.244729 
L 311.956046 214.476481 
L 312.899825 214.988668 
L 313.843605 215.038019 
L 314.787384 214.893966 
L 315.731163 215.316121 
L 316.674942 215.178404 
L 317.618721 215.263101 
L 318.5625 215.10471 
L 319.506279 215.281441 
L 320.450059 215.300115 
L 321.393838 214.833611 
L 322.337617 214.597191 
L 323.281396 214.543839 
L 324.225175 214.910639 
L 326.112733 214.468478 
L 327.056512 214.446136 
L 328.000292 214.934981 
L 328.944071 214.537836 
L 329.88785 214.550508 
L 330.831629 215.209749 
L 331.775408 214.854619 
L 332.719187 214.697895 
L 333.662966 214.351435 
L 335.550525 214.639874 
L 337.438083 214.096008 
L 339.325641 215.130386 
L 340.26942 215.027682 
L 341.2132 214.705564 
L 342.156979 214.647543 
L 343.100758 215.030683 
L 344.044537 215.287444 
L 344.988316 215.40582 
L 345.932095 216.162097 
L 346.875874 217.151125 
L 347.819654 217.764682 
L 348.763433 217.989098 
L 349.707212 218.636334 
L 350.650991 219.432625 
L 351.59477 219.948481 
L 353.482328 216.745977 
L 354.426108 216.547571 
L 355.369887 216.021712 
L 356.313666 215.936681 
L 357.257445 215.993702 
L 358.201224 216.592921 
L 359.145003 216.58125 
L 361.032561 215.335795 
L 362.92012 215.712266 
L 363.863899 215.543204 
L 364.807678 214.582853 
L 365.751457 214.913307 
L 366.695236 215.023014 
L 367.639015 214.453472 
L 368.582795 214.143692 
L 370.470353 214.794597 
L 371.414132 215.152394 
L 372.357911 214.799599 
L 373.30169 215.032017 
L 374.245469 214.995003 
L 375.189249 214.555509 
L 376.133028 214.724905 
L 377.076807 214.694894 
L 378.020586 215.076033 
L 379.908144 216.222452 
L 380.851923 217.036083 
L 381.795703 217.45657 
L 382.739482 217.547603 
L 383.683261 216.830341 
L 384.62704 216.6276 
L 385.570819 216.162764 
L 386.514598 215.988033 
L 387.458377 216.514892 
L 388.402157 217.381876 
L 389.345936 218.061791 
L 390.289715 218.545968 
L 391.233494 219.2719 
L 392.177273 219.432959 
L 393.121052 218.411919 
L 394.064831 217.700326 
L 395.00861 217.831373 
L 395.95239 217.838376 
L 396.896169 217.707328 
L 397.839948 217.775019 
L 398.783727 218.014774 
L 399.727506 217.670981 
L 400.671285 216.370506 
L 401.615064 215.744277 
L 404.446402 216.167765 
L 405.390181 215.969026 
L 406.33396 216.27047 
L 407.277739 216.369839 
L 410.109077 215.9897 
L 411.052856 216.39118 
L 411.996635 216.501221 
L 412.940414 216.37284 
L 413.884193 216.794328 
L 415.771752 216.884694 
L 416.715531 216.586585 
L 417.65931 216.904368 
L 418.603089 216.867354 
L 420.490647 217.396214 
L 422.378205 219.286572 
L 423.321985 220.037513 
L 425.209543 222.223645 
L 426.153322 223.025605 
L 427.097101 223.453095 
L 428.04088 224.216374 
L 429.928439 226.269457 
L 430.872218 227.08042 
L 431.815997 226.142411 
L 432.759776 224.437454 
L 433.703555 223.323714 
L 434.647334 221.987226 
L 435.591113 221.227948 
L 436.534893 221.522389 
L 437.478672 221.265295 
L 438.422451 221.461033 
L 439.36623 220.734768 
L 440.310009 220.31995 
L 441.253788 220.121544 
L 442.197567 219.30758 
L 443.141347 218.680684 
L 444.085126 218.439262 
L 445.972684 218.449599 
L 446.916463 217.848046 
L 447.860242 218.107141 
L 449.747801 218.246192 
L 450.69158 217.966423 
L 451.635359 218.119479 
L 452.579138 218.643003 
L 453.522917 218.527961 
L 454.466696 218.589317 
L 455.410475 219.076162 
L 457.298034 219.157191 
L 458.241813 218.939779 
L 459.185592 219.331588 
L 460.129371 219.000467 
L 462.960708 218.747708 
L 464.848267 219.639034 
L 465.792046 219.868785 
L 468.623383 222.215642 
L 470.510942 223.24802 
L 471.454721 224.06832 
L 473.342279 225.089026 
L 474.286058 225.898655 
L 475.229837 224.765574 
L 476.173616 224.004296 
L 477.117396 223.448426 
L 478.061175 222.447727 
L 479.004954 222.49241 
L 479.948733 221.869182 
L 480.892512 221.898193 
L 481.836291 222.71916 
L 482.78007 223.261358 
L 483.72385 223.236682 
L 484.667629 223.457096 
L 485.611408 223.822563 
L 486.555187 224.539825 
L 488.442745 225.195065 
L 490.330303 227.077419 
L 491.274083 227.613615 
L 492.217862 226.697947 
L 493.161641 224.855607 
L 494.10542 224.491141 
L 495.049199 223.189999 
L 495.992978 222.638464 
L 496.936757 223.312043 
L 497.880537 222.992593 
L 498.824316 223.221677 
L 500.711874 223.105968 
L 501.655653 223.717858 
L 502.599432 223.865245 
L 503.543211 221.918867 
L 504.486991 221.565738 
L 507.318328 219.736736 
L 509.205886 220.281269 
L 510.149665 220.159558 
L 512.037224 219.26323 
L 512.981003 219.227217 
L 514.868561 218.144154 
L 515.81234 218.243857 
L 516.756119 218.512956 
L 517.699898 218.475609 
L 518.643678 218.059457 
L 519.587457 218.218181 
L 520.531236 217.94108 
L 521.475015 217.883726 
L 522.418794 217.362202 
L 523.362573 217.520927 
L 524.306352 217.917071 
L 525.250132 217.557273 
L 528.081469 217.617295 
L 529.969027 216.957387 
L 530.912806 217.159461 
L 531.856586 217.543602 
L 532.800365 217.113111 
L 533.744144 217.169465 
L 534.687923 217.433561 
L 536.575481 217.219483 
L 537.51926 216.801997 
L 539.406819 217.283507 
L 541.294377 217.345196 
L 542.238156 218.227852 
L 543.181935 218.759379 
L 544.125714 218.788723 
L 545.069494 217.828039 
L 546.013273 217.936078 
L 546.957052 218.248526 
L 547.900831 218.324887 
L 548.84461 218.150823 
L 549.788389 218.262531 
L 550.732168 218.829071 
L 552.619727 218.043784 
L 553.563506 218.121813 
L 554.507285 218.022443 
L 555.451064 218.219515 
L 556.394843 217.781689 
L 557.338622 218.120813 
L 559.226181 218.410919 
L 560.16996 217.862718 
L 561.113739 218.169497 
L 563.001297 218.262198 
L 563.945076 218.066126 
L 564.888855 218.075129 
L 565.832635 218.393579 
L 568.663972 218.484612 
L 569.607751 219.014472 
L 570.55153 219.282237 
L 571.495309 218.896763 
L 572.439089 219.555337 
L 573.382868 220.372636 
L 574.326647 220.749773 
L 575.270426 221.530392 
L 576.214205 222.588112 
L 577.157984 223.379401 
L 578.101763 223.685513 
L 579.045542 223.815894 
L 579.989322 224.731562 
L 580.933101 224.111002 
L 582.820659 223.728529 
L 583.764438 223.409412 
L 584.708217 223.55013 
L 585.651996 222.894557 
L 586.595776 222.494078 
L 587.539555 222.382037 
L 590.370892 222.526089 
L 592.25845 222.984257 
L 593.20223 222.968918 
L 594.146009 221.903528 
L 595.089788 221.862513 
L 596.033567 222.206973 
L 596.977346 222.296339 
L 597.921125 222.640131 
L 598.864904 224.187697 
L 599.808684 225.252086 
L 600.752463 225.622221 
L 601.696242 225.571869 
L 604.527579 228.962108 
L 606.415138 231.331641 
L 607.358917 231.922524 
L 608.302696 232.68847 
L 610.190254 231.974543 
L 611.134033 231.244276 
L 614.90915 232.969906 
L 615.852929 233.639484 
L 616.796708 233.530111 
L 617.740487 232.70581 
L 618.684266 232.665795 
L 619.628045 233.028261 
L 620.571825 233.889242 
L 621.515604 233.923255 
L 623.403162 235.700904 
L 624.346941 235.81628 
L 625.29072 235.44181 
L 627.178279 236.881336 
L 628.122058 239.051129 
L 629.065837 239.752385 
L 630.009616 240.930816 
L 630.953395 243.156629 
L 631.897174 247.978392 
L 632.840953 248.808028 
L 633.784733 250.83677 
L 634.728512 253.237981 
L 635.672291 256.89365 
L 637.559849 261.747758 
L 638.503628 265.002947 
L 639.447407 268.864359 
L 641.334966 273.373006 
L 643.222524 279.677977 
L 646.053861 287.532181 
L 646.99764 290.146804 
L 647.94142 292.146868 
L 648.885199 294.435371 
L 646.388903 290.412901 
L 648.276461 295.837217 
L 649.22024 298.045024 
L 652.051578 303.576379 
L 653.939136 307.623524 
L 654.882915 310.026736 
L 655.826694 312.1175 
L 656.770473 313.883146 
L 658.658032 316.689838 
L 662.433148 324.172239 
L 663.376927 326.309687 
L 664.320707 328.024647 
L 665.264486 329.392147 
L 667.152044 332.90143 
L 668.095823 334.754774 
L 669.039602 336.130943 
L 675.646056 347.789871 
L 677.533615 350.534874 
L 678.477394 352.360542 
L 676.908361 349.894974 
L 674.419143 345.536048 
L 675.362922 346.941895 
L 677.250481 350.45918 
L 679.138039 353.03879 
L 680.081818 354.996172 
L 680.081818 354.996172 
" clip-path="url(#p6a142e464d)" style="fill: none; stroke: #1f77b4; stroke-width: 1.5; stroke-linecap: square"/>
   </g>
   <g id="patch_8">
    <path d="M 68.6 362.065789 
L 68.6 206.534211 
" style="fill: none; stroke: #000000; stroke-width: 0.8; stroke-linejoin: miter; stroke-linecap: square"/>
   </g>
   <g id="patch_9">
    <path d="M 709.2 362.065789 
L 709.2 206.534211 
" style="fill: none; stroke: #000000; stroke-width: 0.8; stroke-linejoin: miter; stroke-linecap: square"/>
   </g>
   <g id="patch_10">
    <path d="M 68.6 362.065789 
L 709.2 362.065789 
" style="fill: none; stroke: #000000; stroke-width: 0.8; stroke-linejoin: miter; stroke-linecap: square"/>
   </g>
   <g id="patch_11">
    <path d="M 68.6 206.534211 
L 709.2 206.534211 
" style="fill: none; stroke: #000000; stroke-width: 0.8; stroke-linejoin: miter; stroke-linecap: square"/>
   </g>
  </g>
  <g id="axes_3">
   <g id="patch_12">
    <path d="M 68.6 534.04 
L 709.2 534.04 
L 709.2 378.508422 
L 68.6 378.508422 
z
" style="fill: #ffffff"/>
   </g>
   <g id="matplotlib.axis_5">
    <g id="xtick_15">
     <g id="line2d_49">
      <path d="M 97.718182 534.04 
L 97.718182 378.508422 
" clip-path="url(#p878639d434)" style="fill: none; stroke: #b0b0b0; stroke-width: 0.8; stroke-linecap: square"/>
     </g>
     <g id="line2d_50">
      <g>
       <use xlink:href="#m38579f756b" x="97.718182" y="534.04" style="stroke: #000000; stroke-width: 0.8"/>
      </g>
     </g>
     <g id="text_12">
      <!-- 0 -->
      <g transform="translate(94.536932 548.638438) scale(0.1 -0.1)">
       <use xlink:href="#DejaVuSans-30"/>
      </g>
     </g>
    </g>
    <g id="xtick_16">
     <g id="line2d_51">
      <path d="M 192.096096 534.04 
L 192.096096 378.508422 
" clip-path="url(#p878639d434)" style="fill: none; stroke: #b0b0b0; stroke-width: 0.8; stroke-linecap: square"/>
     </g>
     <g id="line2d_52">
      <g>
       <use xlink:href="#m38579f756b" x="192.096096" y="534.04" style="stroke: #000000; stroke-width: 0.8"/>
      </g>
     </g>
     <g id="text_13">
      <!-- 10 -->
      <g transform="translate(185.733596 548.638438) scale(0.1 -0.1)">
       <use xlink:href="#DejaVuSans-31"/>
       <use xlink:href="#DejaVuSans-30" x="63.623047"/>
      </g>
     </g>
    </g>
    <g id="xtick_17">
     <g id="line2d_53">
      <path d="M 286.47401 534.04 
L 286.47401 378.508422 
" clip-path="url(#p878639d434)" style="fill: none; stroke: #b0b0b0; stroke-width: 0.8; stroke-linecap: square"/>
     </g>
     <g id="line2d_54">
      <g>
       <use xlink:href="#m38579f756b" x="286.47401" y="534.04" style="stroke: #000000; stroke-width: 0.8"/>
      </g>
     </g>
     <g id="text_14">
      <!-- 20 -->
      <g transform="translate(280.11151 548.638438) scale(0.1 -0.1)">
       <use xlink:href="#DejaVuSans-32"/>
       <use xlink:href="#DejaVuSans-30" x="63.623047"/>
      </g>
     </g>
    </g>
    <g id="xtick_18">
     <g id="line2d_55">
      <path d="M 380.851923 534.04 
L 380.851923 378.508422 
" clip-path="url(#p878639d434)" style="fill: none; stroke: #b0b0b0; stroke-width: 0.8; stroke-linecap: square"/>
     </g>
     <g id="line2d_56">
      <g>
       <use xlink:href="#m38579f756b" x="380.851923" y="534.04" style="stroke: #000000; stroke-width: 0.8"/>
      </g>
     </g>
     <g id="text_15">
      <!-- 30 -->
      <g transform="translate(374.489423 548.638438) scale(0.1 -0.1)">
       <use xlink:href="#DejaVuSans-33"/>
       <use xlink:href="#DejaVuSans-30" x="63.623047"/>
      </g>
     </g>
    </g>
    <g id="xtick_19">
     <g id="line2d_57">
      <path d="M 475.229837 534.04 
L 475.229837 378.508422 
" clip-path="url(#p878639d434)" style="fill: none; stroke: #b0b0b0; stroke-width: 0.8; stroke-linecap: square"/>
     </g>
     <g id="line2d_58">
      <g>
       <use xlink:href="#m38579f756b" x="475.229837" y="534.04" style="stroke: #000000; stroke-width: 0.8"/>
      </g>
     </g>
     <g id="text_16">
      <!-- 40 -->
      <g transform="translate(468.867337 548.638438) scale(0.1 -0.1)">
       <use xlink:href="#DejaVuSans-34"/>
       <use xlink:href="#DejaVuSans-30" x="63.623047"/>
      </g>
     </g>
    </g>
    <g id="xtick_20">
     <g id="line2d_59">
      <path d="M 569.607751 534.04 
L 569.607751 378.508422 
" clip-path="url(#p878639d434)" style="fill: none; stroke: #b0b0b0; stroke-width: 0.8; stroke-linecap: square"/>
     </g>
     <g id="line2d_60">
      <g>
       <use xlink:href="#m38579f756b" x="569.607751" y="534.04" style="stroke: #000000; stroke-width: 0.8"/>
      </g>
     </g>
     <g id="text_17">
      <!-- 50 -->
      <g transform="translate(563.245251 548.638438) scale(0.1 -0.1)">
       <defs>
        <path id="DejaVuSans-35" d="M 691 4666 
L 3169 4666 
L 3169 4134 
L 1269 4134 
L 1269 2991 
Q 1406 3038 1543 3061 
Q 1681 3084 1819 3084 
Q 2600 3084 3056 2656 
Q 3513 2228 3513 1497 
Q 3513 744 3044 326 
Q 2575 -91 1722 -91 
Q 1428 -91 1123 -41 
Q 819 9 494 109 
L 494 744 
Q 775 591 1075 516 
Q 1375 441 1709 441 
Q 2250 441 2565 725 
Q 2881 1009 2881 1497 
Q 2881 1984 2565 2268 
Q 2250 2553 1709 2553 
Q 1456 2553 1204 2497 
Q 953 2441 691 2322 
L 691 4666 
z
" transform="scale(0.015625)"/>
       </defs>
       <use xlink:href="#DejaVuSans-35"/>
       <use xlink:href="#DejaVuSans-30" x="63.623047"/>
      </g>
     </g>
    </g>
    <g id="xtick_21">
     <g id="line2d_61">
      <path d="M 663.985665 534.04 
L 663.985665 378.508422 
" clip-path="url(#p878639d434)" style="fill: none; stroke: #b0b0b0; stroke-width: 0.8; stroke-linecap: square"/>
     </g>
     <g id="line2d_62">
      <g>
       <use xlink:href="#m38579f756b" x="663.985665" y="534.04" style="stroke: #000000; stroke-width: 0.8"/>
      </g>
     </g>
     <g id="text_18">
      <!-- 60 -->
      <g transform="translate(657.623165 548.638438) scale(0.1 -0.1)">
       <defs>
        <path id="DejaVuSans-36" d="M 2113 2584 
Q 1688 2584 1439 2293 
Q 1191 2003 1191 1497 
Q 1191 994 1439 701 
Q 1688 409 2113 409 
Q 2538 409 2786 701 
Q 3034 994 3034 1497 
Q 3034 2003 2786 2293 
Q 2538 2584 2113 2584 
z
M 3366 4563 
L 3366 3988 
Q 3128 4100 2886 4159 
Q 2644 4219 2406 4219 
Q 1781 4219 1451 3797 
Q 1122 3375 1075 2522 
Q 1259 2794 1537 2939 
Q 1816 3084 2150 3084 
Q 2853 3084 3261 2657 
Q 3669 2231 3669 1497 
Q 3669 778 3244 343 
Q 2819 -91 2113 -91 
Q 1303 -91 875 529 
Q 447 1150 447 2328 
Q 447 3434 972 4092 
Q 1497 4750 2381 4750 
Q 2619 4750 2861 4703 
Q 3103 4656 3366 4563 
z
" transform="scale(0.015625)"/>
       </defs>
       <use xlink:href="#DejaVuSans-36"/>
       <use xlink:href="#DejaVuSans-30" x="63.623047"/>
      </g>
     </g>
    </g>
    <g id="text_19">
     <!-- time (s) -->
     <g transform="translate(369.508594 562.316563) scale(0.1 -0.1)">
      <defs>
       <path id="DejaVuSans-74" d="M 1172 4494 
L 1172 3500 
L 2356 3500 
L 2356 3053 
L 1172 3053 
L 1172 1153 
Q 1172 725 1289 603 
Q 1406 481 1766 481 
L 2356 481 
L 2356 0 
L 1766 0 
Q 1100 0 847 248 
Q 594 497 594 1153 
L 594 3053 
L 172 3053 
L 172 3500 
L 594 3500 
L 594 4494 
L 1172 4494 
z
" transform="scale(0.015625)"/>
       <path id="DejaVuSans-69" d="M 603 3500 
L 1178 3500 
L 1178 0 
L 603 0 
L 603 3500 
z
M 603 4863 
L 1178 4863 
L 1178 4134 
L 603 4134 
L 603 4863 
z
" transform="scale(0.015625)"/>
       <path id="DejaVuSans-65" d="M 3597 1894 
L 3597 1613 
L 953 1613 
Q 991 1019 1311 708 
Q 1631 397 2203 397 
Q 2534 397 2845 478 
Q 3156 559 3463 722 
L 3463 178 
Q 3153 47 2828 -22 
Q 2503 -91 2169 -91 
Q 1331 -91 842 396 
Q 353 884 353 1716 
Q 353 2575 817 3079 
Q 1281 3584 2069 3584 
Q 2775 3584 3186 3129 
Q 3597 2675 3597 1894 
z
M 3022 2063 
Q 3016 2534 2758 2815 
Q 2500 3097 2075 3097 
Q 1594 3097 1305 2825 
Q 1016 2553 972 2059 
L 3022 2063 
z
" transform="scale(0.015625)"/>
       <path id="DejaVuSans-73" d="M 2834 3397 
L 2834 2853 
Q 2591 2978 2328 3040 
Q 2066 3103 1784 3103 
Q 1356 3103 1142 2972 
Q 928 2841 928 2578 
Q 928 2378 1081 2264 
Q 1234 2150 1697 2047 
L 1894 2003 
Q 2506 1872 2764 1633 
Q 3022 1394 3022 966 
Q 3022 478 2636 193 
Q 2250 -91 1575 -91 
Q 1294 -91 989 -36 
Q 684 19 347 128 
L 347 722 
Q 666 556 975 473 
Q 1284 391 1588 391 
Q 1994 391 2212 530 
Q 2431 669 2431 922 
Q 2431 1156 2273 1281 
Q 2116 1406 1581 1522 
L 1381 1569 
Q 847 1681 609 1914 
Q 372 2147 372 2553 
Q 372 3047 722 3315 
Q 1072 3584 1716 3584 
Q 2034 3584 2315 3537 
Q 2597 3491 2834 3397 
z
" transform="scale(0.015625)"/>
      </defs>
      <use xlink:href="#DejaVuSans-74"/>
      <use xlink:href="#DejaVuSans-69" x="39.208984"/>
      <use xlink:href="#DejaVuSans-6d" x="66.992188"/>
      <use xlink:href="#DejaVuSans-65" x="164.404297"/>
      <use xlink:href="#DejaVuSans-20" x="225.927734"/>
      <use xlink:href="#DejaVuSans-28" x="257.714844"/>
      <use xlink:href="#DejaVuSans-73" x="296.728516"/>
      <use xlink:href="#DejaVuSans-29" x="348.828125"/>
     </g>
    </g>
   </g>
   <g id="matplotlib.axis_6">
    <g id="ytick_10">
     <g id="line2d_63">
      <path d="M 68.6 533.020587 
L 709.2 533.020587 
" clip-path="url(#p878639d434)" style="fill: none; stroke: #b0b0b0; stroke-width: 0.8; stroke-linecap: square"/>
     </g>
     <g id="line2d_64">
      <g>
       <use xlink:href="#m660ca692eb" x="68.6" y="533.020587" style="stroke: #000000; stroke-width: 0.8"/>
      </g>
     </g>
     <g id="text_20">
      <!-- −1 -->
      <g transform="translate(46.857813 536.819806) scale(0.1 -0.1)">
       <use xlink:href="#DejaVuSans-2212"/>
       <use xlink:href="#DejaVuSans-31" x="83.789062"/>
      </g>
     </g>
    </g>
    <g id="ytick_11">
     <g id="line2d_65">
      <path d="M 68.6 494.934256 
L 709.2 494.934256 
" clip-path="url(#p878639d434)" style="fill: none; stroke: #b0b0b0; stroke-width: 0.8; stroke-linecap: square"/>
     </g>
     <g id="line2d_66">
      <g>
       <use xlink:href="#m660ca692eb" x="68.6" y="494.934256" style="stroke: #000000; stroke-width: 0.8"/>
      </g>
     </g>
     <g id="text_21">
      <!-- 0 -->
      <g transform="translate(55.2375 498.733475) scale(0.1 -0.1)">
       <use xlink:href="#DejaVuSans-30"/>
      </g>
     </g>
    </g>
    <g id="ytick_12">
     <g id="line2d_67">
      <path d="M 68.6 456.847925 
L 709.2 456.847925 
" clip-path="url(#p878639d434)" style="fill: none; stroke: #b0b0b0; stroke-width: 0.8; stroke-linecap: square"/>
     </g>
     <g id="line2d_68">
      <g>
       <use xlink:href="#m660ca692eb" x="68.6" y="456.847925" style="stroke: #000000; stroke-width: 0.8"/>
      </g>
     </g>
     <g id="text_22">
      <!-- 1 -->
      <g transform="translate(55.2375 460.647143) scale(0.1 -0.1)">
       <use xlink:href="#DejaVuSans-31"/>
      </g>
     </g>
    </g>
    <g id="ytick_13">
     <g id="line2d_69">
      <path d="M 68.6 418.761593 
L 709.2 418.761593 
" clip-path="url(#p878639d434)" style="fill: none; stroke: #b0b0b0; stroke-width: 0.8; stroke-linecap: square"/>
     </g>
     <g id="line2d_70">
      <g>
       <use xlink:href="#m660ca692eb" x="68.6" y="418.761593" style="stroke: #000000; stroke-width: 0.8"/>
      </g>
     </g>
     <g id="text_23">
      <!-- 2 -->
      <g transform="translate(55.2375 422.560812) scale(0.1 -0.1)">
       <use xlink:href="#DejaVuSans-32"/>
      </g>
     </g>
    </g>
    <g id="ytick_14">
     <g id="line2d_71">
      <path d="M 68.6 380.675262 
L 709.2 380.675262 
" clip-path="url(#p878639d434)" style="fill: none; stroke: #b0b0b0; stroke-width: 0.8; stroke-linecap: square"/>
     </g>
     <g id="line2d_72">
      <g>
       <use xlink:href="#m660ca692eb" x="68.6" y="380.675262" style="stroke: #000000; stroke-width: 0.8"/>
      </g>
     </g>
     <g id="text_24">
      <!-- 3 -->
      <g transform="translate(55.2375 384.474481) scale(0.1 -0.1)">
       <use xlink:href="#DejaVuSans-33"/>
      </g>
     </g>
    </g>
    <g id="text_25">
     <!-- Error Yaw (deg) -->
     <g transform="translate(40.778125 494.483586) rotate(-90) scale(0.1 -0.1)">
      <defs>
       <path id="DejaVuSans-61" d="M 2194 1759 
Q 1497 1759 1228 1600 
Q 959 1441 959 1056 
Q 959 750 1161 570 
Q 1363 391 1709 391 
Q 2188 391 2477 730 
Q 2766 1069 2766 1631 
L 2766 1759 
L 2194 1759 
z
M 3341 1997 
L 3341 0 
L 2766 0 
L 2766 531 
Q 2569 213 2275 61 
Q 1981 -91 1556 -91 
Q 1019 -91 701 211 
Q 384 513 384 1019 
Q 384 1609 779 1909 
Q 1175 2209 1959 2209 
L 2766 2209 
L 2766 2266 
Q 2766 2663 2505 2880 
Q 2244 3097 1772 3097 
Q 1472 3097 1187 3025 
Q 903 2953 641 2809 
L 641 3341 
Q 956 3463 1253 3523 
Q 1550 3584 1831 3584 
Q 2591 3584 2966 3190 
Q 3341 2797 3341 1997 
z
" transform="scale(0.015625)"/>
       <path id="DejaVuSans-77" d="M 269 3500 
L 844 3500 
L 1563 769 
L 2278 3500 
L 2956 3500 
L 3675 769 
L 4391 3500 
L 4966 3500 
L 4050 0 
L 3372 0 
L 2619 2869 
L 1863 0 
L 1184 0 
L 269 3500 
z
" transform="scale(0.015625)"/>
       <path id="DejaVuSans-64" d="M 2906 2969 
L 2906 4863 
L 3481 4863 
L 3481 0 
L 2906 0 
L 2906 525 
Q 2725 213 2448 61 
Q 2172 -91 1784 -91 
Q 1150 -91 751 415 
Q 353 922 353 1747 
Q 353 2572 751 3078 
Q 1150 3584 1784 3584 
Q 2172 3584 2448 3432 
Q 2725 3281 2906 2969 
z
M 947 1747 
Q 947 1113 1208 752 
Q 1469 391 1925 391 
Q 2381 391 2643 752 
Q 2906 1113 2906 1747 
Q 2906 2381 2643 2742 
Q 2381 3103 1925 3103 
Q 1469 3103 1208 2742 
Q 947 2381 947 1747 
z
" transform="scale(0.015625)"/>
       <path id="DejaVuSans-67" d="M 2906 1791 
Q 2906 2416 2648 2759 
Q 2391 3103 1925 3103 
Q 1463 3103 1205 2759 
Q 947 2416 947 1791 
Q 947 1169 1205 825 
Q 1463 481 1925 481 
Q 2391 481 2648 825 
Q 2906 1169 2906 1791 
z
M 3481 434 
Q 3481 -459 3084 -895 
Q 2688 -1331 1869 -1331 
Q 1566 -1331 1297 -1286 
Q 1028 -1241 775 -1147 
L 775 -588 
Q 1028 -725 1275 -790 
Q 1522 -856 1778 -856 
Q 2344 -856 2625 -561 
Q 2906 -266 2906 331 
L 2906 616 
Q 2728 306 2450 153 
Q 2172 0 1784 0 
Q 1141 0 747 490 
Q 353 981 353 1791 
Q 353 2603 747 3093 
Q 1141 3584 1784 3584 
Q 2172 3584 2450 3431 
Q 2728 3278 2906 2969 
L 2906 3500 
L 3481 3500 
L 3481 434 
z
" transform="scale(0.015625)"/>
      </defs>
      <use xlink:href="#DejaVuSans-45"/>
      <use xlink:href="#DejaVuSans-72" x="63.183594"/>
      <use xlink:href="#DejaVuSans-72" x="102.546875"/>
      <use xlink:href="#DejaVuSans-6f" x="141.410156"/>
      <use xlink:href="#DejaVuSans-72" x="202.591797"/>
      <use xlink:href="#DejaVuSans-20" x="243.705078"/>
      <use xlink:href="#DejaVuSans-59" x="275.492188"/>
      <use xlink:href="#DejaVuSans-61" x="322.826172"/>
      <use xlink:href="#DejaVuSans-77" x="384.105469"/>
      <use xlink:href="#DejaVuSans-20" x="465.892578"/>
      <use xlink:href="#DejaVuSans-28" x="497.679688"/>
      <use xlink:href="#DejaVuSans-64" x="536.693359"/>
      <use xlink:href="#DejaVuSans-65" x="600.169922"/>
      <use xlink:href="#DejaVuSans-67" x="661.693359"/>
      <use xlink:href="#DejaVuSans-29" x="725.169922"/>
     </g>
    </g>
   </g>
   <g id="line2d_73">
    <path d="M 97.718182 488.063253 
L 98.661961 487.553887 
L 99.60574 487.343345 
L 102.437078 487.740548 
L 103.380857 487.54486 
L 104.324636 487.897768 
L 105.268415 487.608578 
L 107.155973 487.528254 
L 108.099752 487.331539 
L 109.043531 487.579633 
L 109.987311 488.09555 
L 111.874869 487.751136 
L 112.818648 488.07506 
L 114.706206 487.901234 
L 115.649985 487.95783 
L 116.593765 487.556667 
L 117.537544 487.540099 
L 118.481323 487.32952 
L 119.425102 487.678429 
L 120.368881 487.418375 
L 121.31266 487.805218 
L 122.256439 487.361741 
L 123.200219 487.151009 
L 125.087777 487.824718 
L 126.031556 487.653368 
L 126.975335 487.622137 
L 127.919114 487.930256 
L 128.862893 487.489597 
L 129.806673 487.722304 
L 130.750452 487.385088 
L 131.694231 487.451701 
L 133.581789 487.270448 
L 134.525568 487.135242 
L 135.469347 486.472273 
L 137.356906 487.251214 
L 138.300685 486.889966 
L 139.244464 486.936317 
L 140.188243 486.740096 
L 141.132022 487.041625 
L 142.075801 487.871907 
L 143.96336 487.619281 
L 144.907139 487.675001 
L 145.850918 487.980949 
L 146.794697 487.562989 
L 148.682255 487.600504 
L 149.626034 488.326925 
L 150.569814 488.52524 
L 151.513593 488.575629 
L 152.457372 487.759477 
L 153.401151 488.011341 
L 154.34493 488.09277 
L 155.288709 487.548935 
L 156.232488 487.591744 
L 157.176268 487.377547 
L 158.120047 487.636115 
L 159.063826 487.633677 
L 160.007605 487.839191 
L 161.895163 487.29707 
L 162.838942 487.119702 
L 163.782722 486.674702 
L 164.726501 486.86879 
L 166.614059 486.486669 
L 167.557838 486.962787 
L 168.501617 486.595215 
L 169.445396 486.671045 
L 170.389175 486.583637 
L 171.332955 485.385632 
L 172.276734 485.132738 
L 173.220513 485.662595 
L 174.164292 485.90391 
L 175.108071 486.265121 
L 176.05185 486.919064 
L 176.995629 486.799054 
L 177.939409 486.274148 
L 178.883188 485.17829 
L 179.826967 485.401171 
L 180.770746 485.450912 
L 181.714525 486.562614 
L 182.658304 486.438376 
L 183.602083 486.731108 
L 184.545863 486.289611 
L 185.489642 486.320689 
L 186.433421 485.828309 
L 187.3772 486.672074 
L 188.320979 486.756321 
L 189.264758 486.709703 
L 190.208537 487.076322 
L 191.152317 485.292473 
L 193.039875 484.099837 
L 194.927433 485.275486 
L 195.871212 484.687738 
L 196.814991 484.802378 
L 197.758771 484.653422 
L 198.70255 485.449845 
L 201.533887 482.85251 
L 202.477666 483.86115 
L 203.421445 485.641077 
L 205.309004 485.375691 
L 206.252783 486.091371 
L 209.08412 486.057589 
L 210.027899 487.457757 
L 210.971678 486.476424 
L 211.915458 487.047414 
L 212.859237 486.524184 
L 213.803016 486.149377 
L 214.746795 485.149039 
L 216.634353 484.274958 
L 217.578132 485.382052 
L 218.521912 485.733665 
L 219.465691 489.399207 
L 220.40947 491.09443 
L 221.353249 494.059984 
L 222.297028 493.574421 
L 223.240807 492.054167 
L 224.184586 486.024454 
L 226.072145 482.714713 
L 227.959703 489.41269 
L 228.903482 490.804974 
L 229.847261 490.069946 
L 230.79104 487.037131 
L 231.734819 481.617142 
L 232.678599 479.673139 
L 233.622378 478.431334 
L 234.566157 479.605764 
L 235.509936 484.407003 
L 236.453715 485.531807 
L 237.397494 485.637154 
L 238.341273 483.77298 
L 239.285053 479.558194 
L 240.228832 479.220178 
L 241.172611 480.39617 
L 242.11639 482.635456 
L 243.060169 487.087672 
L 244.003948 488.138245 
L 244.947727 488.017511 
L 245.891507 484.166374 
L 246.835286 478.873098 
L 247.779065 477.608746 
L 248.722844 477.870018 
L 249.666623 480.718076 
L 250.610402 484.338791 
L 251.554181 485.616359 
L 252.497961 486.5983 
L 253.44174 484.039737 
L 254.385519 480.332528 
L 255.329298 480.311276 
L 256.273077 481.344177 
L 259.104415 492.458949 
L 260.048194 493.497106 
L 260.991973 489.067361 
L 261.935752 482.901679 
L 262.879531 477.697296 
L 263.82331 477.177151 
L 264.767089 478.240864 
L 265.710868 482.022571 
L 266.654648 486.542123 
L 267.598427 489.257793 
L 268.542206 487.628003 
L 269.485985 483.939722 
L 270.429764 475.687252 
L 271.373543 475.820288 
L 272.317322 477.88868 
L 273.261102 480.766521 
L 274.204881 485.213139 
L 275.14866 487.528369 
L 276.092439 484.861031 
L 277.036218 482.887092 
L 277.979997 477.211201 
L 278.923776 476.633317 
L 279.867556 479.281269 
L 280.811335 482.680512 
L 281.755114 485.330711 
L 282.698893 485.574121 
L 284.586451 481.027489 
L 285.53023 476.25432 
L 286.47401 477.000774 
L 287.417789 479.46633 
L 288.361568 483.641925 
L 289.305347 486.12325 
L 290.249126 486.130524 
L 291.192905 483.191707 
L 292.136684 488.516709 
L 293.080464 487.741843 
L 294.024243 486.417352 
L 294.968022 489.374946 
L 295.911801 484.946572 
L 297.799359 474.659188 
L 298.743138 471.861556 
L 299.686917 474.85 
L 300.630697 478.576938 
L 301.574476 478.482484 
L 302.518255 478.130186 
L 303.462034 473.185932 
L 304.405813 470.310224 
L 305.349592 466.745115 
L 306.293371 465.816113 
L 307.237151 468.330344 
L 308.18093 471.529939 
L 309.124709 473.624306 
L 310.068488 470.505454 
L 311.012267 466.499572 
L 311.956046 465.264966 
L 312.899825 464.525101 
L 313.843605 465.762944 
L 314.787384 468.592683 
L 316.674942 472.47387 
L 318.5625 467.244846 
L 319.506279 468.021997 
L 320.450059 469.293966 
L 322.337617 478.599866 
L 323.281396 480.670087 
L 324.225175 481.212969 
L 325.168954 477.402013 
L 326.112733 475.403128 
L 327.056512 476.662415 
L 328.000292 478.981187 
L 329.88785 488.452534 
L 331.775408 491.059276 
L 332.719187 487.497671 
L 333.662966 484.529337 
L 335.550525 485.579453 
L 336.494304 488.356251 
L 337.438083 493.452507 
L 338.381862 494.09369 
L 339.325641 494.008491 
L 340.26942 489.030303 
L 341.2132 485.605656 
L 342.156979 484.981117 
L 343.100758 485.011776 
L 344.988316 491.474151 
L 345.932095 492.271107 
L 346.875874 492.007245 
L 347.819654 488.516937 
L 348.763433 486.333143 
L 349.707212 486.015503 
L 350.650991 487.177746 
L 351.59477 491.452556 
L 352.538549 494.529741 
L 353.482328 494.269459 
L 354.426108 494.14545 
L 355.369887 488.196174 
L 356.313666 485.562847 
L 357.257445 484.563919 
L 358.201224 485.223232 
L 360.088782 494.206045 
L 361.032561 493.506666 
L 361.976341 491.747687 
L 362.92012 490.617322 
L 363.863899 492.914195 
L 364.807678 496.722333 
L 365.751457 497.33857 
L 366.695236 498.677647 
L 367.639015 493.64271 
L 368.582795 483.286846 
L 369.526574 484.233711 
L 370.470353 485.862206 
L 371.414132 489.314503 
L 372.357911 493.971624 
L 373.30169 496.642771 
L 374.245469 498.277245 
L 375.189249 496.448416 
L 376.133028 491.424105 
L 378.020586 483.732228 
L 378.964365 483.976704 
L 379.908144 483.740683 
L 380.851923 483.316325 
L 381.795703 482.433712 
L 382.739482 479.868674 
L 383.683261 481.773867 
L 384.62704 482.01343 
L 385.570819 482.011983 
L 386.514598 483.90792 
L 387.458377 485.245207 
L 388.402157 486.114299 
L 389.345936 485.520991 
L 390.289715 484.460248 
L 391.233494 483.924373 
L 392.177273 486.446412 
L 393.121052 477.684994 
L 394.064831 475.751047 
L 395.00861 474.892543 
L 395.95239 476.669308 
L 396.896169 476.520695 
L 397.839948 477.959254 
L 398.783727 478.36754 
L 399.727506 469.946538 
L 400.671285 447.482229 
L 401.615064 443.445687 
L 402.558844 457.089163 
L 403.502623 467.495873 
L 405.390181 474.014843 
L 406.33396 475.509351 
L 407.277739 476.747499 
L 408.221518 471.499279 
L 409.165298 469.804018 
L 410.109077 475.522453 
L 411.052856 479.355118 
L 411.996635 480.425039 
L 412.940414 482.715209 
L 413.884193 483.129436 
L 414.827972 483.960974 
L 415.771752 485.095452 
L 416.715531 486.698658 
L 417.65931 486.688108 
L 418.603089 485.072143 
L 419.546868 484.109359 
L 421.434426 484.161613 
L 422.378205 484.645424 
L 424.265764 488.163839 
L 425.209543 487.836335 
L 426.153322 485.925201 
L 427.097101 488.565612 
L 428.04088 489.909907 
L 428.984659 493.238652 
L 429.928439 495.097532 
L 430.872218 494.891866 
L 431.815997 493.517254 
L 432.759776 488.955921 
L 433.703555 485.501338 
L 434.647334 486.800387 
L 435.591113 489.946927 
L 436.534893 491.336964 
L 437.478672 493.265046 
L 438.422451 492.019242 
L 439.36623 490.336169 
L 440.310009 488.906865 
L 441.253788 487.188486 
L 443.141347 490.557717 
L 444.085126 493.60809 
L 445.972684 493.51554 
L 446.916463 492.535541 
L 447.860242 491.149236 
L 448.804021 491.197872 
L 449.747801 493.952885 
L 450.69158 495.644756 
L 451.635359 497.723318 
L 452.579138 498.34919 
L 453.522917 497.287001 
L 454.466696 496.94788 
L 455.410475 495.312682 
L 456.354254 495.902372 
L 457.298034 497.334494 
L 458.241813 499.12002 
L 459.185592 499.294112 
L 460.129371 498.836619 
L 461.07315 497.58674 
L 462.016929 497.686907 
L 462.960708 495.659724 
L 463.904488 494.630213 
L 464.848267 495.941563 
L 466.735825 496.650731 
L 467.679604 496.041159 
L 468.623383 494.619358 
L 469.567162 495.247516 
L 470.510942 495.283355 
L 471.454721 494.920126 
L 472.3985 494.822092 
L 475.229837 490.464596 
L 476.173616 489.215136 
L 477.117396 490.158268 
L 479.948733 494.599477 
L 480.892512 495.102635 
L 481.836291 494.607894 
L 482.78007 494.63962 
L 483.72385 496.075551 
L 484.667629 497.77641 
L 485.611408 500.369632 
L 486.555187 500.788582 
L 487.498966 500.816423 
L 488.442745 501.228555 
L 489.386524 501.203685 
L 490.330303 501.0366 
L 491.274083 502.383371 
L 492.217862 502.382038 
L 493.161641 503.233344 
L 494.10542 503.257033 
L 495.049199 502.268617 
L 495.992978 501.110564 
L 496.936757 500.836799 
L 497.880537 500.789077 
L 498.824316 502.507075 
L 499.768095 502.681473 
L 501.655653 503.357962 
L 502.599432 501.259938 
L 503.543211 504.440642 
L 504.486991 503.669813 
L 505.43077 502.217505 
L 506.374549 503.473859 
L 507.318328 507.504154 
L 508.262107 509.166965 
L 509.205886 511.93089 
L 510.149665 509.672333 
L 511.093445 506.785122 
L 512.037224 503.281485 
L 512.981003 501.282714 
L 513.924782 501.602792 
L 514.868561 505.164511 
L 515.81234 507.813377 
L 516.756119 509.386152 
L 517.699898 508.156878 
L 519.587457 504.295229 
L 520.531236 503.585147 
L 521.475015 504.410173 
L 522.418794 507.521674 
L 523.362573 508.763441 
L 524.306352 508.9565 
L 525.250132 508.197402 
L 526.193911 506.187662 
L 527.13769 505.1484 
L 528.081469 505.798991 
L 529.025248 507.002633 
L 529.969027 510.555974 
L 530.912806 510.671528 
L 531.856586 512.304936 
L 532.800365 512.663824 
L 533.744144 511.557835 
L 534.687923 512.147297 
L 535.631702 512.322875 
L 536.575481 512.869795 
L 537.51926 513.28665 
L 538.46304 512.068458 
L 539.406819 511.745182 
L 540.350598 510.771543 
L 541.294377 511.952981 
L 542.238156 512.886172 
L 543.181935 512.419081 
L 544.125714 514.023734 
L 545.069494 510.770819 
L 546.013273 506.667398 
L 546.957052 499.532761 
L 547.900831 496.819453 
L 548.84461 496.215061 
L 549.788389 494.755936 
L 550.732168 494.323389 
L 551.675947 493.585847 
L 552.619727 494.314782 
L 553.563506 494.63543 
L 554.507285 492.592518 
L 555.451064 491.315178 
L 556.394843 489.787955 
L 557.338622 489.616376 
L 558.282401 489.019182 
L 559.226181 488.737191 
L 560.16996 489.108075 
L 561.113739 490.086361 
L 562.057518 491.23295 
L 563.001297 491.717027 
L 563.945076 491.540459 
L 564.888855 490.694828 
L 565.832635 490.426015 
L 566.776414 489.530872 
L 567.720193 488.197012 
L 568.663972 489.396541 
L 569.607751 488.720585 
L 570.55153 488.755206 
L 571.495309 490.033154 
L 572.439089 489.14003 
L 573.382868 489.625783 
L 575.270426 485.729818 
L 576.214205 486.03009 
L 577.157984 484.473502 
L 578.101763 486.039955 
L 579.045542 487.974626 
L 579.989322 488.319841 
L 580.933101 490.760413 
L 581.87688 490.975677 
L 582.820659 493.883149 
L 583.764438 498.175479 
L 584.708217 497.646993 
L 585.651996 507.088099 
L 586.595776 511.251011 
L 587.539555 511.760454 
L 588.483334 511.139152 
L 589.427113 508.459017 
L 590.370892 506.833644 
L 591.314671 506.363164 
L 592.25845 506.525336 
L 593.20223 514.006291 
L 594.146009 524.043601 
L 595.089788 526.970383 
L 596.977346 520.582124 
L 597.921125 515.393433 
L 598.864904 502.014886 
L 599.808684 497.483679 
L 600.752463 501.869701 
L 602.640021 508.920547 
L 603.5838 512.079351 
L 604.527579 510.349813 
L 605.471358 509.331765 
L 607.358917 500.562654 
L 608.302696 504.773898 
L 609.246475 506.363507 
L 610.190254 512.614159 
L 611.134033 519.857875 
L 612.077812 517.414827 
L 613.021591 511.502686 
L 613.965371 506.329229 
L 614.90915 500.222505 
L 615.852929 507.099449 
L 616.796708 508.389395 
L 617.740487 515.221968 
L 618.684266 520.711542 
L 619.628045 516.354008 
L 620.571825 510.158162 
L 621.515604 505.215242 
L 622.459383 501.681326 
L 623.403162 501.681326 
L 624.346941 499.293808 
L 625.29072 501.286903 
L 626.234499 504.95058 
L 627.178279 492.939332 
L 629.065837 453.45706 
L 630.009616 445.52402 
L 630.953395 435.906955 
L 631.897174 417.268495 
L 632.840953 410.729605 
L 633.784733 406.49212 
L 634.728512 400.256664 
L 635.672291 392.470294 
L 636.61607 386.703376 
L 637.559849 386.40497 
L 638.503628 390.970226 
L 639.447407 385.578039 
L 640.391187 393.184375 
L 641.334966 395.972142 
L 643.222524 397.944824 
L 644.166303 399.360569 
L 645.110082 406.76021 
L 646.053861 410.650804 
L 646.99764 413.98313 
L 647.94142 421.231302 
L 648.885199 424.223249 
L 646.388903 422.463775 
L 647.332682 422.588965 
L 648.276461 426.448177 
L 649.22024 433.108905 
L 652.051578 443.823732 
L 652.995357 448.780935 
L 653.939136 447.401486 
L 654.882915 449.933085 
L 655.826694 450.161107 
L 656.770473 454.269099 
L 657.714253 457.209097 
L 658.658032 456.020271 
L 659.601811 457.664686 
L 660.54559 459.757225 
L 662.433148 458.754717 
L 663.376927 458.454825 
L 664.320707 461.260721 
L 666.208265 463.803174 
L 667.152044 463.077058 
L 668.095823 464.408556 
L 669.039602 464.45845 
L 670.927161 466.247669 
L 671.87094 465.083865 
L 672.814719 465.91708 
L 674.702277 466.245651 
L 675.646056 466.897155 
L 676.589835 466.063369 
L 677.533615 466.997589 
L 678.477394 470.612172 
L 676.908361 470.823932 
L 674.419143 467.376815 
L 675.362922 468.30395 
L 676.306702 467.428726 
L 677.250481 467.206455 
L 678.19426 464.971587 
L 679.138039 463.81102 
L 680.081818 466.573384 
L 680.081818 466.573384 
" clip-path="url(#p878639d434)" style="fill: none; stroke: #1f77b4; stroke-width: 1.5; stroke-linecap: square"/>
   </g>
   <g id="patch_13">
    <path d="M 68.6 534.04 
L 68.6 378.508422 
" style="fill: none; stroke: #000000; stroke-width: 0.8; stroke-linejoin: miter; stroke-linecap: square"/>
   </g>
   <g id="patch_14">
    <path d="M 709.2 534.04 
L 709.2 378.508422 
" style="fill: none; stroke: #000000; stroke-width: 0.8; stroke-linejoin: miter; stroke-linecap: square"/>
   </g>
   <g id="patch_15">
    <path d="M 68.6 534.04 
L 709.2 534.04 
" style="fill: none; stroke: #000000; stroke-width: 0.8; stroke-linejoin: miter; stroke-linecap: square"/>
   </g>
   <g id="patch_16">
    <path d="M 68.6 378.508422 
L 709.2 378.508422 
" style="fill: none; stroke: #000000; stroke-width: 0.8; stroke-linejoin: miter; stroke-linecap: square"/>
   </g>
  </g>
  <g id="text_26">
   <!-- ICP Error over Time -->
   <g transform="translate(302.018438 20.638125) scale(0.12 -0.12)">
    <defs>
     <path id="DejaVuSans-49" d="M 628 4666 
L 1259 4666 
L 1259 0 
L 628 0 
L 628 4666 
z
" transform="scale(0.015625)"/>
     <path id="DejaVuSans-43" d="M 4122 4306 
L 4122 3641 
Q 3803 3938 3442 4084 
Q 3081 4231 2675 4231 
Q 1875 4231 1450 3742 
Q 1025 3253 1025 2328 
Q 1025 1406 1450 917 
Q 1875 428 2675 428 
Q 3081 428 3442 575 
Q 3803 722 4122 1019 
L 4122 359 
Q 3791 134 3420 21 
Q 3050 -91 2638 -91 
Q 1578 -91 968 557 
Q 359 1206 359 2328 
Q 359 3453 968 4101 
Q 1578 4750 2638 4750 
Q 3056 4750 3426 4639 
Q 3797 4528 4122 4306 
z
" transform="scale(0.015625)"/>
     <path id="DejaVuSans-50" d="M 1259 4147 
L 1259 2394 
L 2053 2394 
Q 2494 2394 2734 2622 
Q 2975 2850 2975 3272 
Q 2975 3691 2734 3919 
Q 2494 4147 2053 4147 
L 1259 4147 
z
M 628 4666 
L 2053 4666 
Q 2838 4666 3239 4311 
Q 3641 3956 3641 3272 
Q 3641 2581 3239 2228 
Q 2838 1875 2053 1875 
L 1259 1875 
L 1259 0 
L 628 0 
L 628 4666 
z
" transform="scale(0.015625)"/>
     <path id="DejaVuSans-76" d="M 191 3500 
L 800 3500 
L 1894 563 
L 2988 3500 
L 3597 3500 
L 2284 0 
L 1503 0 
L 191 3500 
z
" transform="scale(0.015625)"/>
     <path id="DejaVuSans-54" d="M -19 4666 
L 3928 4666 
L 3928 4134 
L 2272 4134 
L 2272 0 
L 1638 0 
L 1638 4134 
L -19 4134 
L -19 4666 
z
" transform="scale(0.015625)"/>
    </defs>
    <use xlink:href="#DejaVuSans-49"/>
    <use xlink:href="#DejaVuSans-43" x="29.492188"/>
    <use xlink:href="#DejaVuSans-50" x="99.316406"/>
    <use xlink:href="#DejaVuSans-20" x="159.619141"/>
    <use xlink:href="#DejaVuSans-45" x="191.40625"/>
    <use xlink:href="#DejaVuSans-72" x="254.589844"/>
    <use xlink:href="#DejaVuSans-72" x="293.953125"/>
    <use xlink:href="#DejaVuSans-6f" x="332.816406"/>
    <use xlink:href="#DejaVuSans-72" x="393.998047"/>
    <use xlink:href="#DejaVuSans-20" x="435.111328"/>
    <use xlink:href="#DejaVuSans-6f" x="466.898438"/>
    <use xlink:href="#DejaVuSans-76" x="528.080078"/>
    <use xlink:href="#DejaVuSans-65" x="587.259766"/>
    <use xlink:href="#DejaVuSans-72" x="648.783203"/>
    <use xlink:href="#DejaVuSans-20" x="689.896484"/>
    <use xlink:href="#DejaVuSans-54" x="721.683594"/>
    <use xlink:href="#DejaVuSans-69" x="779.642578"/>
    <use xlink:href="#DejaVuSans-6d" x="807.425781"/>
    <use xlink:href="#DejaVuSans-65" x="904.837891"/>
   </g>
  </g>
 </g>
 <defs>
  <clipPath id="p5df8ea9d5d">
   <rect x="68.6" y="34.56" width="640.6" height="155.531578"/>
  </clipPath>
  <clipPath id="p6a142e464d">
   <rect x="68.6" y="206.534211" width="640.6" height="155.531578"/>
  </clipPath>
  <clipPath id="p878639d434">
   <rect x="68.6" y="378.508422" width="640.6" height="155.531578"/>
  </clipPath>
 </defs>
</svg>
