<?xml version="1.0" encoding="utf-8" standalone="no"?>
<!DOCTYPE svg PUBLIC "-//W3C//DTD SVG 1.1//EN"
  "http://www.w3.org/Graphics/SVG/1.1/DTD/svg11.dtd">
<svg xmlns:xlink="http://www.w3.org/1999/xlink" width="864pt" height="576pt" viewBox="0 0 864 576" xmlns="http://www.w3.org/2000/svg" version="1.1">
 <metadata>
  <rdf:RDF xmlns:dc="http://purl.org/dc/elements/1.1/" xmlns:cc="http://creativecommons.org/ns#" xmlns:rdf="http://www.w3.org/1999/02/22-rdf-syntax-ns#">
   <cc:Work>
    <dc:type rdf:resource="http://purl.org/dc/dcmitype/StillImage"/>
    <dc:date>2026-06-17T15:55:08.271730</dc:date>
    <dc:format>image/svg+xml</dc:format>
    <dc:creator>
     <cc:Agent>
      <dc:title>Matplotlib v3.8.2, https://matplotlib.org/</dc:title>
     </cc:Agent>
    </dc:creator>
   </cc:Work>
  </rdf:RDF>
 </metadata>
 <defs>
  <style type="text/css">*{stroke-linejoin: round; stroke-linecap: butt}</style>
 </defs>
 <g id="figure_1">
  <g id="patch_1">
   <path d="M 0 576 
L 864 576 
L 864 0 
L 0 0 
z
" style="fill: #ffffff"/>
  </g>
  <g id="axes_1">
   <g id="patch_2">
    <path d="M 68.69 190.779288 
L 853.2 190.779288 
L 853.2 34.56 
L 68.69 34.56 
z
" style="fill: #ffffff"/>
   </g>
   <g id="matplotlib.axis_1">
    <g id="xtick_1">
     <g id="line2d_1">
      <path d="M 104.349545 190.779288 
L 104.349545 34.56 
" clip-path="url(#p0176026d6e)" style="fill: none; stroke: #b0b0b0; stroke-width: 0.8; stroke-linecap: square"/>
     </g>
     <g id="line2d_2">
      <defs>
       <path id="m73bf6c73ce" d="M 0 0 
L 0 3.5 
" style="stroke: #000000; stroke-width: 0.8"/>
      </defs>
      <g>
       <use xlink:href="#m73bf6c73ce" x="104.349545" y="190.779288" style="stroke: #000000; stroke-width: 0.8"/>
      </g>
     </g>
    </g>
    <g id="xtick_2">
     <g id="line2d_3">
      <path d="M 227.026896 190.779288 
L 227.026896 34.56 
" clip-path="url(#p0176026d6e)" style="fill: none; stroke: #b0b0b0; stroke-width: 0.8; stroke-linecap: square"/>
     </g>
     <g id="line2d_4">
      <g>
       <use xlink:href="#m73bf6c73ce" x="227.026896" y="190.779288" style="stroke: #000000; stroke-width: 0.8"/>
      </g>
     </g>
    </g>
    <g id="xtick_3">
     <g id="line2d_5">
      <path d="M 349.704246 190.779288 
L 349.704246 34.56 
" clip-path="url(#p0176026d6e)" style="fill: none; stroke: #b0b0b0; stroke-width: 0.8; stroke-linecap: square"/>
     </g>
     <g id="line2d_6">
      <g>
       <use xlink:href="#m73bf6c73ce" x="349.704246" y="190.779288" style="stroke: #000000; stroke-width: 0.8"/>
      </g>
     </g>
    </g>
    <g id="xtick_4">
     <g id="line2d_7">
      <path d="M 472.381596 190.779288 
L 472.381596 34.56 
" clip-path="url(#p0176026d6e)" style="fill: none; stroke: #b0b0b0; stroke-width: 0.8; stroke-linecap: square"/>
     </g>
     <g id="line2d_8">
      <g>
       <use xlink:href="#m73bf6c73ce" x="472.381596" y="190.779288" style="stroke: #000000; stroke-width: 0.8"/>
      </g>
     </g>
    </g>
    <g id="xtick_5">
     <g id="line2d_9">
      <path d="M 595.058946 190.779288 
L 595.058946 34.56 
" clip-path="url(#p0176026d6e)" style="fill: none; stroke: #b0b0b0; stroke-width: 0.8; stroke-linecap: square"/>
     </g>
     <g id="line2d_10">
      <g>
       <use xlink:href="#m73bf6c73ce" x="595.058946" y="190.779288" style="stroke: #000000; stroke-width: 0.8"/>
      </g>
     </g>
    </g>
    <g id="xtick_6">
     <g id="line2d_11">
      <path d="M 717.736296 190.779288 
L 717.736296 34.56 
" clip-path="url(#p0176026d6e)" style="fill: none; stroke: #b0b0b0; stroke-width: 0.8; stroke-linecap: square"/>
     </g>
     <g id="line2d_12">
      <g>
       <use xlink:href="#m73bf6c73ce" x="717.736296" y="190.779288" style="stroke: #000000; stroke-width: 0.8"/>
      </g>
     </g>
    </g>
    <g id="xtick_7">
     <g id="line2d_13">
      <path d="M 840.413646 190.779288 
L 840.413646 34.56 
" clip-path="url(#p0176026d6e)" style="fill: none; stroke: #b0b0b0; stroke-width: 0.8; stroke-linecap: square"/>
     </g>
     <g id="line2d_14">
      <g>
       <use xlink:href="#m73bf6c73ce" x="840.413646" y="190.779288" style="stroke: #000000; stroke-width: 0.8"/>
      </g>
     </g>
    </g>
   </g>
   <g id="matplotlib.axis_2">
    <g id="ytick_1">
     <g id="line2d_15">
      <path d="M 68.69 179.906614 
L 853.2 179.906614 
" clip-path="url(#p0176026d6e)" style="fill: none; stroke: #b0b0b0; stroke-width: 0.8; stroke-linecap: square"/>
     </g>
     <g id="line2d_16">
      <defs>
       <path id="ma5ce5db0b1" d="M 0 0 
L -3.5 0 
" style="stroke: #000000; stroke-width: 0.8"/>
      </defs>
      <g>
       <use xlink:href="#ma5ce5db0b1" x="68.69" y="179.906614" style="stroke: #000000; stroke-width: 0.8"/>
      </g>
     </g>
     <g id="text_1">
      <!-- −0.002 -->
      <g transform="translate(24.682187 183.705832) scale(0.1 -0.1)">
       <defs>
        <path id="DejaVuSans-2212" d="M 678 2272 
L 4684 2272 
L 4684 1741 
L 678 1741 
L 678 2272 
z
" transform="scale(0.015625)"/>
        <path id="DejaVuSans-30" d="M 2034 4250 
Q 1547 4250 1301 3770 
Q 1056 3291 1056 2328 
Q 1056 1369 1301 889 
Q 1547 409 2034 409 
Q 2525 409 2770 889 
Q 3016 1369 3016 2328 
Q 3016 3291 2770 3770 
Q 2525 4250 2034 4250 
z
M 2034 4750 
Q 2819 4750 3233 4129 
Q 3647 3509 3647 2328 
Q 3647 1150 3233 529 
Q 2819 -91 2034 -91 
Q 1250 -91 836 529 
Q 422 1150 422 2328 
Q 422 3509 836 4129 
Q 1250 4750 2034 4750 
z
" transform="scale(0.015625)"/>
        <path id="DejaVuSans-2e" d="M 684 794 
L 1344 794 
L 1344 0 
L 684 0 
L 684 794 
z
" transform="scale(0.015625)"/>
        <path id="DejaVuSans-32" d="M 1228 531 
L 3431 531 
L 3431 0 
L 469 0 
L 469 531 
Q 828 903 1448 1529 
Q 2069 2156 2228 2338 
Q 2531 2678 2651 2914 
Q 2772 3150 2772 3378 
Q 2772 3750 2511 3984 
Q 2250 4219 1831 4219 
Q 1534 4219 1204 4116 
Q 875 4013 500 3803 
L 500 4441 
Q 881 4594 1212 4672 
Q 1544 4750 1819 4750 
Q 2544 4750 2975 4387 
Q 3406 4025 3406 3419 
Q 3406 3131 3298 2873 
Q 3191 2616 2906 2266 
Q 2828 2175 2409 1742 
Q 1991 1309 1228 531 
z
" transform="scale(0.015625)"/>
       </defs>
       <use xlink:href="#DejaVuSans-2212"/>
       <use xlink:href="#DejaVuSans-30" x="83.789062"/>
       <use xlink:href="#DejaVuSans-2e" x="147.412109"/>
       <use xlink:href="#DejaVuSans-30" x="179.199219"/>
       <use xlink:href="#DejaVuSans-30" x="242.822266"/>
       <use xlink:href="#DejaVuSans-32" x="306.445312"/>
      </g>
     </g>
    </g>
    <g id="ytick_2">
     <g id="line2d_17">
      <path d="M 68.69 153.156278 
L 853.2 153.156278 
" clip-path="url(#p0176026d6e)" style="fill: none; stroke: #b0b0b0; stroke-width: 0.8; stroke-linecap: square"/>
     </g>
     <g id="line2d_18">
      <g>
       <use xlink:href="#ma5ce5db0b1" x="68.69" y="153.156278" style="stroke: #000000; stroke-width: 0.8"/>
      </g>
     </g>
     <g id="text_2">
      <!-- −0.001 -->
      <g transform="translate(24.682187 156.955496) scale(0.1 -0.1)">
       <defs>
        <path id="DejaVuSans-31" d="M 794 531 
L 1825 531 
L 1825 4091 
L 703 3866 
L 703 4441 
L 1819 4666 
L 2450 4666 
L 2450 531 
L 3481 531 
L 3481 0 
L 794 0 
L 794 531 
z
" transform="scale(0.015625)"/>
       </defs>
       <use xlink:href="#DejaVuSans-2212"/>
       <use xlink:href="#DejaVuSans-30" x="83.789062"/>
       <use xlink:href="#DejaVuSans-2e" x="147.412109"/>
       <use xlink:href="#DejaVuSans-30" x="179.199219"/>
       <use xlink:href="#DejaVuSans-30" x="242.822266"/>
       <use xlink:href="#DejaVuSans-31" x="306.445312"/>
      </g>
     </g>
    </g>
    <g id="ytick_3">
     <g id="line2d_19">
      <path d="M 68.69 126.405942 
L 853.2 126.405942 
" clip-path="url(#p0176026d6e)" style="fill: none; stroke: #b0b0b0; stroke-width: 0.8; stroke-linecap: square"/>
     </g>
     <g id="line2d_20">
      <g>
       <use xlink:href="#ma5ce5db0b1" x="68.69" y="126.405942" style="stroke: #000000; stroke-width: 0.8"/>
      </g>
     </g>
     <g id="text_3">
      <!-- 0.000 -->
      <g transform="translate(33.061875 130.20516) scale(0.1 -0.1)">
       <use xlink:href="#DejaVuSans-30"/>
       <use xlink:href="#DejaVuSans-2e" x="63.623047"/>
       <use xlink:href="#DejaVuSans-30" x="95.410156"/>
       <use xlink:href="#DejaVuSans-30" x="159.033203"/>
       <use xlink:href="#DejaVuSans-30" x="222.65625"/>
      </g>
     </g>
    </g>
    <g id="ytick_4">
     <g id="line2d_21">
      <path d="M 68.69 99.655605 
L 853.2 99.655605 
" clip-path="url(#p0176026d6e)" style="fill: none; stroke: #b0b0b0; stroke-width: 0.8; stroke-linecap: square"/>
     </g>
     <g id="line2d_22">
      <g>
       <use xlink:href="#ma5ce5db0b1" x="68.69" y="99.655605" style="stroke: #000000; stroke-width: 0.8"/>
      </g>
     </g>
     <g id="text_4">
      <!-- 0.001 -->
      <g transform="translate(33.061875 103.454824) scale(0.1 -0.1)">
       <use xlink:href="#DejaVuSans-30"/>
       <use xlink:href="#DejaVuSans-2e" x="63.623047"/>
       <use xlink:href="#DejaVuSans-30" x="95.410156"/>
       <use xlink:href="#DejaVuSans-30" x="159.033203"/>
       <use xlink:href="#DejaVuSans-31" x="222.65625"/>
      </g>
     </g>
    </g>
    <g id="ytick_5">
     <g id="line2d_23">
      <path d="M 68.69 72.905269 
L 853.2 72.905269 
" clip-path="url(#p0176026d6e)" style="fill: none; stroke: #b0b0b0; stroke-width: 0.8; stroke-linecap: square"/>
     </g>
     <g id="line2d_24">
      <g>
       <use xlink:href="#ma5ce5db0b1" x="68.69" y="72.905269" style="stroke: #000000; stroke-width: 0.8"/>
      </g>
     </g>
     <g id="text_5">
      <!-- 0.002 -->
      <g transform="translate(33.061875 76.704488) scale(0.1 -0.1)">
       <use xlink:href="#DejaVuSans-30"/>
       <use xlink:href="#DejaVuSans-2e" x="63.623047"/>
       <use xlink:href="#DejaVuSans-30" x="95.410156"/>
       <use xlink:href="#DejaVuSans-30" x="159.033203"/>
       <use xlink:href="#DejaVuSans-32" x="222.65625"/>
      </g>
     </g>
    </g>
    <g id="ytick_6">
     <g id="line2d_25">
      <path d="M 68.69 46.154933 
L 853.2 46.154933 
" clip-path="url(#p0176026d6e)" style="fill: none; stroke: #b0b0b0; stroke-width: 0.8; stroke-linecap: square"/>
     </g>
     <g id="line2d_26">
      <g>
       <use xlink:href="#ma5ce5db0b1" x="68.69" y="46.154933" style="stroke: #000000; stroke-width: 0.8"/>
      </g>
     </g>
     <g id="text_6">
      <!-- 0.003 -->
      <g transform="translate(33.061875 49.954152) scale(0.1 -0.1)">
       <defs>
        <path id="DejaVuSans-33" d="M 2597 2516 
Q 3050 2419 3304 2112 
Q 3559 1806 3559 1356 
Q 3559 666 3084 287 
Q 2609 -91 1734 -91 
Q 1441 -91 1130 -33 
Q 819 25 488 141 
L 488 750 
Q 750 597 1062 519 
Q 1375 441 1716 441 
Q 2309 441 2620 675 
Q 2931 909 2931 1356 
Q 2931 1769 2642 2001 
Q 2353 2234 1838 2234 
L 1294 2234 
L 1294 2753 
L 1863 2753 
Q 2328 2753 2575 2939 
Q 2822 3125 2822 3475 
Q 2822 3834 2567 4026 
Q 2313 4219 1838 4219 
Q 1578 4219 1281 4162 
Q 984 4106 628 3988 
L 628 4550 
Q 988 4650 1302 4700 
Q 1616 4750 1894 4750 
Q 2613 4750 3031 4423 
Q 3450 4097 3450 3541 
Q 3450 3153 3228 2886 
Q 3006 2619 2597 2516 
z
" transform="scale(0.015625)"/>
       </defs>
       <use xlink:href="#DejaVuSans-30"/>
       <use xlink:href="#DejaVuSans-2e" x="63.623047"/>
       <use xlink:href="#DejaVuSans-30" x="95.410156"/>
       <use xlink:href="#DejaVuSans-30" x="159.033203"/>
       <use xlink:href="#DejaVuSans-33" x="222.65625"/>
      </g>
     </g>
    </g>
    <g id="text_7">
     <!-- Error X (m) -->
     <g transform="translate(18.6025 140.2298) rotate(-90) scale(0.1 -0.1)">
      <defs>
       <path id="DejaVuSans-45" d="M 628 4666 
L 3578 4666 
L 3578 4134 
L 1259 4134 
L 1259 2753 
L 3481 2753 
L 3481 2222 
L 1259 2222 
L 1259 531 
L 3634 531 
L 3634 0 
L 628 0 
L 628 4666 
z
" transform="scale(0.015625)"/>
       <path id="DejaVuSans-72" d="M 2631 2963 
Q 2534 3019 2420 3045 
Q 2306 3072 2169 3072 
Q 1681 3072 1420 2755 
Q 1159 2438 1159 1844 
L 1159 0 
L 581 0 
L 581 3500 
L 1159 3500 
L 1159 2956 
Q 1341 3275 1631 3429 
Q 1922 3584 2338 3584 
Q 2397 3584 2469 3576 
Q 2541 3569 2628 3553 
L 2631 2963 
z
" transform="scale(0.015625)"/>
       <path id="DejaVuSans-6f" d="M 1959 3097 
Q 1497 3097 1228 2736 
Q 959 2375 959 1747 
Q 959 1119 1226 758 
Q 1494 397 1959 397 
Q 2419 397 2687 759 
Q 2956 1122 2956 1747 
Q 2956 2369 2687 2733 
Q 2419 3097 1959 3097 
z
M 1959 3584 
Q 2709 3584 3137 3096 
Q 3566 2609 3566 1747 
Q 3566 888 3137 398 
Q 2709 -91 1959 -91 
Q 1206 -91 779 398 
Q 353 888 353 1747 
Q 353 2609 779 3096 
Q 1206 3584 1959 3584 
z
" transform="scale(0.015625)"/>
       <path id="DejaVuSans-20" transform="scale(0.015625)"/>
       <path id="DejaVuSans-58" d="M 403 4666 
L 1081 4666 
L 2241 2931 
L 3406 4666 
L 4084 4666 
L 2584 2425 
L 4184 0 
L 3506 0 
L 2194 1984 
L 872 0 
L 191 0 
L 1856 2491 
L 403 4666 
z
" transform="scale(0.015625)"/>
       <path id="DejaVuSans-28" d="M 1984 4856 
Q 1566 4138 1362 3434 
Q 1159 2731 1159 2009 
Q 1159 1288 1364 580 
Q 1569 -128 1984 -844 
L 1484 -844 
Q 1016 -109 783 600 
Q 550 1309 550 2009 
Q 550 2706 781 3412 
Q 1013 4119 1484 4856 
L 1984 4856 
z
" transform="scale(0.015625)"/>
       <path id="DejaVuSans-6d" d="M 3328 2828 
Q 3544 3216 3844 3400 
Q 4144 3584 4550 3584 
Q 5097 3584 5394 3201 
Q 5691 2819 5691 2113 
L 5691 0 
L 5113 0 
L 5113 2094 
Q 5113 2597 4934 2840 
Q 4756 3084 4391 3084 
Q 3944 3084 3684 2787 
Q 3425 2491 3425 1978 
L 3425 0 
L 2847 0 
L 2847 2094 
Q 2847 2600 2669 2842 
Q 2491 3084 2119 3084 
Q 1678 3084 1418 2786 
Q 1159 2488 1159 1978 
L 1159 0 
L 581 0 
L 581 3500 
L 1159 3500 
L 1159 2956 
Q 1356 3278 1631 3431 
Q 1906 3584 2284 3584 
Q 2666 3584 2933 3390 
Q 3200 3197 3328 2828 
z
" transform="scale(0.015625)"/>
       <path id="DejaVuSans-29" d="M 513 4856 
L 1013 4856 
Q 1481 4119 1714 3412 
Q 1947 2706 1947 2009 
Q 1947 1309 1714 600 
Q 1481 -109 1013 -844 
L 513 -844 
Q 928 -128 1133 580 
Q 1338 1288 1338 2009 
Q 1338 2731 1133 3434 
Q 928 4138 513 4856 
z
" transform="scale(0.015625)"/>
      </defs>
      <use xlink:href="#DejaVuSans-45"/>
      <use xlink:href="#DejaVuSans-72" x="63.183594"/>
      <use xlink:href="#DejaVuSans-72" x="102.546875"/>
      <use xlink:href="#DejaVuSans-6f" x="141.410156"/>
      <use xlink:href="#DejaVuSans-72" x="202.591797"/>
      <use xlink:href="#DejaVuSans-20" x="243.705078"/>
      <use xlink:href="#DejaVuSans-58" x="275.492188"/>
      <use xlink:href="#DejaVuSans-20" x="343.998047"/>
      <use xlink:href="#DejaVuSans-28" x="375.785156"/>
      <use xlink:href="#DejaVuSans-6d" x="414.798828"/>
      <use xlink:href="#DejaVuSans-29" x="512.210938"/>
     </g>
    </g>
   </g>
   <g id="line2d_27">
    <path d="M 104.349545 144.061163 
L 105.576319 143.79366 
L 106.803092 143.900661 
L 108.029866 143.445906 
L 110.483413 144.489169 
L 111.710186 144.355417 
L 112.93696 143.686659 
L 114.163733 145.318429 
L 115.390507 143.338904 
L 117.844054 145.585933 
L 119.070827 144.141414 
L 120.297601 144.783422 
L 121.524374 143.927412 
L 123.977921 143.552907 
L 125.204695 144.836923 
L 126.431468 142.937649 
L 127.658242 142.402643 
L 128.885015 143.312154 
L 130.111789 145.39868 
L 131.338562 144.649671 
L 132.565336 142.108389 
L 133.792109 142.589895 
L 135.018883 143.419155 
L 137.47243 144.810173 
L 138.699204 143.686659 
L 139.925977 144.168165 
L 141.152751 143.044651 
L 142.379524 143.980912 
L 143.606298 143.606408 
L 146.059845 143.713409 
L 147.286618 143.82041 
L 148.513392 144.756672 
L 149.740165 144.248416 
L 150.966939 143.231903 
L 152.193712 143.258653 
L 153.420486 144.301916 
L 154.647259 144.917174 
L 155.874033 145.987188 
L 157.100806 144.649671 
L 158.32758 147.699209 
L 159.554353 148.742472 
L 162.0079 147.645708 
L 163.234674 144.917174 
L 164.461447 142.910899 
L 165.688221 140.342867 
L 166.914994 139.00535 
L 168.141768 138.737846 
L 169.368541 143.445906 
L 170.595315 149.919487 
L 171.822088 152.54102 
L 173.048862 142.028138 
L 174.275635 144.836923 
L 175.502409 144.649671 
L 176.729182 144.970675 
L 177.955956 143.445906 
L 179.182729 144.435668 
L 180.409503 146.843198 
L 181.636276 146.548945 
L 182.86305 143.927412 
L 185.316597 139.914861 
L 186.54337 140.797622 
L 187.770144 143.312154 
L 188.996917 141.974637 
L 190.223691 141.546632 
L 191.450464 141.519881 
L 192.677238 141.118626 
L 195.130785 139.647358 
L 196.357558 139.513606 
L 197.584332 138.844848 
L 198.811105 139.139102 
L 200.037879 139.754359 
L 201.264652 142.670146 
L 202.491426 142.081638 
L 204.944973 141.225628 
L 206.171746 140.155614 
L 207.39852 140.128864 
L 209.852067 143.499406 
L 211.07884 141.787385 
L 212.305614 140.58362 
L 213.532387 140.235865 
L 214.759161 142.18864 
L 215.985934 141.867636 
L 217.212708 140.262616 
L 218.439481 139.620608 
L 219.666255 138.630845 
L 220.893028 139.165852 
L 222.119802 140.63712 
L 225.800122 143.205153 
L 227.026896 142.937649 
L 228.253669 143.151652 
L 229.480443 142.536394 
L 230.707216 142.910899 
L 231.93399 141.653633 
L 233.160763 140.770872 
L 234.387537 140.851123 
L 235.61431 139.139102 
L 236.841084 138.20284 
L 238.067857 137.721334 
L 239.294631 137.641083 
L 240.521404 136.62457 
L 242.974951 135.87556 
L 244.201725 135.07305 
L 245.428498 133.601782 
L 246.655272 133.173777 
L 247.882045 137.641083 
L 249.108819 141.118626 
L 250.335592 141.279128 
L 251.562366 141.626883 
L 252.789139 140.877873 
L 254.015913 140.449868 
L 255.242686 138.711096 
L 256.46946 137.40033 
L 257.696233 138.25634 
L 258.923007 137.774834 
L 260.14978 137.132826 
L 262.603327 136.169814 
L 263.830101 136.811822 
L 265.056874 148.501719 
L 266.283648 149.919487 
L 267.510421 149.946237 
L 268.737195 151.604758 
L 269.963968 150.748747 
L 271.190742 150.427743 
L 272.417515 152.728272 
L 273.644289 152.701522 
L 276.097836 154.895049 
L 277.324609 156.125565 
L 278.551383 154.94855 
L 279.778156 154.9218 
L 282.231703 155.858062 
L 283.458477 156.098815 
L 284.68525 156.901325 
L 285.912024 157.917837 
L 287.138797 160.298617 
L 288.365571 160.860374 
L 289.592344 159.389106 
L 290.819118 158.773848 
L 292.045891 158.586596 
L 293.272665 157.917837 
L 294.499438 156.55357 
L 295.726212 155.991813 
L 296.952985 156.473319 
L 298.179759 155.75106 
L 300.633306 153.156278 
L 301.860079 154.306542 
L 303.086853 150.588245 
L 304.313626 150.293992 
L 305.5404 149.678734 
L 306.767173 152.487519 
L 307.993947 156.901325 
L 309.22072 158.827349 
L 310.447494 160.459119 
L 311.674267 158.452844 
L 312.901041 158.292342 
L 314.127814 155.777811 
L 315.354588 158.212091 
L 316.581361 157.757335 
L 317.808135 157.061827 
L 319.034908 159.763611 
L 320.261682 159.71011 
L 321.488455 159.469357 
L 322.715229 158.051589 
L 323.942002 154.467044 
L 325.168776 158.345843 
L 326.395549 159.629859 
L 327.622323 155.884812 
L 328.849096 159.175103 
L 330.07587 156.874574 
L 331.302643 158.15859 
L 332.529417 159.817111 
L 333.75619 157.061827 
L 334.982964 155.296305 
L 336.209737 154.574045 
L 337.436511 154.17279 
L 338.663284 153.290029 
L 339.890058 153.129527 
L 341.116831 153.557533 
L 342.343605 152.193266 
L 343.570378 150.427743 
L 344.797152 149.143727 
L 346.023925 152.220016 
L 347.250699 157.757335 
L 348.477472 162.358393 
L 349.704246 161.101127 
L 350.931019 160.699872 
L 352.157793 160.432369 
L 353.384566 156.767573 
L 354.61134 154.279792 
L 357.064887 157.917837 
L 358.29166 156.366318 
L 359.518434 155.376556 
L 360.745207 155.72431 
L 361.971981 156.633821 
L 363.198754 154.94855 
L 364.425528 153.851786 
L 365.652301 153.611033 
L 366.879075 151.711759 
L 368.105848 153.530782 
L 369.332622 159.014601 
L 370.559395 167.788711 
L 371.786169 165.916188 
L 373.012942 165.220679 
L 374.239716 161.261629 
L 375.466489 159.576358 
L 376.693263 158.426094 
L 377.920036 158.051589 
L 379.14681 161.020876 
L 380.373583 160.780123 
L 381.600357 158.533095 
L 382.82713 157.971338 
L 384.053904 155.858062 
L 385.280677 154.092539 
L 386.507451 153.450531 
L 387.734224 150.213741 
L 388.960998 146.361692 
L 390.187771 153.34353 
L 391.414545 154.306542 
L 392.641318 153.183028 
L 393.868092 151.337255 
L 397.548412 148.501719 
L 398.775186 148.234216 
L 400.001959 148.153965 
L 401.228733 148.528469 
L 403.68228 145.024175 
L 404.909053 148.528469 
L 406.135827 149.277479 
L 407.3626 150.748747 
L 408.589374 152.862024 
L 409.816147 153.611033 
L 411.042921 151.952512 
L 412.269694 149.651984 
L 413.496468 148.715722 
L 414.723241 146.789698 
L 415.950015 148.474969 
L 417.176788 151.925762 
L 418.403562 152.113015 
L 419.630335 154.440294 
L 420.857109 152.380518 
L 422.083882 150.079989 
L 424.537429 146.254691 
L 426.990976 147.324704 
L 428.21775 145.746435 
L 429.444523 147.217703 
L 430.671297 145.692934 
L 431.89807 145.612683 
L 434.351617 144.355417 
L 435.578391 145.478931 
L 436.805164 144.087914 
L 438.031938 144.007663 
L 439.258711 143.071401 
L 440.485485 142.295641 
L 441.712258 142.028138 
L 442.939032 141.091876 
L 444.165805 140.58362 
L 445.392579 140.690621 
L 447.846126 139.192602 
L 449.072899 139.326354 
L 450.299673 138.283091 
L 451.526446 136.196565 
L 452.75322 135.233552 
L 453.979993 132.184014 
L 456.43354 131.675758 
L 457.660314 133.46803 
L 458.887087 135.01955 
L 460.113861 137.40033 
L 461.340634 137.106076 
L 462.567408 138.630845 
L 463.794181 136.918824 
L 465.020955 137.42708 
L 467.474502 140.851123 
L 468.701275 141.921136 
L 469.928049 142.830648 
L 471.154822 142.884149 
L 472.381596 143.365655 
L 473.608369 141.894386 
L 474.835143 143.76691 
L 476.061916 143.285404 
L 478.515463 142.589895 
L 479.742237 142.777147 
L 480.96901 146.709447 
L 482.195784 147.458456 
L 483.422557 147.057201 
L 484.649331 144.970675 
L 485.876104 143.499406 
L 487.102878 147.832961 
L 488.329651 148.688971 
L 489.556425 147.538707 
L 490.783198 145.906937 
L 492.009972 149.732235 
L 493.236745 151.604758 
L 494.463519 147.886461 
L 495.690293 148.260966 
L 496.917066 149.036726 
L 498.14384 151.176753 
L 499.370613 149.143727 
L 501.82416 147.057201 
L 503.050934 150.96275 
L 504.277707 148.742472 
L 505.504481 147.859711 
L 506.731254 150.400993 
L 507.958028 150.909249 
L 509.184801 151.123252 
L 510.411575 149.946237 
L 511.638348 149.919487 
L 512.865122 150.16024 
L 514.091895 149.678734 
L 515.318669 148.394718 
L 516.545442 148.58197 
L 517.772216 150.320742 
L 518.998989 147.190953 
L 520.225763 146.281441 
L 521.452536 148.60872 
L 522.67931 147.485206 
L 523.906083 150.9895 
L 525.132857 147.378205 
L 527.586404 149.785735 
L 528.813177 149.919487 
L 531.266724 147.485206 
L 532.493498 147.511957 
L 533.720271 148.501719 
L 534.947045 149.170478 
L 536.173818 149.090227 
L 537.400592 149.518232 
L 538.627365 149.33098 
L 541.080912 145.826686 
L 542.307686 144.836923 
L 543.534459 144.943924 
L 545.988006 143.980912 
L 547.21478 143.338904 
L 548.441553 142.24214 
L 549.668327 151.497757 
L 550.8951 150.936 
L 552.121874 152.56777 
L 553.348647 149.544982 
L 554.575421 148.795973 
L 555.802194 149.250729 
L 557.028968 148.501719 
L 558.255741 146.709447 
L 559.482515 147.77946 
L 560.709288 149.705484 
L 563.162835 147.77946 
L 564.389609 147.75271 
L 565.616382 147.859711 
L 566.843156 147.725959 
L 568.069929 146.468694 
L 569.296703 147.351455 
L 570.523476 145.104426 
L 571.75025 147.993463 
L 572.977023 147.672459 
L 574.203797 146.20119 
L 576.657344 149.33098 
L 579.110891 148.421468 
L 581.564438 146.361692 
L 582.791211 145.024175 
L 584.017985 144.649671 
L 585.244758 144.890424 
L 586.471532 144.087914 
L 587.698305 142.9644 
L 588.925079 141.680383 
L 590.151852 140.075363 
L 591.378626 140.128864 
L 592.605399 138.604095 
L 593.832173 139.647358 
L 595.058946 141.707134 
L 596.28572 145.264928 
L 597.512493 143.713409 
L 598.739267 144.489169 
L 599.96604 142.322391 
L 601.192814 142.161889 
L 602.419587 143.79366 
L 603.646361 144.435668 
L 604.873134 145.37193 
L 606.099908 144.355417 
L 607.326681 144.515919 
L 608.553455 144.863673 
L 609.780228 144.355417 
L 611.007002 145.131177 
L 612.233775 143.900661 
L 613.460549 143.847161 
L 614.687322 144.56942 
L 615.914096 145.559182 
L 617.140869 144.890424 
L 618.367643 146.094189 
L 619.594416 145.960437 
L 620.82119 145.639433 
L 622.047963 144.890424 
L 624.50151 144.034413 
L 625.728284 145.559182 
L 626.955057 145.505681 
L 628.181831 145.050926 
L 629.408604 144.435668 
L 631.862151 144.970675 
L 633.088925 146.762947 
L 635.542472 143.472656 
L 636.769245 144.62292 
L 637.996019 143.82041 
L 639.222792 145.024175 
L 640.449566 145.906937 
L 641.676339 144.62292 
L 642.903113 144.56942 
L 644.129886 142.482894 
L 645.35666 145.184677 
L 646.583433 143.124902 
L 647.810207 142.99115 
L 649.03698 143.098151 
L 650.263754 144.836923 
L 651.490527 145.050926 
L 652.717301 147.217703 
L 653.944074 143.873911 
L 655.170848 145.318429 
L 656.397621 144.007663 
L 657.624395 142.135139 
L 658.851168 139.647358 
L 660.077942 142.9644 
L 661.304715 144.997425 
L 662.531489 152.220016 
L 663.758262 146.094189 
L 664.985036 146.923449 
L 666.211809 146.013938 
L 667.438583 141.733884 
L 668.665356 138.657595 
L 669.89213 139.83461 
L 671.118903 144.141414 
L 672.345677 147.80621 
L 673.57245 145.933687 
L 674.799224 142.135139 
L 676.025997 143.686659 
L 677.252771 138.844848 
L 678.479544 137.721334 
L 679.706318 138.978599 
L 680.933091 138.844848 
L 682.159865 148.501719 
L 683.386638 142.830648 
L 684.613412 143.579657 
L 685.840185 141.814135 
L 687.066959 136.972324 
L 688.293732 135.099801 
L 689.520506 136.223315 
L 690.747279 137.962087 
L 691.974053 149.197228 
L 693.200826 140.396367 
L 694.4276 142.001387 
L 695.654373 148.314467 
L 696.881147 141.546632 
L 698.10792 144.62292 
L 699.334694 138.470343 
L 700.561467 129.48223 
L 701.788241 143.392405 
L 703.015014 137.186327 
L 704.241788 137.534081 
L 705.468561 153.744785 
L 706.695335 142.750397 
L 707.922108 136.357067 
L 709.148882 137.507331 
L 710.375655 118.273839 
L 711.602429 118.273839 
L 712.829202 122.821396 
L 714.055976 121.323378 
L 715.282749 132.184014 
L 716.509523 135.795309 
L 717.736296 132.103763 
L 718.96307 130.150989 
L 720.189843 106.102436 
L 721.416617 106.236188 
L 722.64339 108.964722 
L 723.870164 112.76327 
L 725.096937 142.375892 
L 726.323711 141.707134 
L 728.777258 126.593194 
L 730.004031 91.202499 
L 731.230805 92.727268 
L 732.457578 101.340877 
L 733.684352 108.483216 
L 734.911125 155.75106 
L 736.137899 138.443593 
L 737.364672 130.659245 
L 738.591446 128.733221 
L 739.818219 83.578653 
L 741.044993 90.399989 
L 742.271766 96.552566 
L 743.49854 108.483216 
L 744.725313 151.016251 
L 745.952087 149.544982 
L 747.17886 147.618958 
L 748.405634 131.221002 
L 749.632407 87.858707 
L 750.859181 84.86267 
L 752.085954 94.920796 
L 753.312728 113.244776 
L 754.539501 157.088577 
L 755.766275 165.541683 
L 756.993048 156.473319 
L 758.219822 132.130513 
L 759.446595 104.604418 
L 760.673369 86.868945 
L 761.900142 81.117622 
L 763.126916 104.738169 
L 764.353689 173.192279 
L 765.580463 183.678411 
L 766.807236 173.379532 
L 768.03401 152.353768 
L 769.260783 120.039362 
L 770.487557 100.05686 
L 771.71433 113.244776 
L 772.941104 123.91816 
L 774.167877 178.863351 
L 775.394651 182.180392 
L 776.621424 172.229267 
L 777.848198 157.623584 
L 774.518195 87.698205 
L 775.744968 41.660877 
L 776.971742 95.910558 
L 778.198515 116.214063 
L 779.425289 177.766587 
L 780.652062 171.373257 
L 781.878836 173.165529 
L 783.105609 159.629859 
L 784.332383 102.330639 
L 785.559156 94.653293 
L 786.78593 125.148676 
L 788.012703 134.752046 
L 789.239477 180.869626 
L 790.46625 162.86665 
L 791.693024 163.321405 
L 792.919797 156.767573 
L 794.146571 128.70647 
L 795.373344 129.776484 
L 796.600118 132.371266 
L 797.826891 136.918824 
L 799.053665 166.317443 
L 800.280438 151.150002 
L 801.507212 155.991813 
L 802.733985 151.872261 
L 803.960759 138.577344 
L 805.187532 140.449868 
L 806.414306 139.754359 
L 807.641079 140.770872 
L 808.867853 151.230253 
L 810.094626 145.666184 
L 811.3214 146.575695 
L 812.548173 146.20119 
L 813.774947 143.847161 
L 815.00172 144.275166 
L 815.371691 143.392405 
L 814.197497 142.670146 
L 811.406587 145.960437 
L 812.633361 143.82041 
L 813.860134 145.37193 
L 816.313681 145.880186 
L 817.540455 145.157927 
L 817.540455 145.157927 
" clip-path="url(#p0176026d6e)" style="fill: none; stroke: #1f77b4; stroke-width: 1.5; stroke-linecap: square"/>
   </g>
   <g id="line2d_28">
    <path d="M 717.736296 190.779288 
L 717.736296 34.56 
" clip-path="url(#p0176026d6e)" style="fill: none; stroke: #ff0000; stroke-opacity: 0.6; stroke-width: 0.8; stroke-linecap: square"/>
   </g>
   <g id="patch_3">
    <path d="M 68.69 190.779288 
L 68.69 34.56 
" style="fill: none; stroke: #000000; stroke-width: 0.8; stroke-linejoin: miter; stroke-linecap: square"/>
   </g>
   <g id="patch_4">
    <path d="M 853.2 190.779288 
L 853.2 34.56 
" style="fill: none; stroke: #000000; stroke-width: 0.8; stroke-linejoin: miter; stroke-linecap: square"/>
   </g>
   <g id="patch_5">
    <path d="M 68.69 190.779288 
L 853.2 190.779288 
" style="fill: none; stroke: #000000; stroke-width: 0.8; stroke-linejoin: miter; stroke-linecap: square"/>
   </g>
   <g id="patch_6">
    <path d="M 68.69 34.56 
L 853.2 34.56 
" style="fill: none; stroke: #000000; stroke-width: 0.8; stroke-linejoin: miter; stroke-linecap: square"/>
   </g>
   <g id="text_8">
    <!-- icp_x=1.217 -->
    <g style="fill: #ff0000" transform="translate(668.950203 78.614822) scale(0.07 -0.07)">
     <defs>
      <path id="DejaVuSans-69" d="M 603 3500 
L 1178 3500 
L 1178 0 
L 603 0 
L 603 3500 
z
M 603 4863 
L 1178 4863 
L 1178 4134 
L 603 4134 
L 603 4863 
z
" transform="scale(0.015625)"/>
      <path id="DejaVuSans-63" d="M 3122 3366 
L 3122 2828 
Q 2878 2963 2633 3030 
Q 2388 3097 2138 3097 
Q 1578 3097 1268 2742 
Q 959 2388 959 1747 
Q 959 1106 1268 751 
Q 1578 397 2138 397 
Q 2388 397 2633 464 
Q 2878 531 3122 666 
L 3122 134 
Q 2881 22 2623 -34 
Q 2366 -91 2075 -91 
Q 1284 -91 818 406 
Q 353 903 353 1747 
Q 353 2603 823 3093 
Q 1294 3584 2113 3584 
Q 2378 3584 2631 3529 
Q 2884 3475 3122 3366 
z
" transform="scale(0.015625)"/>
      <path id="DejaVuSans-70" d="M 1159 525 
L 1159 -1331 
L 581 -1331 
L 581 3500 
L 1159 3500 
L 1159 2969 
Q 1341 3281 1617 3432 
Q 1894 3584 2278 3584 
Q 2916 3584 3314 3078 
Q 3713 2572 3713 1747 
Q 3713 922 3314 415 
Q 2916 -91 2278 -91 
Q 1894 -91 1617 61 
Q 1341 213 1159 525 
z
M 3116 1747 
Q 3116 2381 2855 2742 
Q 2594 3103 2138 3103 
Q 1681 3103 1420 2742 
Q 1159 2381 1159 1747 
Q 1159 1113 1420 752 
Q 1681 391 2138 391 
Q 2594 391 2855 752 
Q 3116 1113 3116 1747 
z
" transform="scale(0.015625)"/>
      <path id="DejaVuSans-5f" d="M 3263 -1063 
L 3263 -1509 
L -63 -1509 
L -63 -1063 
L 3263 -1063 
z
" transform="scale(0.015625)"/>
      <path id="DejaVuSans-78" d="M 3513 3500 
L 2247 1797 
L 3578 0 
L 2900 0 
L 1881 1375 
L 863 0 
L 184 0 
L 1544 1831 
L 300 3500 
L 978 3500 
L 1906 2253 
L 2834 3500 
L 3513 3500 
z
" transform="scale(0.015625)"/>
      <path id="DejaVuSans-3d" d="M 678 2906 
L 4684 2906 
L 4684 2381 
L 678 2381 
L 678 2906 
z
M 678 1631 
L 4684 1631 
L 4684 1100 
L 678 1100 
L 678 1631 
z
" transform="scale(0.015625)"/>
      <path id="DejaVuSans-37" d="M 525 4666 
L 3525 4666 
L 3525 4397 
L 1831 0 
L 1172 0 
L 2766 4134 
L 525 4134 
L 525 4666 
z
" transform="scale(0.015625)"/>
     </defs>
     <use xlink:href="#DejaVuSans-69"/>
     <use xlink:href="#DejaVuSans-63" x="27.783203"/>
     <use xlink:href="#DejaVuSans-70" x="82.763672"/>
     <use xlink:href="#DejaVuSans-5f" x="146.240234"/>
     <use xlink:href="#DejaVuSans-78" x="196.240234"/>
     <use xlink:href="#DejaVuSans-3d" x="255.419922"/>
     <use xlink:href="#DejaVuSans-31" x="339.208984"/>
     <use xlink:href="#DejaVuSans-2e" x="402.832031"/>
     <use xlink:href="#DejaVuSans-32" x="434.619141"/>
     <use xlink:href="#DejaVuSans-31" x="498.242188"/>
     <use xlink:href="#DejaVuSans-37" x="561.865234"/>
    </g>
   </g>
  </g>
  <g id="axes_2">
   <g id="patch_7">
    <path d="M 68.69 362.409644 
L 853.2 362.409644 
L 853.2 206.190356 
L 68.69 206.190356 
z
" style="fill: #ffffff"/>
   </g>
   <g id="matplotlib.axis_3">
    <g id="xtick_8">
     <g id="line2d_29">
      <path d="M 104.349545 362.409644 
L 104.349545 206.190356 
" clip-path="url(#p0e7240c4bb)" style="fill: none; stroke: #b0b0b0; stroke-width: 0.8; stroke-linecap: square"/>
     </g>
     <g id="line2d_30">
      <g>
       <use xlink:href="#m73bf6c73ce" x="104.349545" y="362.409644" style="stroke: #000000; stroke-width: 0.8"/>
      </g>
     </g>
    </g>
    <g id="xtick_9">
     <g id="line2d_31">
      <path d="M 227.026896 362.409644 
L 227.026896 206.190356 
" clip-path="url(#p0e7240c4bb)" style="fill: none; stroke: #b0b0b0; stroke-width: 0.8; stroke-linecap: square"/>
     </g>
     <g id="line2d_32">
      <g>
       <use xlink:href="#m73bf6c73ce" x="227.026896" y="362.409644" style="stroke: #000000; stroke-width: 0.8"/>
      </g>
     </g>
    </g>
    <g id="xtick_10">
     <g id="line2d_33">
      <path d="M 349.704246 362.409644 
L 349.704246 206.190356 
" clip-path="url(#p0e7240c4bb)" style="fill: none; stroke: #b0b0b0; stroke-width: 0.8; stroke-linecap: square"/>
     </g>
     <g id="line2d_34">
      <g>
       <use xlink:href="#m73bf6c73ce" x="349.704246" y="362.409644" style="stroke: #000000; stroke-width: 0.8"/>
      </g>
     </g>
    </g>
    <g id="xtick_11">
     <g id="line2d_35">
      <path d="M 472.381596 362.409644 
L 472.381596 206.190356 
" clip-path="url(#p0e7240c4bb)" style="fill: none; stroke: #b0b0b0; stroke-width: 0.8; stroke-linecap: square"/>
     </g>
     <g id="line2d_36">
      <g>
       <use xlink:href="#m73bf6c73ce" x="472.381596" y="362.409644" style="stroke: #000000; stroke-width: 0.8"/>
      </g>
     </g>
    </g>
    <g id="xtick_12">
     <g id="line2d_37">
      <path d="M 595.058946 362.409644 
L 595.058946 206.190356 
" clip-path="url(#p0e7240c4bb)" style="fill: none; stroke: #b0b0b0; stroke-width: 0.8; stroke-linecap: square"/>
     </g>
     <g id="line2d_38">
      <g>
       <use xlink:href="#m73bf6c73ce" x="595.058946" y="362.409644" style="stroke: #000000; stroke-width: 0.8"/>
      </g>
     </g>
    </g>
    <g id="xtick_13">
     <g id="line2d_39">
      <path d="M 717.736296 362.409644 
L 717.736296 206.190356 
" clip-path="url(#p0e7240c4bb)" style="fill: none; stroke: #b0b0b0; stroke-width: 0.8; stroke-linecap: square"/>
     </g>
     <g id="line2d_40">
      <g>
       <use xlink:href="#m73bf6c73ce" x="717.736296" y="362.409644" style="stroke: #000000; stroke-width: 0.8"/>
      </g>
     </g>
    </g>
    <g id="xtick_14">
     <g id="line2d_41">
      <path d="M 840.413646 362.409644 
L 840.413646 206.190356 
" clip-path="url(#p0e7240c4bb)" style="fill: none; stroke: #b0b0b0; stroke-width: 0.8; stroke-linecap: square"/>
     </g>
     <g id="line2d_42">
      <g>
       <use xlink:href="#m73bf6c73ce" x="840.413646" y="362.409644" style="stroke: #000000; stroke-width: 0.8"/>
      </g>
     </g>
    </g>
   </g>
   <g id="matplotlib.axis_4">
    <g id="ytick_7">
     <g id="line2d_43">
      <path d="M 68.69 336.520236 
L 853.2 336.520236 
" clip-path="url(#p0e7240c4bb)" style="fill: none; stroke: #b0b0b0; stroke-width: 0.8; stroke-linecap: square"/>
     </g>
     <g id="line2d_44">
      <g>
       <use xlink:href="#ma5ce5db0b1" x="68.69" y="336.520236" style="stroke: #000000; stroke-width: 0.8"/>
      </g>
     </g>
     <g id="text_9">
      <!-- −0.3 -->
      <g transform="translate(37.407187 340.319455) scale(0.1 -0.1)">
       <use xlink:href="#DejaVuSans-2212"/>
       <use xlink:href="#DejaVuSans-30" x="83.789062"/>
       <use xlink:href="#DejaVuSans-2e" x="147.412109"/>
       <use xlink:href="#DejaVuSans-33" x="179.199219"/>
      </g>
     </g>
    </g>
    <g id="ytick_8">
     <g id="line2d_45">
      <path d="M 68.69 294.214207 
L 853.2 294.214207 
" clip-path="url(#p0e7240c4bb)" style="fill: none; stroke: #b0b0b0; stroke-width: 0.8; stroke-linecap: square"/>
     </g>
     <g id="line2d_46">
      <g>
       <use xlink:href="#ma5ce5db0b1" x="68.69" y="294.214207" style="stroke: #000000; stroke-width: 0.8"/>
      </g>
     </g>
     <g id="text_10">
      <!-- −0.2 -->
      <g transform="translate(37.407187 298.013425) scale(0.1 -0.1)">
       <use xlink:href="#DejaVuSans-2212"/>
       <use xlink:href="#DejaVuSans-30" x="83.789062"/>
       <use xlink:href="#DejaVuSans-2e" x="147.412109"/>
       <use xlink:href="#DejaVuSans-32" x="179.199219"/>
      </g>
     </g>
    </g>
    <g id="ytick_9">
     <g id="line2d_47">
      <path d="M 68.69 251.908177 
L 853.2 251.908177 
" clip-path="url(#p0e7240c4bb)" style="fill: none; stroke: #b0b0b0; stroke-width: 0.8; stroke-linecap: square"/>
     </g>
     <g id="line2d_48">
      <g>
       <use xlink:href="#ma5ce5db0b1" x="68.69" y="251.908177" style="stroke: #000000; stroke-width: 0.8"/>
      </g>
     </g>
     <g id="text_11">
      <!-- −0.1 -->
      <g transform="translate(37.407187 255.707396) scale(0.1 -0.1)">
       <use xlink:href="#DejaVuSans-2212"/>
       <use xlink:href="#DejaVuSans-30" x="83.789062"/>
       <use xlink:href="#DejaVuSans-2e" x="147.412109"/>
       <use xlink:href="#DejaVuSans-31" x="179.199219"/>
      </g>
     </g>
    </g>
    <g id="ytick_10">
     <g id="line2d_49">
      <path d="M 68.69 209.602147 
L 853.2 209.602147 
" clip-path="url(#p0e7240c4bb)" style="fill: none; stroke: #b0b0b0; stroke-width: 0.8; stroke-linecap: square"/>
     </g>
     <g id="line2d_50">
      <g>
       <use xlink:href="#ma5ce5db0b1" x="68.69" y="209.602147" style="stroke: #000000; stroke-width: 0.8"/>
      </g>
     </g>
     <g id="text_12">
      <!-- 0.0 -->
      <g transform="translate(45.786875 213.401366) scale(0.1 -0.1)">
       <use xlink:href="#DejaVuSans-30"/>
       <use xlink:href="#DejaVuSans-2e" x="63.623047"/>
       <use xlink:href="#DejaVuSans-30" x="95.410156"/>
      </g>
     </g>
    </g>
    <g id="text_13">
     <!-- Error Y (m) -->
     <g transform="translate(31.3275 311.489062) rotate(-90) scale(0.1 -0.1)">
      <defs>
       <path id="DejaVuSans-59" d="M -13 4666 
L 666 4666 
L 1959 2747 
L 3244 4666 
L 3922 4666 
L 2272 2222 
L 2272 0 
L 1638 0 
L 1638 2222 
L -13 4666 
z
" transform="scale(0.015625)"/>
      </defs>
      <use xlink:href="#DejaVuSans-45"/>
      <use xlink:href="#DejaVuSans-72" x="63.183594"/>
      <use xlink:href="#DejaVuSans-72" x="102.546875"/>
      <use xlink:href="#DejaVuSans-6f" x="141.410156"/>
      <use xlink:href="#DejaVuSans-72" x="202.591797"/>
      <use xlink:href="#DejaVuSans-20" x="243.705078"/>
      <use xlink:href="#DejaVuSans-59" x="275.492188"/>
      <use xlink:href="#DejaVuSans-20" x="336.576172"/>
      <use xlink:href="#DejaVuSans-28" x="368.363281"/>
      <use xlink:href="#DejaVuSans-6d" x="407.376953"/>
      <use xlink:href="#DejaVuSans-29" x="504.789062"/>
     </g>
    </g>
   </g>
   <g id="line2d_51">
    <path d="M 104.349545 213.311963 
L 114.163733 213.435919 
L 116.61728 213.589067 
L 117.844054 213.528993 
L 121.524374 213.669449 
L 122.751148 213.614451 
L 125.204695 213.83825 
L 128.885015 213.749407 
L 131.338562 213.800597 
L 135.018883 213.723177 
L 141.152751 213.850942 
L 142.379524 213.64745 
L 144.833071 213.80229 
L 147.286618 213.65718 
L 150.966939 213.725716 
L 152.193712 213.526454 
L 154.647259 213.66691 
L 155.874033 213.591606 
L 157.100806 214.151737 
L 158.32758 214.906054 
L 159.554353 215.298654 
L 160.781127 215.370997 
L 164.461447 216.256462 
L 165.688221 216.161697 
L 166.914994 216.376612 
L 168.141768 216.955358 
L 169.368541 217.2625 
L 170.595315 216.759481 
L 171.822088 217.091583 
L 173.048862 217.146158 
L 174.275635 217.324267 
L 175.502409 217.143197 
L 176.729182 217.240501 
L 177.955956 217.612371 
L 179.182729 217.694867 
L 180.409503 217.114006 
L 181.636276 217.159696 
L 182.86305 217.4423 
L 184.089823 217.557796 
L 185.316597 217.333151 
L 186.54337 217.377149 
L 187.770144 217.661446 
L 188.996917 217.769749 
L 190.223691 217.233309 
L 191.450464 217.341189 
L 192.677238 217.946165 
L 195.130785 217.491375 
L 196.357558 217.815017 
L 197.584332 217.98974 
L 198.811105 218.312959 
L 200.037879 218.029508 
L 201.264652 217.989317 
L 202.491426 218.428877 
L 203.718199 218.401801 
L 204.944973 217.637331 
L 206.171746 217.558642 
L 207.39852 217.947011 
L 208.625293 218.174195 
L 209.852067 217.922051 
L 211.07884 217.883552 
L 213.532387 218.511797 
L 214.759161 217.983395 
L 215.985934 218.195771 
L 217.212708 218.697097 
L 219.666255 218.514335 
L 220.893028 219.025815 
L 222.119802 218.659868 
L 223.346575 217.97451 
L 224.573349 217.597564 
L 227.026896 217.362765 
L 228.253669 217.477414 
L 229.480443 217.208771 
L 230.707216 217.082276 
L 231.93399 217.542566 
L 233.160763 218.14035 
L 234.387537 218.318881 
L 236.841084 220.095312 
L 238.067857 221.098811 
L 239.294631 221.54937 
L 241.748178 223.066464 
L 242.974951 224.075463 
L 244.201725 224.397835 
L 245.428498 225.308684 
L 246.655272 225.380604 
L 249.108819 221.837051 
L 250.335592 221.678403 
L 251.562366 222.458949 
L 252.789139 223.563983 
L 254.015913 223.953198 
L 255.242686 224.933006 
L 256.46946 225.765166 
L 257.696233 225.606095 
L 258.923007 225.647555 
L 260.14978 226.386641 
L 262.603327 228.63013 
L 263.830101 229.044306 
L 265.056874 225.628517 
L 266.283648 224.555636 
L 268.737195 221.600137 
L 269.963968 221.166077 
L 271.190742 221.222344 
L 272.417515 221.537947 
L 273.644289 220.944817 
L 276.097836 218.750403 
L 277.324609 218.603601 
L 278.551383 217.909782 
L 279.778156 218.439454 
L 281.00493 219.365533 
L 282.231703 220.130426 
L 283.458477 219.993354 
L 284.68525 219.636291 
L 285.912024 218.628562 
L 287.138797 218.203386 
L 288.365571 217.586141 
L 289.592344 217.402956 
L 292.045891 218.18604 
L 293.272665 217.629716 
L 296.952985 217.465146 
L 299.406532 217.002741 
L 300.633306 217.399148 
L 301.860079 217.339497 
L 303.086853 216.459108 
L 304.313626 216.338113 
L 306.767173 216.330498 
L 307.993947 215.95609 
L 309.22072 215.959051 
L 310.447494 216.423994 
L 311.674267 216.486607 
L 312.901041 216.164658 
L 315.354588 216.630025 
L 316.581361 216.798403 
L 317.808135 216.509452 
L 319.034908 216.541605 
L 320.261682 216.99851 
L 321.488455 217.064508 
L 322.715229 216.788672 
L 323.942002 216.25477 
L 325.168776 216.098661 
L 326.395549 216.215849 
L 327.622323 215.791519 
L 328.849096 215.729329 
L 331.302643 216.31696 
L 332.529417 215.884169 
L 333.75619 216.512414 
L 336.209737 218.392917 
L 337.436511 218.832054 
L 338.663284 219.644329 
L 341.116831 221.676711 
L 342.343605 222.028697 
L 343.570378 223.064349 
L 344.797152 222.278303 
L 346.023925 220.250998 
L 347.250699 218.664522 
L 348.477472 217.823055 
L 349.704246 217.985933 
L 350.931019 218.282498 
L 352.157793 218.020201 
L 354.61134 219.565217 
L 355.838113 219.481874 
L 357.064887 219.687058 
L 358.29166 220.334341 
L 360.745207 222.192845 
L 361.971981 221.633559 
L 363.198754 222.393375 
L 365.652301 224.382605 
L 366.879075 223.225112 
L 368.105848 221.808283 
L 369.332622 219.790285 
L 370.559395 218.889167 
L 371.786169 217.790479 
L 373.012942 217.784556 
L 374.239716 218.531681 
L 375.466489 219.508527 
L 376.693263 219.566909 
L 379.14681 220.014507 
L 380.373583 220.597907 
L 381.600357 220.665174 
L 382.82713 221.175385 
L 385.280677 223.264456 
L 386.507451 223.767475 
L 387.734224 223.633365 
L 388.960998 222.199613 
L 390.187771 219.929895 
L 391.414545 219.52418 
L 392.641318 220.300073 
L 395.094865 222.595598 
L 397.548412 223.478525 
L 398.775186 223.445949 
L 400.001959 224.064463 
L 401.228733 224.44691 
L 402.455506 225.482984 
L 403.68228 226.756396 
L 404.909053 222.805013 
L 407.3626 220.042429 
L 408.589374 219.769555 
L 409.816147 219.8144 
L 411.042921 219.274998 
L 412.269694 219.151887 
L 413.496468 219.404454 
L 414.723241 217.215117 
L 415.950015 216.613948 
L 417.176788 216.618179 
L 418.403562 217.053508 
L 419.630335 217.697406 
L 420.857109 218.011317 
L 422.083882 218.55791 
L 423.310656 218.18181 
L 424.537429 217.951665 
L 425.764203 217.043778 
L 426.990976 216.688407 
L 428.21775 217.018394 
L 429.444523 216.996395 
L 430.671297 216.772173 
L 433.124844 216.973973 
L 434.351617 216.696022 
L 435.578391 216.080892 
L 436.805164 216.072431 
L 438.031938 216.365612 
L 439.258711 216.515798 
L 440.485485 216.029279 
L 442.939032 216.636794 
L 444.165805 217.357265 
L 445.392579 217.632255 
L 446.619352 218.34638 
L 449.072899 220.24719 
L 450.299673 220.43926 
L 452.75322 222.245727 
L 453.979993 222.520293 
L 455.206767 221.10008 
L 456.43354 219.992085 
L 457.660314 219.428145 
L 458.887087 219.267806 
L 460.113861 218.573141 
L 461.340634 218.425916 
L 462.567408 218.872244 
L 463.794181 218.630254 
L 465.020955 217.627178 
L 466.247728 217.320036 
L 468.701275 217.781595 
L 469.928049 217.051393 
L 471.154822 216.761173 
L 472.381596 217.003164 
L 476.061916 216.386765 
L 477.28869 216.930397 
L 478.515463 217.015433 
L 479.742237 216.411302 
L 482.195784 216.812364 
L 483.422557 217.021355 
L 484.649331 216.400726 
L 485.876104 216.550489 
L 487.102878 217.009933 
L 488.329651 217.13812 
L 489.556425 216.901629 
L 490.783198 217.287883 
L 492.009972 217.368265 
L 493.236745 217.727866 
L 494.463519 217.130505 
L 495.690293 217.37038 
L 496.917066 217.879745 
L 498.14384 217.871707 
L 499.370613 217.615755 
L 500.597387 217.951242 
L 501.82416 218.123851 
L 503.050934 218.463991 
L 504.277707 218.102275 
L 506.731254 218.332842 
L 507.958028 218.139927 
L 509.184801 217.512528 
L 510.411575 217.657638 
L 511.638348 217.50999 
L 512.865122 217.68133 
L 514.091895 217.051393 
L 515.318669 217.155466 
L 516.545442 217.579795 
L 517.772216 217.440185 
L 518.998989 217.144466 
L 520.225763 217.393649 
L 521.452536 217.408879 
L 522.67931 217.744789 
L 523.906083 217.16985 
L 525.132857 217.301421 
L 526.35963 217.772711 
L 527.586404 217.532412 
L 528.813177 217.455838 
L 530.039951 218.05743 
L 532.493498 219.770824 
L 533.720271 219.831322 
L 534.947045 220.217576 
L 537.400592 221.792206 
L 538.627365 222.288456 
L 539.854139 223.324108 
L 542.307686 225.762627 
L 543.534459 226.235609 
L 544.761233 227.155765 
L 547.21478 229.593438 
L 548.441553 230.176838 
L 549.668327 229.618399 
L 550.8951 228.790047 
L 552.121874 227.396909 
L 553.348647 225.279069 
L 554.575421 224.579328 
L 555.802194 224.324645 
L 557.028968 223.781436 
L 558.255741 222.959853 
L 559.482515 222.303263 
L 560.709288 221.443182 
L 561.936062 220.749363 
L 563.162835 219.706942 
L 564.389609 219.544064 
L 566.843156 219.443376 
L 568.069929 218.727135 
L 569.296703 218.554949 
L 570.523476 218.941626 
L 571.75025 218.788478 
L 572.977023 218.316766 
L 574.203797 218.509682 
L 575.43057 218.449184 
L 576.657344 218.582871 
L 577.884117 218.180541 
L 579.110891 218.015547 
L 580.337664 218.716135 
L 581.564438 219.252575 
L 582.791211 219.51445 
L 586.471532 222.159 
L 587.698305 222.529177 
L 588.925079 223.107501 
L 590.151852 224.277263 
L 591.378626 225.282454 
L 593.832173 226.265646 
L 595.058946 226.106575 
L 596.28572 225.82524 
L 597.512493 224.359336 
L 601.192814 223.350761 
L 602.419587 222.640865 
L 603.646361 222.236843 
L 604.873134 222.127693 
L 606.099908 221.578561 
L 607.326681 220.5776 
L 608.553455 220.597907 
L 609.780228 220.21123 
L 611.007002 220.270459 
L 612.233775 219.703135 
L 613.460549 219.305458 
L 614.687322 219.716673 
L 617.140869 219.158233 
L 618.367643 219.222115 
L 619.594416 219.525449 
L 620.82119 219.642214 
L 622.047963 219.376109 
L 623.274737 219.406992 
L 624.50151 219.917626 
L 625.728284 219.973047 
L 626.955057 219.883781 
L 628.181831 220.104619 
L 629.408604 220.195577 
L 630.635378 220.052159 
L 631.862151 219.365109 
L 633.088925 219.254691 
L 634.315698 219.355802 
L 635.542472 219.251306 
L 636.769245 218.942049 
L 637.996019 218.904397 
L 640.449566 219.230999 
L 641.676339 218.752518 
L 642.903113 218.750403 
L 644.129886 219.245806 
L 645.35666 219.046968 
L 646.583433 218.686944 
L 647.810207 218.774094 
L 650.263754 219.307996 
L 651.490527 218.884936 
L 652.717301 219.02793 
L 653.944074 219.368071 
L 655.170848 219.331265 
L 656.397621 219.147233 
L 657.624395 218.820631 
L 660.077942 220.02593 
L 661.304715 220.263267 
L 662.531489 221.065389 
L 663.758262 222.051965 
L 664.985036 222.738169 
L 666.211809 223.1185 
L 667.438583 223.753091 
L 669.89213 225.969504 
L 671.118903 226.365065 
L 672.345677 226.620594 
L 674.799224 225.561251 
L 676.025997 224.202381 
L 677.252771 223.918507 
L 678.479544 223.511947 
L 679.706318 223.460333 
L 680.933091 222.688248 
L 682.159865 222.631135 
L 683.386638 221.77613 
L 684.613412 221.745247 
L 685.840185 220.772631 
L 688.293732 220.572524 
L 689.520506 220.740055 
L 690.747279 220.055544 
L 691.974053 220.384262 
L 693.200826 220.344494 
L 694.4276 220.61356 
L 695.654373 220.447298 
L 696.881147 220.492565 
L 698.10792 220.917318 
L 699.334694 220.916472 
L 700.561467 220.646559 
L 703.015014 221.087388 
L 704.241788 221.448258 
L 705.468561 221.167769 
L 709.148882 220.993046 
L 710.375655 220.780669 
L 711.602429 221.077235 
L 712.829202 221.130963 
L 714.055976 221.587868 
L 715.282749 221.214729 
L 717.736296 221.954239 
L 720.189843 221.633136 
L 721.416617 222.278303 
L 722.64339 223.860125 
L 723.870164 224.207458 
L 725.096937 224.41518 
L 726.323711 225.331106 
L 727.550484 226.077807 
L 728.777258 226.460254 
L 732.457578 228.575555 
L 734.911125 229.847698 
L 736.137899 230.1688 
L 737.364672 230.681126 
L 739.818219 232.012074 
L 741.044993 232.012497 
L 742.271766 232.630588 
L 743.49854 233.555821 
L 744.725313 234.223833 
L 745.952087 234.426479 
L 749.632407 236.902228 
L 750.859181 236.591279 
L 752.085954 237.251253 
L 753.312728 238.091027 
L 754.539501 239.156293 
L 755.766275 239.120756 
L 758.219822 240.86038 
L 759.446595 242.201481 
L 760.673369 242.022527 
L 763.126916 243.636502 
L 764.353689 247.539656 
L 765.580463 254.402117 
L 766.807236 258.874288 
L 768.03401 260.671871 
L 769.260783 264.277614 
L 770.487557 266.818937 
L 771.71433 269.963544 
L 772.941104 272.27853 
L 774.167877 276.145724 
L 775.394651 281.277869 
L 777.848198 285.581238 
L 774.518195 280.830694 
L 775.744968 282.389248 
L 776.971742 285.120525 
L 778.198515 287.295478 
L 779.425289 290.393972 
L 783.105609 297.261933 
L 784.332383 299.587072 
L 785.559156 301.340657 
L 789.239477 308.0707 
L 790.46625 310.502874 
L 794.146571 316.835664 
L 795.373344 318.761857 
L 796.600118 321.133956 
L 799.053665 325.24991 
L 801.507212 329.347249 
L 805.187532 334.818265 
L 806.414306 336.950489 
L 807.641079 338.759071 
L 810.094626 343.112362 
L 811.3214 345.369389 
L 815.371691 351.711485 
L 814.197497 349.892326 
L 811.406587 344.792334 
L 813.860134 349.304695 
L 816.313681 352.907054 
L 817.540455 355.308767 
L 817.540455 355.308767 
" clip-path="url(#p0e7240c4bb)" style="fill: none; stroke: #1f77b4; stroke-width: 1.5; stroke-linecap: square"/>
   </g>
   <g id="line2d_52">
    <path d="M 717.736296 362.409644 
L 717.736296 206.190356 
" clip-path="url(#p0e7240c4bb)" style="fill: none; stroke: #ff0000; stroke-opacity: 0.6; stroke-width: 0.8; stroke-linecap: square"/>
   </g>
   <g id="patch_8">
    <path d="M 68.69 362.409644 
L 68.69 206.190356 
" style="fill: none; stroke: #000000; stroke-width: 0.8; stroke-linejoin: miter; stroke-linecap: square"/>
   </g>
   <g id="patch_9">
    <path d="M 853.2 362.409644 
L 853.2 206.190356 
" style="fill: none; stroke: #000000; stroke-width: 0.8; stroke-linejoin: miter; stroke-linecap: square"/>
   </g>
   <g id="patch_10">
    <path d="M 68.69 362.409644 
L 853.2 362.409644 
" style="fill: none; stroke: #000000; stroke-width: 0.8; stroke-linejoin: miter; stroke-linecap: square"/>
   </g>
   <g id="patch_11">
    <path d="M 68.69 206.190356 
L 853.2 206.190356 
" style="fill: none; stroke: #000000; stroke-width: 0.8; stroke-linejoin: miter; stroke-linecap: square"/>
   </g>
   <g id="text_14">
    <!-- icp_y=0.729 -->
    <g style="fill: #ff0000" transform="translate(668.950203 250.245178) scale(0.07 -0.07)">
     <defs>
      <path id="DejaVuSans-79" d="M 2059 -325 
Q 1816 -950 1584 -1140 
Q 1353 -1331 966 -1331 
L 506 -1331 
L 506 -850 
L 844 -850 
Q 1081 -850 1212 -737 
Q 1344 -625 1503 -206 
L 1606 56 
L 191 3500 
L 800 3500 
L 1894 763 
L 2988 3500 
L 3597 3500 
L 2059 -325 
z
" transform="scale(0.015625)"/>
      <path id="DejaVuSans-39" d="M 703 97 
L 703 672 
Q 941 559 1184 500 
Q 1428 441 1663 441 
Q 2288 441 2617 861 
Q 2947 1281 2994 2138 
Q 2813 1869 2534 1725 
Q 2256 1581 1919 1581 
Q 1219 1581 811 2004 
Q 403 2428 403 3163 
Q 403 3881 828 4315 
Q 1253 4750 1959 4750 
Q 2769 4750 3195 4129 
Q 3622 3509 3622 2328 
Q 3622 1225 3098 567 
Q 2575 -91 1691 -91 
Q 1453 -91 1209 -44 
Q 966 3 703 97 
z
M 1959 2075 
Q 2384 2075 2632 2365 
Q 2881 2656 2881 3163 
Q 2881 3666 2632 3958 
Q 2384 4250 1959 4250 
Q 1534 4250 1286 3958 
Q 1038 3666 1038 3163 
Q 1038 2656 1286 2365 
Q 1534 2075 1959 2075 
z
" transform="scale(0.015625)"/>
     </defs>
     <use xlink:href="#DejaVuSans-69"/>
     <use xlink:href="#DejaVuSans-63" x="27.783203"/>
     <use xlink:href="#DejaVuSans-70" x="82.763672"/>
     <use xlink:href="#DejaVuSans-5f" x="146.240234"/>
     <use xlink:href="#DejaVuSans-79" x="196.240234"/>
     <use xlink:href="#DejaVuSans-3d" x="255.419922"/>
     <use xlink:href="#DejaVuSans-30" x="339.208984"/>
     <use xlink:href="#DejaVuSans-2e" x="402.832031"/>
     <use xlink:href="#DejaVuSans-37" x="434.619141"/>
     <use xlink:href="#DejaVuSans-32" x="498.242188"/>
     <use xlink:href="#DejaVuSans-39" x="561.865234"/>
    </g>
   </g>
  </g>
  <g id="axes_3">
   <g id="patch_12">
    <path d="M 68.69 534.04 
L 853.2 534.04 
L 853.2 377.820712 
L 68.69 377.820712 
z
" style="fill: #ffffff"/>
   </g>
   <g id="matplotlib.axis_5">
    <g id="xtick_15">
     <g id="line2d_53">
      <path d="M 104.349545 534.04 
L 104.349545 377.820712 
" clip-path="url(#p48b204e0b3)" style="fill: none; stroke: #b0b0b0; stroke-width: 0.8; stroke-linecap: square"/>
     </g>
     <g id="line2d_54">
      <g>
       <use xlink:href="#m73bf6c73ce" x="104.349545" y="534.04" style="stroke: #000000; stroke-width: 0.8"/>
      </g>
     </g>
     <g id="text_15">
      <!-- 0 -->
      <g transform="translate(101.168295 548.638438) scale(0.1 -0.1)">
       <use xlink:href="#DejaVuSans-30"/>
      </g>
     </g>
    </g>
    <g id="xtick_16">
     <g id="line2d_55">
      <path d="M 227.026896 534.04 
L 227.026896 377.820712 
" clip-path="url(#p48b204e0b3)" style="fill: none; stroke: #b0b0b0; stroke-width: 0.8; stroke-linecap: square"/>
     </g>
     <g id="line2d_56">
      <g>
       <use xlink:href="#m73bf6c73ce" x="227.026896" y="534.04" style="stroke: #000000; stroke-width: 0.8"/>
      </g>
     </g>
     <g id="text_16">
      <!-- 10 -->
      <g transform="translate(220.664396 548.638438) scale(0.1 -0.1)">
       <use xlink:href="#DejaVuSans-31"/>
       <use xlink:href="#DejaVuSans-30" x="63.623047"/>
      </g>
     </g>
    </g>
    <g id="xtick_17">
     <g id="line2d_57">
      <path d="M 349.704246 534.04 
L 349.704246 377.820712 
" clip-path="url(#p48b204e0b3)" style="fill: none; stroke: #b0b0b0; stroke-width: 0.8; stroke-linecap: square"/>
     </g>
     <g id="line2d_58">
      <g>
       <use xlink:href="#m73bf6c73ce" x="349.704246" y="534.04" style="stroke: #000000; stroke-width: 0.8"/>
      </g>
     </g>
     <g id="text_17">
      <!-- 20 -->
      <g transform="translate(343.341746 548.638438) scale(0.1 -0.1)">
       <use xlink:href="#DejaVuSans-32"/>
       <use xlink:href="#DejaVuSans-30" x="63.623047"/>
      </g>
     </g>
    </g>
    <g id="xtick_18">
     <g id="line2d_59">
      <path d="M 472.381596 534.04 
L 472.381596 377.820712 
" clip-path="url(#p48b204e0b3)" style="fill: none; stroke: #b0b0b0; stroke-width: 0.8; stroke-linecap: square"/>
     </g>
     <g id="line2d_60">
      <g>
       <use xlink:href="#m73bf6c73ce" x="472.381596" y="534.04" style="stroke: #000000; stroke-width: 0.8"/>
      </g>
     </g>
     <g id="text_18">
      <!-- 30 -->
      <g transform="translate(466.019096 548.638438) scale(0.1 -0.1)">
       <use xlink:href="#DejaVuSans-33"/>
       <use xlink:href="#DejaVuSans-30" x="63.623047"/>
      </g>
     </g>
    </g>
    <g id="xtick_19">
     <g id="line2d_61">
      <path d="M 595.058946 534.04 
L 595.058946 377.820712 
" clip-path="url(#p48b204e0b3)" style="fill: none; stroke: #b0b0b0; stroke-width: 0.8; stroke-linecap: square"/>
     </g>
     <g id="line2d_62">
      <g>
       <use xlink:href="#m73bf6c73ce" x="595.058946" y="534.04" style="stroke: #000000; stroke-width: 0.8"/>
      </g>
     </g>
     <g id="text_19">
      <!-- 40 -->
      <g transform="translate(588.696446 548.638438) scale(0.1 -0.1)">
       <defs>
        <path id="DejaVuSans-34" d="M 2419 4116 
L 825 1625 
L 2419 1625 
L 2419 4116 
z
M 2253 4666 
L 3047 4666 
L 3047 1625 
L 3713 1625 
L 3713 1100 
L 3047 1100 
L 3047 0 
L 2419 0 
L 2419 1100 
L 313 1100 
L 313 1709 
L 2253 4666 
z
" transform="scale(0.015625)"/>
       </defs>
       <use xlink:href="#DejaVuSans-34"/>
       <use xlink:href="#DejaVuSans-30" x="63.623047"/>
      </g>
     </g>
    </g>
    <g id="xtick_20">
     <g id="line2d_63">
      <path d="M 717.736296 534.04 
L 717.736296 377.820712 
" clip-path="url(#p48b204e0b3)" style="fill: none; stroke: #b0b0b0; stroke-width: 0.8; stroke-linecap: square"/>
     </g>
     <g id="line2d_64">
      <g>
       <use xlink:href="#m73bf6c73ce" x="717.736296" y="534.04" style="stroke: #000000; stroke-width: 0.8"/>
      </g>
     </g>
     <g id="text_20">
      <!-- 50 -->
      <g transform="translate(711.373796 548.638438) scale(0.1 -0.1)">
       <defs>
        <path id="DejaVuSans-35" d="M 691 4666 
L 3169 4666 
L 3169 4134 
L 1269 4134 
L 1269 2991 
Q 1406 3038 1543 3061 
Q 1681 3084 1819 3084 
Q 2600 3084 3056 2656 
Q 3513 2228 3513 1497 
Q 3513 744 3044 326 
Q 2575 -91 1722 -91 
Q 1428 -91 1123 -41 
Q 819 9 494 109 
L 494 744 
Q 775 591 1075 516 
Q 1375 441 1709 441 
Q 2250 441 2565 725 
Q 2881 1009 2881 1497 
Q 2881 1984 2565 2268 
Q 2250 2553 1709 2553 
Q 1456 2553 1204 2497 
Q 953 2441 691 2322 
L 691 4666 
z
" transform="scale(0.015625)"/>
       </defs>
       <use xlink:href="#DejaVuSans-35"/>
       <use xlink:href="#DejaVuSans-30" x="63.623047"/>
      </g>
     </g>
    </g>
    <g id="xtick_21">
     <g id="line2d_65">
      <path d="M 840.413646 534.04 
L 840.413646 377.820712 
" clip-path="url(#p48b204e0b3)" style="fill: none; stroke: #b0b0b0; stroke-width: 0.8; stroke-linecap: square"/>
     </g>
     <g id="line2d_66">
      <g>
       <use xlink:href="#m73bf6c73ce" x="840.413646" y="534.04" style="stroke: #000000; stroke-width: 0.8"/>
      </g>
     </g>
     <g id="text_21">
      <!-- 60 -->
      <g transform="translate(834.051146 548.638438) scale(0.1 -0.1)">
       <defs>
        <path id="DejaVuSans-36" d="M 2113 2584 
Q 1688 2584 1439 2293 
Q 1191 2003 1191 1497 
Q 1191 994 1439 701 
Q 1688 409 2113 409 
Q 2538 409 2786 701 
Q 3034 994 3034 1497 
Q 3034 2003 2786 2293 
Q 2538 2584 2113 2584 
z
M 3366 4563 
L 3366 3988 
Q 3128 4100 2886 4159 
Q 2644 4219 2406 4219 
Q 1781 4219 1451 3797 
Q 1122 3375 1075 2522 
Q 1259 2794 1537 2939 
Q 1816 3084 2150 3084 
Q 2853 3084 3261 2657 
Q 3669 2231 3669 1497 
Q 3669 778 3244 343 
Q 2819 -91 2113 -91 
Q 1303 -91 875 529 
Q 447 1150 447 2328 
Q 447 3434 972 4092 
Q 1497 4750 2381 4750 
Q 2619 4750 2861 4703 
Q 3103 4656 3366 4563 
z
" transform="scale(0.015625)"/>
       </defs>
       <use xlink:href="#DejaVuSans-36"/>
       <use xlink:href="#DejaVuSans-30" x="63.623047"/>
      </g>
     </g>
    </g>
    <g id="text_22">
     <!-- time (s) -->
     <g transform="translate(441.553594 562.316563) scale(0.1 -0.1)">
      <defs>
       <path id="DejaVuSans-74" d="M 1172 4494 
L 1172 3500 
L 2356 3500 
L 2356 3053 
L 1172 3053 
L 1172 1153 
Q 1172 725 1289 603 
Q 1406 481 1766 481 
L 2356 481 
L 2356 0 
L 1766 0 
Q 1100 0 847 248 
Q 594 497 594 1153 
L 594 3053 
L 172 3053 
L 172 3500 
L 594 3500 
L 594 4494 
L 1172 4494 
z
" transform="scale(0.015625)"/>
       <path id="DejaVuSans-65" d="M 3597 1894 
L 3597 1613 
L 953 1613 
Q 991 1019 1311 708 
Q 1631 397 2203 397 
Q 2534 397 2845 478 
Q 3156 559 3463 722 
L 3463 178 
Q 3153 47 2828 -22 
Q 2503 -91 2169 -91 
Q 1331 -91 842 396 
Q 353 884 353 1716 
Q 353 2575 817 3079 
Q 1281 3584 2069 3584 
Q 2775 3584 3186 3129 
Q 3597 2675 3597 1894 
z
M 3022 2063 
Q 3016 2534 2758 2815 
Q 2500 3097 2075 3097 
Q 1594 3097 1305 2825 
Q 1016 2553 972 2059 
L 3022 2063 
z
" transform="scale(0.015625)"/>
       <path id="DejaVuSans-73" d="M 2834 3397 
L 2834 2853 
Q 2591 2978 2328 3040 
Q 2066 3103 1784 3103 
Q 1356 3103 1142 2972 
Q 928 2841 928 2578 
Q 928 2378 1081 2264 
Q 1234 2150 1697 2047 
L 1894 2003 
Q 2506 1872 2764 1633 
Q 3022 1394 3022 966 
Q 3022 478 2636 193 
Q 2250 -91 1575 -91 
Q 1294 -91 989 -36 
Q 684 19 347 128 
L 347 722 
Q 666 556 975 473 
Q 1284 391 1588 391 
Q 1994 391 2212 530 
Q 2431 669 2431 922 
Q 2431 1156 2273 1281 
Q 2116 1406 1581 1522 
L 1381 1569 
Q 847 1681 609 1914 
Q 372 2147 372 2553 
Q 372 3047 722 3315 
Q 1072 3584 1716 3584 
Q 2034 3584 2315 3537 
Q 2597 3491 2834 3397 
z
" transform="scale(0.015625)"/>
      </defs>
      <use xlink:href="#DejaVuSans-74"/>
      <use xlink:href="#DejaVuSans-69" x="39.208984"/>
      <use xlink:href="#DejaVuSans-6d" x="66.992188"/>
      <use xlink:href="#DejaVuSans-65" x="164.404297"/>
      <use xlink:href="#DejaVuSans-20" x="225.927734"/>
      <use xlink:href="#DejaVuSans-28" x="257.714844"/>
      <use xlink:href="#DejaVuSans-73" x="296.728516"/>
      <use xlink:href="#DejaVuSans-29" x="348.828125"/>
     </g>
    </g>
   </g>
   <g id="matplotlib.axis_6">
    <g id="ytick_11">
     <g id="line2d_67">
      <path d="M 68.69 529.723465 
L 853.2 529.723465 
" clip-path="url(#p48b204e0b3)" style="fill: none; stroke: #b0b0b0; stroke-width: 0.8; stroke-linecap: square"/>
     </g>
     <g id="line2d_68">
      <g>
       <use xlink:href="#ma5ce5db0b1" x="68.69" y="529.723465" style="stroke: #000000; stroke-width: 0.8"/>
      </g>
     </g>
     <g id="text_23">
      <!-- −1.5 -->
      <g transform="translate(37.407187 533.522684) scale(0.1 -0.1)">
       <use xlink:href="#DejaVuSans-2212"/>
       <use xlink:href="#DejaVuSans-31" x="83.789062"/>
       <use xlink:href="#DejaVuSans-2e" x="147.412109"/>
       <use xlink:href="#DejaVuSans-35" x="179.199219"/>
      </g>
     </g>
    </g>
    <g id="ytick_12">
     <g id="line2d_69">
      <path d="M 68.69 505.185765 
L 853.2 505.185765 
" clip-path="url(#p48b204e0b3)" style="fill: none; stroke: #b0b0b0; stroke-width: 0.8; stroke-linecap: square"/>
     </g>
     <g id="line2d_70">
      <g>
       <use xlink:href="#ma5ce5db0b1" x="68.69" y="505.185765" style="stroke: #000000; stroke-width: 0.8"/>
      </g>
     </g>
     <g id="text_24">
      <!-- −1.0 -->
      <g transform="translate(37.407187 508.984984) scale(0.1 -0.1)">
       <use xlink:href="#DejaVuSans-2212"/>
       <use xlink:href="#DejaVuSans-31" x="83.789062"/>
       <use xlink:href="#DejaVuSans-2e" x="147.412109"/>
       <use xlink:href="#DejaVuSans-30" x="179.199219"/>
      </g>
     </g>
    </g>
    <g id="ytick_13">
     <g id="line2d_71">
      <path d="M 68.69 480.648065 
L 853.2 480.648065 
" clip-path="url(#p48b204e0b3)" style="fill: none; stroke: #b0b0b0; stroke-width: 0.8; stroke-linecap: square"/>
     </g>
     <g id="line2d_72">
      <g>
       <use xlink:href="#ma5ce5db0b1" x="68.69" y="480.648065" style="stroke: #000000; stroke-width: 0.8"/>
      </g>
     </g>
     <g id="text_25">
      <!-- −0.5 -->
      <g transform="translate(37.407187 484.447284) scale(0.1 -0.1)">
       <use xlink:href="#DejaVuSans-2212"/>
       <use xlink:href="#DejaVuSans-30" x="83.789062"/>
       <use xlink:href="#DejaVuSans-2e" x="147.412109"/>
       <use xlink:href="#DejaVuSans-35" x="179.199219"/>
      </g>
     </g>
    </g>
    <g id="ytick_14">
     <g id="line2d_73">
      <path d="M 68.69 456.110365 
L 853.2 456.110365 
" clip-path="url(#p48b204e0b3)" style="fill: none; stroke: #b0b0b0; stroke-width: 0.8; stroke-linecap: square"/>
     </g>
     <g id="line2d_74">
      <g>
       <use xlink:href="#ma5ce5db0b1" x="68.69" y="456.110365" style="stroke: #000000; stroke-width: 0.8"/>
      </g>
     </g>
     <g id="text_26">
      <!-- 0.0 -->
      <g transform="translate(45.786875 459.909583) scale(0.1 -0.1)">
       <use xlink:href="#DejaVuSans-30"/>
       <use xlink:href="#DejaVuSans-2e" x="63.623047"/>
       <use xlink:href="#DejaVuSans-30" x="95.410156"/>
      </g>
     </g>
    </g>
    <g id="ytick_15">
     <g id="line2d_75">
      <path d="M 68.69 431.572664 
L 853.2 431.572664 
" clip-path="url(#p48b204e0b3)" style="fill: none; stroke: #b0b0b0; stroke-width: 0.8; stroke-linecap: square"/>
     </g>
     <g id="line2d_76">
      <g>
       <use xlink:href="#ma5ce5db0b1" x="68.69" y="431.572664" style="stroke: #000000; stroke-width: 0.8"/>
      </g>
     </g>
     <g id="text_27">
      <!-- 0.5 -->
      <g transform="translate(45.786875 435.371883) scale(0.1 -0.1)">
       <use xlink:href="#DejaVuSans-30"/>
       <use xlink:href="#DejaVuSans-2e" x="63.623047"/>
       <use xlink:href="#DejaVuSans-35" x="95.410156"/>
      </g>
     </g>
    </g>
    <g id="ytick_16">
     <g id="line2d_77">
      <path d="M 68.69 407.034964 
L 853.2 407.034964 
" clip-path="url(#p48b204e0b3)" style="fill: none; stroke: #b0b0b0; stroke-width: 0.8; stroke-linecap: square"/>
     </g>
     <g id="line2d_78">
      <g>
       <use xlink:href="#ma5ce5db0b1" x="68.69" y="407.034964" style="stroke: #000000; stroke-width: 0.8"/>
      </g>
     </g>
     <g id="text_28">
      <!-- 1.0 -->
      <g transform="translate(45.786875 410.834183) scale(0.1 -0.1)">
       <use xlink:href="#DejaVuSans-31"/>
       <use xlink:href="#DejaVuSans-2e" x="63.623047"/>
       <use xlink:href="#DejaVuSans-30" x="95.410156"/>
      </g>
     </g>
    </g>
    <g id="ytick_17">
     <g id="line2d_79">
      <path d="M 68.69 382.497264 
L 853.2 382.497264 
" clip-path="url(#p48b204e0b3)" style="fill: none; stroke: #b0b0b0; stroke-width: 0.8; stroke-linecap: square"/>
     </g>
     <g id="line2d_80">
      <g>
       <use xlink:href="#ma5ce5db0b1" x="68.69" y="382.497264" style="stroke: #000000; stroke-width: 0.8"/>
      </g>
     </g>
     <g id="text_29">
      <!-- 1.5 -->
      <g transform="translate(45.786875 386.296483) scale(0.1 -0.1)">
       <use xlink:href="#DejaVuSans-31"/>
       <use xlink:href="#DejaVuSans-2e" x="63.623047"/>
       <use xlink:href="#DejaVuSans-35" x="95.410156"/>
      </g>
     </g>
    </g>
    <g id="text_30">
     <!-- Error Yaw (deg) -->
     <g transform="translate(31.3275 494.139731) rotate(-90) scale(0.1 -0.1)">
      <defs>
       <path id="DejaVuSans-61" d="M 2194 1759 
Q 1497 1759 1228 1600 
Q 959 1441 959 1056 
Q 959 750 1161 570 
Q 1363 391 1709 391 
Q 2188 391 2477 730 
Q 2766 1069 2766 1631 
L 2766 1759 
L 2194 1759 
z
M 3341 1997 
L 3341 0 
L 2766 0 
L 2766 531 
Q 2569 213 2275 61 
Q 1981 -91 1556 -91 
Q 1019 -91 701 211 
Q 384 513 384 1019 
Q 384 1609 779 1909 
Q 1175 2209 1959 2209 
L 2766 2209 
L 2766 2266 
Q 2766 2663 2505 2880 
Q 2244 3097 1772 3097 
Q 1472 3097 1187 3025 
Q 903 2953 641 2809 
L 641 3341 
Q 956 3463 1253 3523 
Q 1550 3584 1831 3584 
Q 2591 3584 2966 3190 
Q 3341 2797 3341 1997 
z
" transform="scale(0.015625)"/>
       <path id="DejaVuSans-77" d="M 269 3500 
L 844 3500 
L 1563 769 
L 2278 3500 
L 2956 3500 
L 3675 769 
L 4391 3500 
L 4966 3500 
L 4050 0 
L 3372 0 
L 2619 2869 
L 1863 0 
L 1184 0 
L 269 3500 
z
" transform="scale(0.015625)"/>
       <path id="DejaVuSans-64" d="M 2906 2969 
L 2906 4863 
L 3481 4863 
L 3481 0 
L 2906 0 
L 2906 525 
Q 2725 213 2448 61 
Q 2172 -91 1784 -91 
Q 1150 -91 751 415 
Q 353 922 353 1747 
Q 353 2572 751 3078 
Q 1150 3584 1784 3584 
Q 2172 3584 2448 3432 
Q 2725 3281 2906 2969 
z
M 947 1747 
Q 947 1113 1208 752 
Q 1469 391 1925 391 
Q 2381 391 2643 752 
Q 2906 1113 2906 1747 
Q 2906 2381 2643 2742 
Q 2381 3103 1925 3103 
Q 1469 3103 1208 2742 
Q 947 2381 947 1747 
z
" transform="scale(0.015625)"/>
       <path id="DejaVuSans-67" d="M 2906 1791 
Q 2906 2416 2648 2759 
Q 2391 3103 1925 3103 
Q 1463 3103 1205 2759 
Q 947 2416 947 1791 
Q 947 1169 1205 825 
Q 1463 481 1925 481 
Q 2391 481 2648 825 
Q 2906 1169 2906 1791 
z
M 3481 434 
Q 3481 -459 3084 -895 
Q 2688 -1331 1869 -1331 
Q 1566 -1331 1297 -1286 
Q 1028 -1241 775 -1147 
L 775 -588 
Q 1028 -725 1275 -790 
Q 1522 -856 1778 -856 
Q 2344 -856 2625 -561 
Q 2906 -266 2906 331 
L 2906 616 
Q 2728 306 2450 153 
Q 2172 0 1784 0 
Q 1141 0 747 490 
Q 353 981 353 1791 
Q 353 2603 747 3093 
Q 1141 3584 1784 3584 
Q 2172 3584 2450 3431 
Q 2728 3278 2906 2969 
L 2906 3500 
L 3481 3500 
L 3481 434 
z
" transform="scale(0.015625)"/>
      </defs>
      <use xlink:href="#DejaVuSans-45"/>
      <use xlink:href="#DejaVuSans-72" x="63.183594"/>
      <use xlink:href="#DejaVuSans-72" x="102.546875"/>
      <use xlink:href="#DejaVuSans-6f" x="141.410156"/>
      <use xlink:href="#DejaVuSans-72" x="202.591797"/>
      <use xlink:href="#DejaVuSans-20" x="243.705078"/>
      <use xlink:href="#DejaVuSans-59" x="275.492188"/>
      <use xlink:href="#DejaVuSans-61" x="322.826172"/>
      <use xlink:href="#DejaVuSans-77" x="384.105469"/>
      <use xlink:href="#DejaVuSans-20" x="465.892578"/>
      <use xlink:href="#DejaVuSans-28" x="497.679688"/>
      <use xlink:href="#DejaVuSans-64" x="536.693359"/>
      <use xlink:href="#DejaVuSans-65" x="600.169922"/>
      <use xlink:href="#DejaVuSans-67" x="661.693359"/>
      <use xlink:href="#DejaVuSans-29" x="725.169922"/>
     </g>
    </g>
   </g>
   <g id="line2d_81">
    <path d="M 104.349545 450.489808 
L 108.029866 450.780727 
L 110.483413 450.431997 
L 111.710186 450.401472 
L 112.93696 450.485784 
L 114.163733 450.049209 
L 115.390507 450.555569 
L 117.844054 450.036695 
L 119.070827 450.537853 
L 120.297601 450.158942 
L 121.524374 450.693471 
L 122.751148 450.586683 
L 123.977921 450.732093 
L 125.204695 450.371536 
L 126.431468 450.587076 
L 128.885015 450.580401 
L 130.111789 450.14844 
L 131.338562 450.359562 
L 132.565336 450.91063 
L 133.792109 450.630507 
L 135.018883 450.855616 
L 136.245656 450.577653 
L 137.47243 449.993018 
L 138.699204 450.488287 
L 139.925977 450.393473 
L 141.152751 450.72699 
L 142.379524 450.456977 
L 143.606298 450.630556 
L 144.833071 450.626728 
L 146.059845 450.510567 
L 147.286618 450.562391 
L 148.513392 450.488189 
L 149.740165 450.25881 
L 150.966939 450.674577 
L 152.193712 450.89733 
L 153.420486 450.665989 
L 154.647259 449.91273 
L 155.874033 449.400776 
L 157.100806 449.827683 
L 159.554353 448.407146 
L 160.781127 448.651591 
L 162.0079 449.773307 
L 164.461447 450.129398 
L 165.688221 450.83898 
L 166.914994 451.248955 
L 168.141768 451.229276 
L 169.368541 450.172438 
L 170.595315 449.293792 
L 171.822088 448.099247 
L 173.048862 450.359955 
L 174.275635 448.978089 
L 175.502409 449.718196 
L 176.729182 449.008173 
L 177.955956 449.721631 
L 179.182729 449.757112 
L 180.409503 448.381823 
L 181.636276 449.392482 
L 182.86305 449.899922 
L 184.089823 449.704405 
L 185.316597 451.005591 
L 186.54337 450.395878 
L 187.770144 449.492105 
L 188.996917 449.628878 
L 190.223691 449.584367 
L 191.450464 450.146918 
L 192.677238 449.473408 
L 193.904011 450.225733 
L 195.130785 451.342297 
L 196.357558 450.612546 
L 197.584332 450.037971 
L 198.811105 450.067465 
L 200.037879 449.655919 
L 201.264652 448.459657 
L 202.491426 449.106373 
L 203.718199 449.290062 
L 204.944973 450.289433 
L 206.171746 449.523023 
L 208.625293 448.772856 
L 209.852067 448.224193 
L 211.07884 448.939663 
L 212.305614 448.737767 
L 213.532387 449.672261 
L 214.759161 449.52425 
L 215.985934 448.854959 
L 217.212708 447.296325 
L 218.439481 448.438015 
L 219.666255 447.865452 
L 220.893028 448.307131 
L 222.119802 447.906234 
L 223.346575 449.070449 
L 225.800122 448.465595 
L 227.026896 448.481692 
L 229.480443 447.776527 
L 230.707216 449.236619 
L 231.93399 450.289728 
L 233.160763 449.706859 
L 234.387537 450.366923 
L 235.61431 450.438426 
L 238.067857 449.351308 
L 239.294631 448.690508 
L 240.521404 450.013531 
L 241.748178 450.321381 
L 242.974951 450.21425 
L 245.428498 450.657106 
L 246.655272 449.759468 
L 249.108819 446.858228 
L 250.335592 446.653437 
L 251.562366 447.046825 
L 252.789139 446.778579 
L 254.015913 447.449342 
L 255.242686 447.469512 
L 256.46946 447.053058 
L 257.696233 446.221033 
L 258.923007 445.876083 
L 260.14978 446.549495 
L 261.376554 446.674245 
L 262.603327 446.274084 
L 263.830101 446.657363 
L 265.056874 448.26419 
L 266.283648 447.772356 
L 267.510421 446.690292 
L 268.737195 447.353301 
L 271.190742 447.955162 
L 272.417515 447.428877 
L 273.644289 448.000851 
L 274.871062 448.137575 
L 276.097836 448.701893 
L 277.324609 448.49558 
L 278.551383 448.97382 
L 279.778156 448.982065 
L 281.00493 448.57572 
L 282.231703 448.518302 
L 283.458477 449.102986 
L 284.68525 449.234754 
L 285.912024 449.046206 
L 287.138797 449.712454 
L 288.365571 448.786695 
L 289.592344 448.185031 
L 290.819118 447.154349 
L 292.045891 447.264965 
L 294.499438 448.25938 
L 296.952985 447.366748 
L 298.179759 446.918444 
L 299.406532 448.007722 
L 300.633306 448.555109 
L 301.860079 447.718815 
L 303.086853 448.452345 
L 304.313626 450.161445 
L 305.5404 449.838087 
L 306.767173 449.240152 
L 309.22072 446.294843 
L 310.447494 446.188595 
L 311.674267 445.311912 
L 312.901041 446.378664 
L 315.354588 446.631647 
L 316.581361 446.884091 
L 319.034908 445.55032 
L 320.261682 445.344301 
L 321.488455 445.265683 
L 322.715229 446.156156 
L 323.942002 445.707509 
L 325.168776 445.092741 
L 326.395549 444.863264 
L 327.622323 444.473949 
L 328.849096 445.530494 
L 330.07587 445.9707 
L 331.302643 445.586047 
L 332.529417 446.100995 
L 333.75619 446.18619 
L 334.982964 445.822836 
L 337.436511 446.201011 
L 338.663284 446.517547 
L 339.890058 446.116699 
L 341.116831 446.148549 
L 342.343605 446.520982 
L 343.570378 446.482311 
L 344.797152 442.597551 
L 346.023925 439.703918 
L 347.250699 438.508344 
L 348.477472 438.855209 
L 349.704246 439.522536 
L 350.931019 439.603069 
L 352.157793 440.33228 
L 353.384566 439.819835 
L 354.61134 439.118743 
L 355.838113 437.293826 
L 357.064887 437.52556 
L 358.29166 437.58656 
L 359.518434 438.025834 
L 360.745207 438.150289 
L 361.971981 438.476199 
L 364.425528 438.729036 
L 365.652301 438.692278 
L 368.105848 434.418056 
L 369.332622 432.702429 
L 370.559395 433.260907 
L 371.786169 436.571387 
L 373.012942 438.620775 
L 374.239716 439.116437 
L 375.466489 438.879354 
L 377.920036 436.737016 
L 379.14681 436.803955 
L 380.373583 436.674739 
L 381.600357 437.791941 
L 382.82713 438.282057 
L 386.507451 437.623759 
L 387.734224 436.081467 
L 388.960998 433.578867 
L 390.187771 432.835767 
L 391.414545 434.100048 
L 392.641318 434.324862 
L 395.094865 433.943497 
L 396.321639 434.064173 
L 398.775186 432.151705 
L 400.001959 432.454746 
L 401.228733 433.033639 
L 403.68228 432.924741 
L 404.909053 431.9423 
L 406.135827 432.675045 
L 407.3626 434.451035 
L 408.589374 437.481539 
L 409.816147 439.211496 
L 411.042921 440.211603 
L 412.269694 440.958384 
L 413.496468 441.955154 
L 414.723241 441.385045 
L 417.176788 443.327008 
L 419.630335 445.365993 
L 420.857109 445.691559 
L 422.083882 445.16817 
L 423.310656 444.811932 
L 425.764203 445.970945 
L 426.990976 447.625571 
L 428.21775 448.271845 
L 429.444523 448.183461 
L 430.671297 448.524878 
L 434.351617 448.421574 
L 435.578391 448.505493 
L 436.805164 449.553842 
L 438.031938 450.349943 
L 439.258711 449.721091 
L 441.712258 450.629428 
L 442.939032 450.702108 
L 444.165805 450.414428 
L 447.846126 450.041701 
L 449.072899 449.721287 
L 450.299673 450.552919 
L 451.526446 450.139361 
L 452.75322 449.871998 
L 453.979993 449.289816 
L 455.206767 449.570479 
L 456.43354 450.856941 
L 457.660314 451.876777 
L 458.887087 450.031689 
L 460.113861 450.599099 
L 461.340634 451.525201 
L 462.567408 452.288961 
L 463.794181 452.230463 
L 465.020955 453.827475 
L 466.247728 452.972876 
L 467.474502 453.326661 
L 468.701275 452.921298 
L 469.928049 454.275975 
L 471.154822 451.682242 
L 472.381596 450.833336 
L 473.608369 449.268567 
L 474.835143 449.554382 
L 476.061916 449.233674 
L 477.28869 448.610171 
L 478.515463 448.147636 
L 479.742237 447.857796 
L 480.96901 448.083101 
L 482.195784 448.802301 
L 483.422557 448.077801 
L 484.649331 446.835114 
L 485.876104 446.679447 
L 487.102878 448.536411 
L 488.329651 448.712199 
L 489.556425 448.24083 
L 490.783198 447.026115 
L 492.009972 448.083101 
L 493.236745 448.087911 
L 494.463519 447.109102 
L 495.690293 446.777401 
L 496.917066 446.787756 
L 498.14384 447.545529 
L 499.370613 447.841454 
L 500.597387 447.348541 
L 501.82416 446.427297 
L 503.050934 447.07632 
L 504.277707 445.77327 
L 505.504481 445.43357 
L 506.731254 446.092014 
L 507.958028 447.497583 
L 509.184801 448.510401 
L 511.638348 448.397724 
L 512.865122 449.151718 
L 518.998989 447.974105 
L 520.225763 447.578165 
L 521.452536 449.06564 
L 522.67931 447.961443 
L 523.906083 448.958803 
L 525.132857 447.334898 
L 526.35963 447.173538 
L 527.586404 447.821677 
L 528.813177 448.882196 
L 530.039951 449.284173 
L 532.493498 449.136407 
L 533.720271 449.492498 
L 534.947045 449.41702 
L 536.173818 449.664409 
L 537.400592 449.763001 
L 538.627365 450.463356 
L 541.080912 450.354115 
L 542.307686 450.143974 
L 543.534459 449.774289 
L 544.761233 450.143434 
L 545.988006 450.145642 
L 547.21478 450.032131 
L 548.441553 450.415164 
L 549.668327 449.82572 
L 550.8951 448.552213 
L 553.348647 447.954328 
L 554.575421 448.528363 
L 555.802194 449.299828 
L 557.028968 449.455201 
L 558.255741 449.349001 
L 559.482515 449.757849 
L 560.709288 449.105146 
L 561.936062 449.079038 
L 563.162835 448.73924 
L 564.389609 449.314403 
L 569.296703 448.947319 
L 570.523476 448.129723 
L 572.977023 449.077222 
L 574.203797 448.557611 
L 575.43057 449.406076 
L 576.657344 450.025309 
L 577.884117 450.478717 
L 580.337664 449.844663 
L 581.564438 449.22646 
L 584.017985 448.698016 
L 585.244758 448.691195 
L 586.471532 448.284703 
L 587.698305 448.745276 
L 588.925079 448.954435 
L 590.151852 448.69728 
L 591.378626 449.036293 
L 592.605399 448.51786 
L 593.832173 448.416961 
L 595.058946 448.081482 
L 596.28572 448.863449 
L 597.512493 449.046942 
L 598.739267 450.386112 
L 599.96604 449.453336 
L 601.192814 449.467322 
L 602.419587 450.539423 
L 603.646361 449.830775 
L 604.873134 449.975105 
L 606.099908 449.439104 
L 607.326681 450.173075 
L 608.553455 450.520677 
L 609.780228 450.022463 
L 611.007002 450.150992 
L 612.233775 449.455397 
L 613.460549 449.275388 
L 614.687322 449.50992 
L 617.140869 449.544959 
L 618.367643 449.723152 
L 619.594416 450.318928 
L 620.82119 450.341846 
L 622.047963 449.953905 
L 623.274737 450.154476 
L 624.50151 449.90056 
L 625.728284 450.61603 
L 626.955057 451.121556 
L 628.181831 450.731603 
L 629.408604 450.873136 
L 630.635378 450.806639 
L 631.862151 450.43877 
L 634.315698 451.084602 
L 635.542472 449.878525 
L 636.769245 450.158549 
L 637.996019 450.204189 
L 639.222792 451.326495 
L 640.449566 450.822 
L 641.676339 451.074689 
L 642.903113 450.708733 
L 644.129886 449.975596 
L 645.35666 450.469638 
L 646.583433 450.43931 
L 647.810207 450.03375 
L 649.03698 450.278048 
L 650.263754 451.119789 
L 651.490527 451.001665 
L 652.717301 450.565335 
L 653.944074 449.911602 
L 655.170848 450.072324 
L 656.397621 450.039345 
L 657.624395 451.324728 
L 658.851168 450.901256 
L 660.077942 451.694756 
L 661.304715 451.546892 
L 662.531489 451.53747 
L 663.758262 451.756493 
L 664.985036 453.131979 
L 666.211809 454.097341 
L 667.438583 456.292778 
L 669.89213 457.289058 
L 671.118903 456.977085 
L 672.345677 456.814351 
L 673.57245 457.75282 
L 674.799224 458.222079 
L 676.025997 459.285396 
L 677.252771 460.852275 
L 678.479544 462.006283 
L 679.706318 461.381308 
L 680.933091 459.797792 
L 682.159865 459.264392 
L 683.386638 460.199965 
L 684.613412 459.148868 
L 685.840185 460.933053 
L 687.066959 461.811012 
L 688.293732 461.284237 
L 690.747279 461.832998 
L 691.974053 460.619854 
L 694.4276 461.922904 
L 695.654373 459.457307 
L 696.881147 458.974061 
L 698.10792 456.743339 
L 699.334694 456.574863 
L 700.561467 458.510299 
L 701.788241 458.834049 
L 703.015014 460.803347 
L 704.241788 462.004124 
L 705.468561 462.456059 
L 706.695335 468.544206 
L 707.922108 473.913055 
L 709.148882 481.123311 
L 710.375655 489.848181 
L 711.602429 496.676287 
L 712.829202 506.242064 
L 714.055976 507.77567 
L 715.282749 508.289637 
L 716.509523 505.430259 
L 717.736296 505.153866 
L 718.96307 513.448296 
L 721.416617 526.939123 
L 722.64339 523.346313 
L 723.870164 525.999329 
L 725.096937 519.367182 
L 726.323711 515.559323 
L 727.550484 511.104602 
L 728.777258 513.129158 
L 730.004031 519.129215 
L 732.457578 526.610416 
L 733.684352 526.552998 
L 734.911125 515.80843 
L 736.137899 511.489696 
L 737.364672 506.090323 
L 738.591446 505.467212 
L 739.818219 514.179028 
L 741.044993 514.549793 
L 742.271766 517.362991 
L 743.49854 518.398286 
L 744.725313 505.799747 
L 745.952087 503.748445 
L 747.17886 499.273995 
L 748.405634 502.514591 
L 749.632407 507.678648 
L 750.859181 507.622064 
L 752.085954 509.561868 
L 753.312728 507.041011 
L 754.539501 496.479347 
L 755.766275 491.384388 
L 756.993048 484.237489 
L 758.219822 485.274648 
L 759.446595 486.872789 
L 760.673369 483.906671 
L 761.900142 485.153726 
L 763.126916 484.073577 
L 764.353689 465.563563 
L 765.580463 421.206517 
L 766.807236 397.837106 
L 768.03401 402.413043 
L 769.260783 401.41696 
L 770.487557 397.822039 
L 771.71433 398.575739 
L 772.941104 402.126197 
L 774.167877 397.029275 
L 775.394651 384.921589 
L 776.621424 384.923208 
L 777.848198 393.24831 
L 774.518195 392.717658 
L 775.744968 392.723498 
L 776.971742 392.166198 
L 778.198515 398.686944 
L 779.425289 397.996895 
L 780.652062 403.653473 
L 781.878836 405.596613 
L 783.105609 409.485103 
L 784.332383 407.977605 
L 785.559156 408.247765 
L 786.78593 409.305094 
L 788.012703 410.652705 
L 789.239477 413.590996 
L 790.46625 414.16032 
L 791.693024 415.109929 
L 792.919797 417.557613 
L 794.146571 417.401897 
L 795.373344 420.388626 
L 796.600118 423.057003 
L 797.826891 424.222151 
L 799.053665 423.764572 
L 800.280438 426.289256 
L 801.507212 427.74866 
L 802.733985 431.257061 
L 803.960759 431.189827 
L 805.187532 432.499748 
L 806.414306 432.146061 
L 807.641079 432.748217 
L 808.867853 432.033433 
L 810.094626 430.544093 
L 811.3214 432.006982 
L 812.548173 432.577385 
L 813.774947 433.017493 
L 815.00172 431.021302 
L 815.371691 432.566441 
L 814.197497 429.997344 
L 811.406587 432.709889 
L 812.633361 430.429355 
L 813.860134 433.082616 
L 816.313681 430.836926 
L 817.540455 432.976859 
L 817.540455 432.976859 
" clip-path="url(#p48b204e0b3)" style="fill: none; stroke: #1f77b4; stroke-width: 1.5; stroke-linecap: square"/>
   </g>
   <g id="line2d_82">
    <path d="M 717.736296 534.04 
L 717.736296 377.820712 
" clip-path="url(#p48b204e0b3)" style="fill: none; stroke: #ff0000; stroke-opacity: 0.6; stroke-width: 0.8; stroke-linecap: square"/>
   </g>
   <g id="patch_13">
    <path d="M 68.69 534.04 
L 68.69 377.820712 
" style="fill: none; stroke: #000000; stroke-width: 0.8; stroke-linejoin: miter; stroke-linecap: square"/>
   </g>
   <g id="patch_14">
    <path d="M 853.2 534.04 
L 853.2 377.820712 
" style="fill: none; stroke: #000000; stroke-width: 0.8; stroke-linejoin: miter; stroke-linecap: square"/>
   </g>
   <g id="patch_15">
    <path d="M 68.69 534.04 
L 853.2 534.04 
" style="fill: none; stroke: #000000; stroke-width: 0.8; stroke-linejoin: miter; stroke-linecap: square"/>
   </g>
   <g id="patch_16">
    <path d="M 68.69 377.820712 
L 853.2 377.820712 
" style="fill: none; stroke: #000000; stroke-width: 0.8; stroke-linejoin: miter; stroke-linecap: square"/>
   </g>
   <g id="text_31">
    <!-- icp_yaw_deg=-88.674 -->
    <g style="fill: #ff0000" transform="translate(635.261609 421.875534) scale(0.07 -0.07)">
     <defs>
      <path id="DejaVuSans-2d" d="M 313 2009 
L 1997 2009 
L 1997 1497 
L 313 1497 
L 313 2009 
z
" transform="scale(0.015625)"/>
      <path id="DejaVuSans-38" d="M 2034 2216 
Q 1584 2216 1326 1975 
Q 1069 1734 1069 1313 
Q 1069 891 1326 650 
Q 1584 409 2034 409 
Q 2484 409 2743 651 
Q 3003 894 3003 1313 
Q 3003 1734 2745 1975 
Q 2488 2216 2034 2216 
z
M 1403 2484 
Q 997 2584 770 2862 
Q 544 3141 544 3541 
Q 544 4100 942 4425 
Q 1341 4750 2034 4750 
Q 2731 4750 3128 4425 
Q 3525 4100 3525 3541 
Q 3525 3141 3298 2862 
Q 3072 2584 2669 2484 
Q 3125 2378 3379 2068 
Q 3634 1759 3634 1313 
Q 3634 634 3220 271 
Q 2806 -91 2034 -91 
Q 1263 -91 848 271 
Q 434 634 434 1313 
Q 434 1759 690 2068 
Q 947 2378 1403 2484 
z
M 1172 3481 
Q 1172 3119 1398 2916 
Q 1625 2713 2034 2713 
Q 2441 2713 2670 2916 
Q 2900 3119 2900 3481 
Q 2900 3844 2670 4047 
Q 2441 4250 2034 4250 
Q 1625 4250 1398 4047 
Q 1172 3844 1172 3481 
z
" transform="scale(0.015625)"/>
     </defs>
     <use xlink:href="#DejaVuSans-69"/>
     <use xlink:href="#DejaVuSans-63" x="27.783203"/>
     <use xlink:href="#DejaVuSans-70" x="82.763672"/>
     <use xlink:href="#DejaVuSans-5f" x="146.240234"/>
     <use xlink:href="#DejaVuSans-79" x="196.240234"/>
     <use xlink:href="#DejaVuSans-61" x="255.419922"/>
     <use xlink:href="#DejaVuSans-77" x="316.699219"/>
     <use xlink:href="#DejaVuSans-5f" x="398.486328"/>
     <use xlink:href="#DejaVuSans-64" x="448.486328"/>
     <use xlink:href="#DejaVuSans-65" x="511.962891"/>
     <use xlink:href="#DejaVuSans-67" x="573.486328"/>
     <use xlink:href="#DejaVuSans-3d" x="636.962891"/>
     <use xlink:href="#DejaVuSans-2d" x="720.751953"/>
     <use xlink:href="#DejaVuSans-38" x="756.835938"/>
     <use xlink:href="#DejaVuSans-38" x="820.458984"/>
     <use xlink:href="#DejaVuSans-2e" x="884.082031"/>
     <use xlink:href="#DejaVuSans-36" x="915.869141"/>
     <use xlink:href="#DejaVuSans-37" x="979.492188"/>
     <use xlink:href="#DejaVuSans-34" x="1043.115234"/>
    </g>
   </g>
  </g>
  <g id="text_32">
   <!-- ICP Error  (red line at t=50.0s, longest downward gradient) -->
   <g transform="translate(255.156563 20.638125) scale(0.12 -0.12)">
    <defs>
     <path id="DejaVuSans-49" d="M 628 4666 
L 1259 4666 
L 1259 0 
L 628 0 
L 628 4666 
z
" transform="scale(0.015625)"/>
     <path id="DejaVuSans-43" d="M 4122 4306 
L 4122 3641 
Q 3803 3938 3442 4084 
Q 3081 4231 2675 4231 
Q 1875 4231 1450 3742 
Q 1025 3253 1025 2328 
Q 1025 1406 1450 917 
Q 1875 428 2675 428 
Q 3081 428 3442 575 
Q 3803 722 4122 1019 
L 4122 359 
Q 3791 134 3420 21 
Q 3050 -91 2638 -91 
Q 1578 -91 968 557 
Q 359 1206 359 2328 
Q 359 3453 968 4101 
Q 1578 4750 2638 4750 
Q 3056 4750 3426 4639 
Q 3797 4528 4122 4306 
z
" transform="scale(0.015625)"/>
     <path id="DejaVuSans-50" d="M 1259 4147 
L 1259 2394 
L 2053 2394 
Q 2494 2394 2734 2622 
Q 2975 2850 2975 3272 
Q 2975 3691 2734 3919 
Q 2494 4147 2053 4147 
L 1259 4147 
z
M 628 4666 
L 2053 4666 
Q 2838 4666 3239 4311 
Q 3641 3956 3641 3272 
Q 3641 2581 3239 2228 
Q 2838 1875 2053 1875 
L 1259 1875 
L 1259 0 
L 628 0 
L 628 4666 
z
" transform="scale(0.015625)"/>
     <path id="DejaVuSans-6c" d="M 603 4863 
L 1178 4863 
L 1178 0 
L 603 0 
L 603 4863 
z
" transform="scale(0.015625)"/>
     <path id="DejaVuSans-6e" d="M 3513 2113 
L 3513 0 
L 2938 0 
L 2938 2094 
Q 2938 2591 2744 2837 
Q 2550 3084 2163 3084 
Q 1697 3084 1428 2787 
Q 1159 2491 1159 1978 
L 1159 0 
L 581 0 
L 581 3500 
L 1159 3500 
L 1159 2956 
Q 1366 3272 1645 3428 
Q 1925 3584 2291 3584 
Q 2894 3584 3203 3211 
Q 3513 2838 3513 2113 
z
" transform="scale(0.015625)"/>
     <path id="DejaVuSans-2c" d="M 750 794 
L 1409 794 
L 1409 256 
L 897 -744 
L 494 -744 
L 750 256 
L 750 794 
z
" transform="scale(0.015625)"/>
    </defs>
    <use xlink:href="#DejaVuSans-49"/>
    <use xlink:href="#DejaVuSans-43" x="29.492188"/>
    <use xlink:href="#DejaVuSans-50" x="99.316406"/>
    <use xlink:href="#DejaVuSans-20" x="159.619141"/>
    <use xlink:href="#DejaVuSans-45" x="191.40625"/>
    <use xlink:href="#DejaVuSans-72" x="254.589844"/>
    <use xlink:href="#DejaVuSans-72" x="293.953125"/>
    <use xlink:href="#DejaVuSans-6f" x="332.816406"/>
    <use xlink:href="#DejaVuSans-72" x="393.998047"/>
    <use xlink:href="#DejaVuSans-20" x="435.111328"/>
    <use xlink:href="#DejaVuSans-20" x="466.898438"/>
    <use xlink:href="#DejaVuSans-28" x="498.685547"/>
    <use xlink:href="#DejaVuSans-72" x="537.699219"/>
    <use xlink:href="#DejaVuSans-65" x="576.5625"/>
    <use xlink:href="#DejaVuSans-64" x="638.085938"/>
    <use xlink:href="#DejaVuSans-20" x="701.5625"/>
    <use xlink:href="#DejaVuSans-6c" x="733.349609"/>
    <use xlink:href="#DejaVuSans-69" x="761.132812"/>
    <use xlink:href="#DejaVuSans-6e" x="788.916016"/>
    <use xlink:href="#DejaVuSans-65" x="852.294922"/>
    <use xlink:href="#DejaVuSans-20" x="913.818359"/>
    <use xlink:href="#DejaVuSans-61" x="945.605469"/>
    <use xlink:href="#DejaVuSans-74" x="1006.884766"/>
    <use xlink:href="#DejaVuSans-20" x="1046.09375"/>
    <use xlink:href="#DejaVuSans-74" x="1077.880859"/>
    <use xlink:href="#DejaVuSans-3d" x="1117.089844"/>
    <use xlink:href="#DejaVuSans-35" x="1200.878906"/>
    <use xlink:href="#DejaVuSans-30" x="1264.501953"/>
    <use xlink:href="#DejaVuSans-2e" x="1328.125"/>
    <use xlink:href="#DejaVuSans-30" x="1359.912109"/>
    <use xlink:href="#DejaVuSans-73" x="1423.535156"/>
    <use xlink:href="#DejaVuSans-2c" x="1475.634766"/>
    <use xlink:href="#DejaVuSans-20" x="1507.421875"/>
    <use xlink:href="#DejaVuSans-6c" x="1539.208984"/>
    <use xlink:href="#DejaVuSans-6f" x="1566.992188"/>
    <use xlink:href="#DejaVuSans-6e" x="1628.173828"/>
    <use xlink:href="#DejaVuSans-67" x="1691.552734"/>
    <use xlink:href="#DejaVuSans-65" x="1755.029297"/>
    <use xlink:href="#DejaVuSans-73" x="1816.552734"/>
    <use xlink:href="#DejaVuSans-74" x="1868.652344"/>
    <use xlink:href="#DejaVuSans-20" x="1907.861328"/>
    <use xlink:href="#DejaVuSans-64" x="1939.648438"/>
    <use xlink:href="#DejaVuSans-6f" x="2003.125"/>
    <use xlink:href="#DejaVuSans-77" x="2064.306641"/>
    <use xlink:href="#DejaVuSans-6e" x="2146.09375"/>
    <use xlink:href="#DejaVuSans-77" x="2209.472656"/>
    <use xlink:href="#DejaVuSans-61" x="2291.259766"/>
    <use xlink:href="#DejaVuSans-72" x="2352.539062"/>
    <use xlink:href="#DejaVuSans-64" x="2391.902344"/>
    <use xlink:href="#DejaVuSans-20" x="2455.378906"/>
    <use xlink:href="#DejaVuSans-67" x="2487.166016"/>
    <use xlink:href="#DejaVuSans-72" x="2550.642578"/>
    <use xlink:href="#DejaVuSans-61" x="2591.755859"/>
    <use xlink:href="#DejaVuSans-64" x="2653.035156"/>
    <use xlink:href="#DejaVuSans-69" x="2716.511719"/>
    <use xlink:href="#DejaVuSans-65" x="2744.294922"/>
    <use xlink:href="#DejaVuSans-6e" x="2805.818359"/>
    <use xlink:href="#DejaVuSans-74" x="2869.197266"/>
    <use xlink:href="#DejaVuSans-29" x="2908.40625"/>
   </g>
  </g>
 </g>
 <defs>
  <clipPath id="p0176026d6e">
   <rect x="68.69" y="34.56" width="784.51" height="156.219288"/>
  </clipPath>
  <clipPath id="p0e7240c4bb">
   <rect x="68.69" y="206.190356" width="784.51" height="156.219288"/>
  </clipPath>
  <clipPath id="p48b204e0b3">
   <rect x="68.69" y="377.820712" width="784.51" height="156.219288"/>
  </clipPath>
 </defs>
</svg>
